<ttFont>
    <TTGlyph name="A" xMin="95" yMin="39" xMax="1199" yMax="1413">
      <contour>
        <pt x="833" y="606" on="1"/>
        <pt x="833" y="613" on="1"/>
        <pt x="833" y="619" on="0"/>
        <pt x="808" y="732" on="0"/>
        <pt x="797" y="772" on="0"/>
        <pt x="738" y="1035" on="0"/>
        <pt x="666" y="1190" on="0"/>
        <pt x="653" y="1190" on="0"/>
        <pt x="618" y="1111" on="1"/>
        <pt x="446" y="718" on="0"/>
        <pt x="446" y="604" on="1"/>
        <pt x="446" y="598" on="1"/>
        <pt x="446" y="570" on="0"/>
        <pt x="538" y="570" on="1"/>
        <pt x="581" y="570" on="1"/>
        <pt x="590" y="571" on="1"/>
        <pt x="677" y="570" on="1"/>
        <pt x="720" y="570" on="1"/>
        <pt x="728" y="571" on="1"/>
        <pt x="744" y="571" on="1"/>
        <pt x="776" y="573" on="1"/>
        <pt x="833" y="573" on="0"/>
      </contour>
      <contour>
        <pt x="1199" y="96" on="1"/>
        <pt x="1199" y="78" on="1"/>
        <pt x="1199" y="39" on="0"/>
        <pt x="1078" y="39" on="0"/>
        <pt x="991" y="139" on="0"/>
        <pt x="903" y="353" on="0"/>
        <pt x="882" y="373" on="1"/>
        <pt x="835" y="417" on="0"/>
        <pt x="690" y="417" on="1"/>
        <pt x="468" y="417" on="0"/>
        <pt x="405" y="377" on="1"/>
        <pt x="367" y="353" on="0"/>
        <pt x="267" y="115" on="0"/>
        <pt x="260" y="103" on="1"/>
        <pt x="220" y="39" on="0"/>
        <pt x="159" y="39" on="1"/>
        <pt x="142" y="39" on="1"/>
        <pt x="95" y="39" on="0"/>
        <pt x="95" y="86" on="1"/>
        <pt x="95" y="123" on="0"/>
        <pt x="162" y="333" on="1"/>
        <pt x="407" y="1102" on="0"/>
        <pt x="490" y="1302" on="0"/>
        <pt x="578" y="1413" on="0"/>
        <pt x="721" y="1413" on="0"/>
        <pt x="817" y="1304" on="0"/>
        <pt x="893" y="1119" on="1"/>
        <pt x="1038" y="768" on="0"/>
        <pt x="1133" y="362" on="1"/>
        <pt x="1143" y="320" on="0"/>
        <pt x="1199" y="126" on="0"/>
      </contour>
    </TTGlyph>
    <TTGlyph name="AE" xMin="122" yMin="27" xMax="1599" yMax="1393">
      <contour>
        <pt x="633" y="586" on="1"/>
        <pt x="643" y="586" on="0"/>
        <pt x="696" y="576" on="1"/>
        <pt x="733" y="576" on="1"/>
        <pt x="790" y="576" on="0"/>
        <pt x="812" y="602" on="0"/>
        <pt x="812" y="634" on="1"/>
        <pt x="812" y="674" on="1"/>
        <pt x="811" y="696" on="1"/>
        <pt x="806" y="736" on="0"/>
        <pt x="806" y="738" on="1"/>
        <pt x="816" y="950" on="1"/>
        <pt x="817" y="960" on="1"/>
        <pt x="820" y="1020" on="1"/>
        <pt x="820" y="1030" on="0"/>
        <pt x="820" y="1040" on="1"/>
        <pt x="822" y="1087" on="1"/>
        <pt x="825" y="1128" on="1"/>
        <pt x="825" y="1188" on="1"/>
        <pt x="825" y="1218" on="0"/>
        <pt x="813" y="1218" on="1"/>
        <pt x="761" y="1218" on="0"/>
        <pt x="622" y="957" on="0"/>
        <pt x="598" y="825" on="0"/>
        <pt x="485" y="614" on="0"/>
        <pt x="485" y="604" on="1"/>
        <pt x="485" y="600" on="1"/>
        <pt x="485" y="591" on="0"/>
        <pt x="512" y="591" on="1"/>
        <pt x="569" y="596" on="1"/>
      </contour>
      <contour>
        <pt x="1405" y="1393" on="1"/>
        <pt x="1578" y="1393" on="0"/>
        <pt x="1578" y="1325" on="1"/>
        <pt x="1578" y="1281" on="0"/>
        <pt x="1498" y="1261" on="1"/>
        <pt x="1448" y="1248" on="0"/>
        <pt x="1312" y="1242" on="1"/>
        <pt x="1176" y="1238" on="0"/>
        <pt x="1142" y="1218" on="1"/>
        <pt x="1066" y="1174" on="0"/>
        <pt x="1066" y="877" on="0"/>
        <pt x="1159" y="821" on="0"/>
        <pt x="1450" y="814" on="0"/>
        <pt x="1471" y="808" on="1"/>
        <pt x="1521" y="795" on="0"/>
        <pt x="1521" y="685" on="0"/>
        <pt x="1467" y="652" on="0"/>
        <pt x="1166" y="629" on="0"/>
        <pt x="1066" y="546" on="0"/>
        <pt x="1066" y="430" on="1"/>
        <pt x="1066" y="247" on="0"/>
        <pt x="1137" y="212" on="1"/>
        <pt x="1178" y="191" on="0"/>
        <pt x="1488" y="179" on="0"/>
        <pt x="1529" y="168" on="1"/>
        <pt x="1599" y="148" on="0"/>
        <pt x="1599" y="98" on="1"/>
        <pt x="1599" y="61" on="0"/>
        <pt x="1515" y="27" on="0"/>
        <pt x="1410" y="27" on="1"/>
        <pt x="1370" y="27" on="1"/>
        <pt x="1330" y="28" on="1"/>
        <pt x="1068" y="28" on="0"/>
        <pt x="946" y="96" on="1"/>
        <pt x="902" y="121" on="0"/>
        <pt x="875" y="178" on="0"/>
        <pt x="846" y="348" on="0"/>
        <pt x="783" y="411" on="0"/>
        <pt x="691" y="411" on="1"/>
        <pt x="520" y="411" on="0"/>
        <pt x="445" y="362" on="1"/>
        <pt x="410" y="339" on="0"/>
        <pt x="285" y="126" on="0"/>
        <pt x="267" y="107" on="1"/>
        <pt x="221" y="58" on="0"/>
        <pt x="122" y="58" on="0"/>
        <pt x="122" y="98" on="1"/>
        <pt x="122" y="195" on="0"/>
        <pt x="415" y="863" on="1"/>
        <pt x="541" y="1151" on="0"/>
        <pt x="632" y="1269" on="1"/>
        <pt x="684" y="1336" on="0"/>
        <pt x="870" y="1385" on="0"/>
        <pt x="1083" y="1385" on="1"/>
        <pt x="1325" y="1393" on="1"/>
      </contour>
    </TTGlyph>
    <TTGlyph name="Aacute" xMin="75" yMin="38" xMax="1175" yMax="1849">
      <contour>
        <pt x="457" y="588" on="1"/>
        <pt x="517" y="588" on="1"/>
        <pt x="526" y="589" on="1"/>
        <pt x="617" y="590" on="1"/>
        <pt x="818" y="590" on="0"/>
        <pt x="818" y="620" on="1"/>
        <pt x="818" y="627" on="1"/>
        <pt x="818" y="663" on="0"/>
        <pt x="708" y="1036" on="0"/>
        <pt x="628" y="1208" on="0"/>
        <pt x="624" y="1208" on="1"/>
        <pt x="619" y="1208" on="1"/>
        <pt x="615" y="1208" on="0"/>
        <pt x="499" y="961" on="0"/>
        <pt x="408" y="632" on="0"/>
        <pt x="408" y="616" on="1"/>
        <pt x="408" y="610" on="1"/>
        <pt x="408" y="588" on="0"/>
      </contour>
      <contour>
        <pt x="541" y="1524" on="1"/>
        <pt x="519" y="1524" on="1"/>
        <pt x="480" y="1524" on="0"/>
        <pt x="480" y="1559" on="1"/>
        <pt x="480" y="1564" on="1"/>
        <pt x="480" y="1638" on="0"/>
        <pt x="651" y="1790" on="1"/>
        <pt x="715" y="1847" on="0"/>
        <pt x="778" y="1847" on="1"/>
        <pt x="788" y="1849" on="1"/>
        <pt x="803" y="1849" on="1"/>
        <pt x="873" y="1849" on="0"/>
        <pt x="873" y="1808" on="1"/>
        <pt x="873" y="1794" on="1"/>
        <pt x="873" y="1740" on="0"/>
        <pt x="596" y="1524" on="0"/>
      </contour>
      <contour>
        <pt x="1175" y="99" on="1"/>
        <pt x="1175" y="38" on="0"/>
        <pt x="1040" y="38" on="0"/>
        <pt x="994" y="97" on="1"/>
        <pt x="971" y="127" on="0"/>
        <pt x="878" y="361" on="0"/>
        <pt x="862" y="376" on="1"/>
        <pt x="829" y="407" on="0"/>
        <pt x="425" y="407" on="0"/>
        <pt x="352" y="364" on="0"/>
        <pt x="261" y="123" on="0"/>
        <pt x="238" y="96" on="1"/>
        <pt x="197" y="46" on="0"/>
        <pt x="75" y="46" on="0"/>
        <pt x="75" y="76" on="1"/>
        <pt x="75" y="93" on="1"/>
        <pt x="75" y="136" on="0"/>
        <pt x="143" y="359" on="1"/>
        <pt x="380" y="1139" on="0"/>
        <pt x="457" y="1331" on="0"/>
        <pt x="538" y="1418" on="0"/>
        <pt x="603" y="1418" on="1"/>
        <pt x="627" y="1418" on="1"/>
        <pt x="706" y="1418" on="0"/>
        <pt x="786" y="1326" on="0"/>
        <pt x="941" y="968" on="0"/>
        <pt x="1175" y="121" on="0"/>
      </contour>
    </TTGlyph>
    <TTGlyph name="Acircumflex" xMin="71" yMin="26" xMax="1182" yMax="1847">
      <contour>
        <pt x="817" y="602" on="1"/>
        <pt x="817" y="615" on="1"/>
        <pt x="817" y="636" on="0"/>
        <pt x="791" y="719" on="0"/>
        <pt x="781" y="764" on="1"/>
        <pt x="743" y="934" on="0"/>
        <pt x="654" y="1125" on="1"/>
        <pt x="623" y="1192" on="0"/>
        <pt x="612" y="1192" on="0"/>
        <pt x="579" y="1121" on="1"/>
        <pt x="492" y="935" on="0"/>
        <pt x="451" y="760" on="1"/>
        <pt x="439" y="710" on="0"/>
        <pt x="415" y="628" on="0"/>
        <pt x="415" y="610" on="1"/>
        <pt x="415" y="603" on="1"/>
        <pt x="415" y="577" on="0"/>
        <pt x="504" y="577" on="1"/>
        <pt x="557" y="577" on="1"/>
        <pt x="566" y="578" on="1"/>
        <pt x="628" y="578" on="1"/>
        <pt x="817" y="578" on="0"/>
      </contour>
      <contour>
        <pt x="617" y="1847" on="1"/>
        <pt x="634" y="1847" on="1"/>
        <pt x="691" y="1847" on="0"/>
        <pt x="738" y="1804" on="1"/>
        <pt x="923" y="1634" on="0"/>
        <pt x="923" y="1568" on="1"/>
        <pt x="923" y="1562" on="1"/>
        <pt x="923" y="1537" on="0"/>
        <pt x="795" y="1537" on="0"/>
        <pt x="729" y="1603" on="1"/>
        <pt x="625" y="1707" on="0"/>
        <pt x="616" y="1707" on="0"/>
        <pt x="519" y="1601" on="1"/>
        <pt x="455" y="1531" on="0"/>
        <pt x="395" y="1531" on="1"/>
        <pt x="387" y="1531" on="1"/>
        <pt x="321" y="1531" on="0"/>
        <pt x="321" y="1565" on="1"/>
        <pt x="321" y="1626" on="0"/>
        <pt x="507" y="1797" on="1"/>
        <pt x="562" y="1847" on="0"/>
      </contour>
      <contour>
        <pt x="122" y="32" on="1"/>
        <pt x="71" y="32" on="0"/>
        <pt x="71" y="63" on="1"/>
        <pt x="71" y="81" on="1"/>
        <pt x="71" y="117" on="0"/>
        <pt x="382" y="1138" on="0"/>
        <pt x="457" y="1327" on="0"/>
        <pt x="541" y="1417" on="0"/>
        <pt x="697" y="1417" on="0"/>
        <pt x="780" y="1343" on="0"/>
        <pt x="906" y="1050" on="0"/>
        <pt x="1182" y="124" on="0"/>
        <pt x="1182" y="86" on="1"/>
        <pt x="1182" y="26" on="0"/>
        <pt x="1043" y="26" on="0"/>
        <pt x="997" y="87" on="1"/>
        <pt x="971" y="122" on="0"/>
        <pt x="889" y="348" on="0"/>
        <pt x="830" y="403" on="0"/>
        <pt x="666" y="403" on="1"/>
        <pt x="566" y="401" on="1"/>
        <pt x="406" y="401" on="0"/>
        <pt x="368" y="364" on="1"/>
        <pt x="348" y="344" on="0"/>
        <pt x="266" y="124" on="0"/>
        <pt x="249" y="98" on="1"/>
        <pt x="206" y="32" on="0"/>
      </contour>
    </TTGlyph>
    <TTGlyph name="Adieresis" xMin="52" yMin="32" xMax="1165" yMax="1795">
      <contour>
        <pt x="749" y="581" on="0"/>
        <pt x="797" y="581" on="0"/>
        <pt x="797" y="604" on="1"/>
        <pt x="797" y="611" on="1"/>
        <pt x="797" y="633" on="0"/>
        <pt x="700" y="981" on="0"/>
        <pt x="603" y="1202" on="0"/>
        <pt x="593" y="1202" on="0"/>
        <pt x="508" y="1021" on="0"/>
        <pt x="395" y="636" on="0"/>
        <pt x="395" y="608" on="1"/>
        <pt x="395" y="602" on="1"/>
        <pt x="395" y="579" on="0"/>
        <pt x="593" y="579" on="1"/>
        <pt x="673" y="578" on="1"/>
        <pt x="725" y="578" on="1"/>
      </contour>
      <contour>
        <pt x="313" y="1689" on="1"/>
        <pt x="313" y="1789" on="0"/>
        <pt x="374" y="1789" on="1"/>
        <pt x="388" y="1793" on="0"/>
        <pt x="391" y="1793" on="1"/>
        <pt x="414" y="1795" on="1"/>
        <pt x="437" y="1795" on="1"/>
        <pt x="455" y="1793" on="1"/>
        <pt x="476" y="1789" on="1"/>
        <pt x="523" y="1789" on="0"/>
        <pt x="523" y="1733" on="1"/>
        <pt x="525" y="1725" on="1"/>
        <pt x="528" y="1695" on="1"/>
        <pt x="528" y="1675" on="1"/>
        <pt x="527" y="1672" on="1"/>
        <pt x="527" y="1668" on="0"/>
        <pt x="527" y="1664" on="1"/>
        <pt x="521" y="1631" on="1"/>
        <pt x="521" y="1584" on="0"/>
        <pt x="471" y="1584" on="1"/>
        <pt x="453" y="1580" on="1"/>
        <pt x="427" y="1577" on="1"/>
        <pt x="404" y="1577" on="1"/>
        <pt x="401" y="1578" on="1"/>
        <pt x="375" y="1581" on="1"/>
        <pt x="371" y="1582" on="0"/>
        <pt x="369" y="1582" on="1"/>
        <pt x="319" y="1582" on="0"/>
        <pt x="319" y="1636" on="1"/>
        <pt x="316" y="1645" on="0"/>
        <pt x="316" y="1647" on="1"/>
        <pt x="314" y="1662" on="1"/>
        <pt x="314" y="1669" on="1"/>
        <pt x="313" y="1685" on="1"/>
      </contour>
      <contour>
        <pt x="700" y="1700" on="1"/>
        <pt x="702" y="1720" on="1"/>
        <pt x="702" y="1782" on="0"/>
        <pt x="767" y="1782" on="1"/>
        <pt x="773" y="1784" on="0"/>
        <pt x="777" y="1784" on="1"/>
        <pt x="792" y="1786" on="1"/>
        <pt x="829" y="1786" on="1"/>
        <pt x="903" y="1786" on="0"/>
        <pt x="903" y="1721" on="1"/>
        <pt x="905" y="1715" on="0"/>
        <pt x="905" y="1710" on="1"/>
        <pt x="907" y="1690" on="1"/>
        <pt x="907" y="1663" on="1"/>
        <pt x="903" y="1632" on="1"/>
        <pt x="903" y="1569" on="0"/>
        <pt x="847" y="1569" on="1"/>
        <pt x="833" y="1565" on="0"/>
        <pt x="830" y="1565" on="1"/>
        <pt x="804" y="1563" on="1"/>
        <pt x="793" y="1563" on="1"/>
        <pt x="742" y="1563" on="0"/>
        <pt x="698" y="1599" on="0"/>
        <pt x="698" y="1669" on="1"/>
        <pt x="698" y="1685" on="1"/>
      </contour>
      <contour>
        <pt x="1165" y="93" on="1"/>
        <pt x="1165" y="74" on="1"/>
        <pt x="1165" y="32" on="0"/>
        <pt x="1028" y="32" on="0"/>
        <pt x="982" y="94" on="1"/>
        <pt x="959" y="125" on="0"/>
        <pt x="867" y="362" on="0"/>
        <pt x="849" y="379" on="1"/>
        <pt x="816" y="410" on="0"/>
        <pt x="406" y="410" on="0"/>
        <pt x="334" y="371" on="0"/>
        <pt x="233" y="116" on="0"/>
        <pt x="217" y="97" on="1"/>
        <pt x="173" y="44" on="0"/>
        <pt x="52" y="44" on="0"/>
        <pt x="52" y="73" on="1"/>
        <pt x="52" y="90" on="1"/>
        <pt x="52" y="130" on="0"/>
        <pt x="357" y="1133" on="0"/>
        <pt x="442" y="1333" on="0"/>
        <pt x="523" y="1423" on="0"/>
        <pt x="587" y="1423" on="1"/>
        <pt x="612" y="1423" on="1"/>
        <pt x="692" y="1423" on="0"/>
        <pt x="734" y="1374" on="1"/>
        <pt x="829" y="1265" on="0"/>
        <pt x="1080" y="407" on="0"/>
        <pt x="1165" y="146" on="0"/>
      </contour>
    </TTGlyph>
    <TTGlyph name="Agrave" xMin="71" yMin="29" xMax="1181" yMax="1867">
      <contour>
        <pt x="547" y="568" on="1"/>
        <pt x="690" y="568" on="1"/>
        <pt x="817" y="568" on="0"/>
        <pt x="817" y="601" on="1"/>
        <pt x="817" y="622" on="0"/>
        <pt x="783" y="738" on="0"/>
        <pt x="778" y="760" on="1"/>
        <pt x="741" y="927" on="0"/>
        <pt x="619" y="1188" on="0"/>
        <pt x="607" y="1188" on="0"/>
        <pt x="512" y="971" on="0"/>
        <pt x="412" y="629" on="0"/>
        <pt x="412" y="603" on="1"/>
        <pt x="412" y="596" on="1"/>
        <pt x="412" y="568" on="0"/>
      </contour>
      <contour>
        <pt x="368" y="1808" on="1"/>
        <pt x="368" y="1818" on="1"/>
        <pt x="368" y="1867" on="0"/>
        <pt x="444" y="1867" on="1"/>
        <pt x="455" y="1867" on="1"/>
        <pt x="465" y="1865" on="0"/>
        <pt x="471" y="1865" on="1"/>
        <pt x="533" y="1865" on="0"/>
        <pt x="595" y="1811" on="1"/>
        <pt x="765" y="1662" on="0"/>
        <pt x="765" y="1580" on="1"/>
        <pt x="765" y="1544" on="0"/>
        <pt x="713" y="1544" on="1"/>
        <pt x="708" y="1544" on="1"/>
        <pt x="702" y="1545" on="1"/>
        <pt x="634" y="1545" on="0"/>
        <pt x="368" y="1752" on="0"/>
      </contour>
      <contour>
        <pt x="1181" y="88" on="1"/>
        <pt x="1181" y="69" on="1"/>
        <pt x="1181" y="29" on="0"/>
        <pt x="1134" y="29" on="1"/>
        <pt x="1115" y="29" on="1"/>
        <pt x="1043" y="29" on="0"/>
        <pt x="997" y="90" on="1"/>
        <pt x="974" y="121" on="0"/>
        <pt x="883" y="357" on="0"/>
        <pt x="864" y="374" on="1"/>
        <pt x="828" y="406" on="0"/>
        <pt x="665" y="406" on="1"/>
        <pt x="591" y="404" on="1"/>
        <pt x="566" y="403" on="0"/>
        <pt x="541" y="403" on="1"/>
        <pt x="405" y="403" on="0"/>
        <pt x="368" y="366" on="1"/>
        <pt x="345" y="343" on="0"/>
        <pt x="265" y="127" on="0"/>
        <pt x="248" y="101" on="1"/>
        <pt x="205" y="34" on="0"/>
        <pt x="71" y="34" on="0"/>
        <pt x="71" y="66" on="1"/>
        <pt x="71" y="83" on="1"/>
        <pt x="71" y="117" on="0"/>
        <pt x="358" y="1080" on="0"/>
        <pt x="458" y="1330" on="0"/>
        <pt x="538" y="1419" on="0"/>
        <pt x="606" y="1419" on="1"/>
        <pt x="630" y="1419" on="1"/>
        <pt x="700" y="1419" on="0"/>
        <pt x="783" y="1342" on="0"/>
        <pt x="910" y="1041" on="0"/>
        <pt x="1181" y="130" on="0"/>
      </contour>
    </TTGlyph>
    <TTGlyph name="Aring" xMin="48" yMin="54" xMax="1173" yMax="1954">
      <contour>
        <pt x="515" y="1746" on="1"/>
        <pt x="515" y="1715" on="0"/>
        <pt x="566" y="1651" on="0"/>
        <pt x="614" y="1651" on="1"/>
        <pt x="621" y="1651" on="1"/>
        <pt x="624" y="1652" on="1"/>
        <pt x="631" y="1652" on="1"/>
        <pt x="644" y="1654" on="1"/>
        <pt x="659" y="1654" on="0"/>
        <pt x="715" y="1699" on="0"/>
        <pt x="715" y="1729" on="1"/>
        <pt x="718" y="1750" on="1"/>
        <pt x="718" y="1768" on="1"/>
        <pt x="713" y="1783" on="0"/>
        <pt x="713" y="1811" on="0"/>
        <pt x="662" y="1862" on="0"/>
        <pt x="630" y="1862" on="1"/>
        <pt x="602" y="1862" on="1"/>
        <pt x="570" y="1862" on="0"/>
        <pt x="518" y="1810" on="0"/>
        <pt x="518" y="1785" on="1"/>
        <pt x="515" y="1764" on="1"/>
      </contour>
      <contour>
        <pt x="399" y="646" on="1"/>
        <pt x="399" y="631" on="1"/>
        <pt x="399" y="600" on="0"/>
        <pt x="507" y="600" on="1"/>
        <pt x="716" y="600" on="1"/>
        <pt x="817" y="600" on="0"/>
        <pt x="817" y="637" on="1"/>
        <pt x="816" y="644" on="1"/>
        <pt x="816" y="652" on="1"/>
        <pt x="816" y="666" on="0"/>
        <pt x="786" y="774" on="0"/>
        <pt x="780" y="801" on="1"/>
        <pt x="743" y="965" on="0"/>
        <pt x="619" y="1233" on="0"/>
        <pt x="611" y="1233" on="1"/>
        <pt x="576" y="1233" on="0"/>
        <pt x="399" y="732" on="0"/>
      </contour>
      <contour>
        <pt x="603" y="1954" on="1"/>
        <pt x="637" y="1954" on="1"/>
        <pt x="713" y="1954" on="0"/>
        <pt x="824" y="1843" on="0"/>
        <pt x="824" y="1771" on="1"/>
        <pt x="824" y="1744" on="1"/>
        <pt x="824" y="1668" on="0"/>
        <pt x="704" y="1560" on="0"/>
        <pt x="617" y="1560" on="1"/>
        <pt x="610" y="1561" on="1"/>
        <pt x="596" y="1561" on="1"/>
        <pt x="582" y="1563" on="0"/>
        <pt x="576" y="1563" on="1"/>
        <pt x="518" y="1563" on="0"/>
        <pt x="411" y="1670" on="0"/>
        <pt x="411" y="1730" on="1"/>
        <pt x="409" y="1743" on="1"/>
        <pt x="409" y="1770" on="1"/>
        <pt x="411" y="1784" on="0"/>
        <pt x="411" y="1790" on="1"/>
        <pt x="411" y="1849" on="0"/>
        <pt x="527" y="1954" on="0"/>
      </contour>
      <contour>
        <pt x="1173" y="120" on="1"/>
        <pt x="1173" y="101" on="1"/>
        <pt x="1173" y="54" on="0"/>
        <pt x="1042" y="54" on="0"/>
        <pt x="996" y="116" on="1"/>
        <pt x="978" y="140" on="0"/>
        <pt x="878" y="399" on="0"/>
        <pt x="849" y="418" on="1"/>
        <pt x="804" y="447" on="0"/>
        <pt x="403" y="447" on="0"/>
        <pt x="361" y="414" on="1"/>
        <pt x="332" y="392" on="0"/>
        <pt x="250" y="164" on="0"/>
        <pt x="226" y="129" on="1"/>
        <pt x="183" y="65" on="0"/>
        <pt x="48" y="65" on="0"/>
        <pt x="48" y="127" on="0"/>
        <pt x="297" y="1046" on="0"/>
        <pt x="419" y="1342" on="0"/>
        <pt x="480" y="1409" on="1"/>
        <pt x="522" y="1455" on="0"/>
        <pt x="692" y="1455" on="0"/>
        <pt x="802" y="1355" on="0"/>
        <pt x="936" y="1031" on="0"/>
        <pt x="1173" y="157" on="0"/>
      </contour>
    </TTGlyph>
    <TTGlyph name="Atilde" xMin="77" yMin="36" xMax="1180" yMax="1791">
      <contour>
        <pt x="789" y="585" on="1"/>
        <pt x="823" y="585" on="0"/>
        <pt x="823" y="608" on="1"/>
        <pt x="823" y="622" on="1"/>
        <pt x="823" y="754" on="0"/>
        <pt x="662" y="1122" on="1"/>
        <pt x="627" y="1203" on="0"/>
        <pt x="614" y="1203" on="0"/>
        <pt x="489" y="936" on="0"/>
        <pt x="414" y="618" on="0"/>
        <pt x="414" y="613" on="1"/>
        <pt x="414" y="584" on="0"/>
        <pt x="624" y="584" on="1"/>
        <pt x="714" y="582" on="1"/>
        <pt x="740" y="582" on="1"/>
        <pt x="748" y="583" on="1"/>
        <pt x="774" y="584" on="1"/>
        <pt x="783" y="585" on="0"/>
      </contour>
      <contour>
        <pt x="952" y="1727" on="1"/>
        <pt x="952" y="1711" on="1"/>
        <pt x="952" y="1654" on="0"/>
        <pt x="846" y="1557" on="0"/>
        <pt x="724" y="1557" on="0"/>
        <pt x="523" y="1645" on="0"/>
        <pt x="460" y="1645" on="0"/>
        <pt x="372" y="1571" on="0"/>
        <pt x="338" y="1571" on="1"/>
        <pt x="296" y="1571" on="0"/>
        <pt x="296" y="1624" on="1"/>
        <pt x="297" y="1633" on="1"/>
        <pt x="297" y="1641" on="1"/>
        <pt x="297" y="1695" on="0"/>
        <pt x="410" y="1791" on="0"/>
        <pt x="465" y="1791" on="1"/>
        <pt x="498" y="1791" on="1"/>
        <pt x="529" y="1791" on="0"/>
        <pt x="748" y="1701" on="0"/>
        <pt x="794" y="1701" on="0"/>
        <pt x="879" y="1772" on="0"/>
        <pt x="912" y="1772" on="1"/>
        <pt x="952" y="1772" on="0"/>
      </contour>
      <contour>
        <pt x="1180" y="95" on="1"/>
        <pt x="1180" y="76" on="1"/>
        <pt x="1180" y="36" on="0"/>
        <pt x="1134" y="36" on="1"/>
        <pt x="1115" y="36" on="1"/>
        <pt x="1045" y="36" on="0"/>
        <pt x="999" y="97" on="1"/>
        <pt x="972" y="133" on="0"/>
        <pt x="890" y="357" on="0"/>
        <pt x="835" y="409" on="0"/>
        <pt x="669" y="409" on="1"/>
        <pt x="595" y="407" on="1"/>
        <pt x="570" y="406" on="0"/>
        <pt x="545" y="406" on="1"/>
        <pt x="408" y="406" on="0"/>
        <pt x="371" y="370" on="1"/>
        <pt x="349" y="349" on="0"/>
        <pt x="257" y="117" on="0"/>
        <pt x="252" y="109" on="1"/>
        <pt x="209" y="42" on="0"/>
        <pt x="127" y="42" on="1"/>
        <pt x="77" y="42" on="0"/>
        <pt x="77" y="71" on="1"/>
        <pt x="77" y="88" on="1"/>
        <pt x="77" y="124" on="0"/>
        <pt x="364" y="1088" on="0"/>
        <pt x="462" y="1334" on="0"/>
        <pt x="546" y="1420" on="0"/>
        <pt x="608" y="1420" on="1"/>
        <pt x="632" y="1420" on="1"/>
        <pt x="702" y="1420" on="0"/>
        <pt x="780" y="1349" on="0"/>
        <pt x="906" y="1057" on="0"/>
        <pt x="1180" y="138" on="0"/>
      </contour>
    </TTGlyph>
    <TTGlyph name="B" xMin="149" yMin="0" xMax="1109" yMax="1420">
      <contour>
        <pt x="353" y="900" on="1"/>
        <pt x="353" y="851" on="0"/>
        <pt x="376" y="821" on="0"/>
        <pt x="429" y="821" on="1"/>
        <pt x="478" y="821" on="1"/>
        <pt x="486" y="822" on="1"/>
        <pt x="827" y="822" on="0"/>
        <pt x="827" y="1056" on="1"/>
        <pt x="827" y="1073" on="1"/>
        <pt x="827" y="1160" on="0"/>
        <pt x="711" y="1264" on="0"/>
        <pt x="603" y="1264" on="1"/>
        <pt x="511" y="1264" on="1"/>
        <pt x="487" y="1262" on="1"/>
        <pt x="455" y="1260" on="1"/>
        <pt x="396" y="1260" on="0"/>
        <pt x="358" y="1226" on="0"/>
        <pt x="358" y="1165" on="1"/>
        <pt x="356" y="1149" on="1"/>
        <pt x="356" y="1141" on="0"/>
        <pt x="356" y="1133" on="1"/>
        <pt x="355" y="1116" on="1"/>
        <pt x="355" y="1099" on="1"/>
        <pt x="354" y="1083" on="1"/>
        <pt x="354" y="1049" on="1"/>
        <pt x="353" y="1016" on="1"/>
      </contour>
      <contour>
        <pt x="354" y="478" on="1"/>
        <pt x="354" y="383" on="1"/>
        <pt x="354" y="221" on="0"/>
        <pt x="385" y="167" on="0"/>
        <pt x="508" y="167" on="1"/>
        <pt x="576" y="167" on="1"/>
        <pt x="906" y="167" on="0"/>
        <pt x="906" y="429" on="1"/>
        <pt x="906" y="440" on="1"/>
        <pt x="906" y="556" on="0"/>
        <pt x="748" y="680" on="0"/>
        <pt x="595" y="680" on="1"/>
        <pt x="566" y="680" on="1"/>
        <pt x="557" y="679" on="1"/>
        <pt x="406" y="679" on="0"/>
        <pt x="354" y="637" on="0"/>
      </contour>
      <contour>
        <pt x="616" y="1420" on="1"/>
        <pt x="809" y="1420" on="0"/>
        <pt x="910" y="1337" on="1"/>
        <pt x="1024" y="1244" on="0"/>
        <pt x="1024" y="931" on="0"/>
        <pt x="931" y="828" on="1"/>
        <pt x="885" y="776" on="0"/>
        <pt x="885" y="765" on="0"/>
        <pt x="907" y="751" on="1"/>
        <pt x="926" y="740" on="1"/>
        <pt x="1007" y="692" on="0"/>
        <pt x="1109" y="535" on="0"/>
        <pt x="1109" y="427" on="1"/>
        <pt x="1109" y="403" on="1"/>
        <pt x="1108" y="310" on="0"/>
        <pt x="1068" y="228" on="1"/>
        <pt x="955" y="1" on="0"/>
        <pt x="555" y="0" on="1"/>
        <pt x="399" y="0" on="1"/>
        <pt x="289" y="0" on="0"/>
        <pt x="177" y="30" on="0"/>
        <pt x="152" y="118" on="0"/>
        <pt x="152" y="448" on="1"/>
        <pt x="152" y="799" on="1"/>
        <pt x="153" y="866" on="1"/>
        <pt x="153" y="888" on="0"/>
        <pt x="153" y="910" on="1"/>
        <pt x="149" y="1238" on="1"/>
        <pt x="149" y="1281" on="1"/>
        <pt x="149" y="1371" on="0"/>
        <pt x="252" y="1415" on="0"/>
        <pt x="408" y="1415" on="1"/>
        <pt x="431" y="1416" on="1"/>
        <pt x="454" y="1417" on="0"/>
        <pt x="476" y="1417" on="1"/>
        <pt x="545" y="1420" on="1"/>
      </contour>
    </TTGlyph>
    <TTGlyph name="C" xMin="105" yMin="-6" xMax="1124" yMax="1416">
      <contour>
        <pt x="322" y="641" on="1"/>
        <pt x="322" y="427" on="0"/>
        <pt x="511" y="179" on="0"/>
        <pt x="693" y="179" on="1"/>
        <pt x="787" y="179" on="0"/>
        <pt x="1056" y="279" on="0"/>
        <pt x="1066" y="279" on="1"/>
        <pt x="1124" y="279" on="0"/>
        <pt x="1124" y="221" on="1"/>
        <pt x="1124" y="190" on="0"/>
        <pt x="1048" y="106" on="0"/>
        <pt x="963" y="63" on="1"/>
        <pt x="825" y="-6" on="0"/>
        <pt x="677" y="-6" on="1"/>
        <pt x="646" y="-6" on="1"/>
        <pt x="399" y="-6" on="0"/>
        <pt x="252" y="161" on="1"/>
        <pt x="179" y="243" on="0"/>
        <pt x="105" y="497" on="0"/>
        <pt x="105" y="639" on="1"/>
        <pt x="105" y="671" on="1"/>
        <pt x="106" y="1194" on="0"/>
        <pt x="456" y="1360" on="1"/>
        <pt x="574" y="1416" on="0"/>
        <pt x="693" y="1416" on="1"/>
        <pt x="722" y="1416" on="1"/>
        <pt x="855" y="1416" on="0"/>
        <pt x="1078" y="1282" on="0"/>
        <pt x="1078" y="1132" on="0"/>
        <pt x="1015" y="1132" on="1"/>
        <pt x="1004" y="1132" on="0"/>
        <pt x="781" y="1220" on="0"/>
        <pt x="601" y="1220" on="0"/>
        <pt x="452" y="1141" on="0"/>
        <pt x="412" y="1077" on="1"/>
        <pt x="322" y="933" on="0"/>
      </contour>
    </TTGlyph>
    <TTGlyph name="Ccedilla" xMin="89" yMin="-462" xMax="1125" yMax="1444">
      <contour>
        <pt x="338" y="700" on="1"/>
        <pt x="338" y="436" on="0"/>
        <pt x="493" y="200" on="0"/>
        <pt x="643" y="200" on="1"/>
        <pt x="713" y="200" on="0"/>
        <pt x="1048" y="314" on="0"/>
        <pt x="1069" y="314" on="1"/>
        <pt x="1125" y="314" on="0"/>
        <pt x="1125" y="246" on="1"/>
        <pt x="1125" y="225" on="1"/>
        <pt x="1125" y="197" on="0"/>
        <pt x="1035" y="86" on="0"/>
        <pt x="960" y="48" on="1"/>
        <pt x="823" y="-22" on="0"/>
        <pt x="678" y="-22" on="1"/>
        <pt x="532" y="-22" on="0"/>
        <pt x="418" y="32" on="1"/>
        <pt x="197" y="136" on="0"/>
        <pt x="131" y="372" on="1"/>
        <pt x="89" y="522" on="0"/>
        <pt x="89" y="683" on="1"/>
        <pt x="89" y="751" on="1"/>
        <pt x="89" y="1085" on="0"/>
        <pt x="249" y="1270" on="1"/>
        <pt x="329" y="1362" on="0"/>
        <pt x="469" y="1412" on="1"/>
        <pt x="559" y="1444" on="0"/>
        <pt x="860" y="1444" on="0"/>
        <pt x="1054" y="1332" on="0"/>
        <pt x="1107" y="1245" on="1"/>
        <pt x="1123" y="1219" on="0"/>
        <pt x="1123" y="1171" on="1"/>
        <pt x="1123" y="1107" on="0"/>
        <pt x="1053" y="1107" on="1"/>
        <pt x="1027" y="1107" on="0"/>
        <pt x="748" y="1238" on="0"/>
        <pt x="561" y="1238" on="0"/>
        <pt x="502" y="1202" on="1"/>
        <pt x="338" y="1102" on="0"/>
      </contour>
      <contour>
        <pt x="495" y="-403" on="1"/>
        <pt x="495" y="-383" on="1"/>
        <pt x="495" y="-355" on="0"/>
        <pt x="623" y="-336" on="0"/>
        <pt x="669" y="-309" on="0"/>
        <pt x="669" y="-234" on="0"/>
        <pt x="575" y="-168" on="0"/>
        <pt x="575" y="-120" on="1"/>
        <pt x="575" y="-24" on="0"/>
        <pt x="659" y="-24" on="1"/>
        <pt x="674" y="-24" on="1"/>
        <pt x="700" y="-24" on="0"/>
        <pt x="710" y="-87" on="1"/>
        <pt x="712" y="-99" on="0"/>
        <pt x="846" y="-177" on="0"/>
        <pt x="846" y="-256" on="1"/>
        <pt x="846" y="-281" on="1"/>
        <pt x="846" y="-362" on="0"/>
        <pt x="712" y="-462" on="0"/>
        <pt x="613" y="-462" on="1"/>
        <pt x="605" y="-462" on="1"/>
        <pt x="495" y="-462" on="0"/>
      </contour>
    </TTGlyph>
    <TTGlyph name="D" xMin="167" yMin="3" xMax="1202" yMax="1412">
      <contour>
        <pt x="973" y="681" on="1"/>
        <pt x="973" y="765" on="1"/>
        <pt x="973" y="869" on="0"/>
        <pt x="912" y="1072" on="0"/>
        <pt x="864" y="1130" on="1"/>
        <pt x="761" y="1256" on="0"/>
        <pt x="565" y="1256" on="1"/>
        <pt x="550" y="1256" on="1"/>
        <pt x="406" y="1256" on="0"/>
        <pt x="385" y="1207" on="1"/>
        <pt x="371" y="1174" on="0"/>
        <pt x="371" y="921" on="1"/>
        <pt x="371" y="454" on="1"/>
        <pt x="372" y="424" on="1"/>
        <pt x="372" y="409" on="0"/>
        <pt x="372" y="394" on="1"/>
        <pt x="374" y="335" on="1"/>
        <pt x="377" y="276" on="1"/>
        <pt x="377" y="220" on="0"/>
        <pt x="422" y="175" on="0"/>
        <pt x="504" y="175" on="1"/>
        <pt x="561" y="175" on="1"/>
        <pt x="762" y="175" on="0"/>
        <pt x="864" y="307" on="1"/>
        <pt x="911" y="367" on="0"/>
        <pt x="973" y="568" on="0"/>
      </contour>
      <contour>
        <pt x="509" y="1412" on="1"/>
        <pt x="575" y="1412" on="1"/>
        <pt x="887" y="1412" on="0"/>
        <pt x="1202" y="1063" on="0"/>
        <pt x="1202" y="737" on="1"/>
        <pt x="1202" y="713" on="1"/>
        <pt x="1202" y="564" on="0"/>
        <pt x="1161" y="420" on="1"/>
        <pt x="1087" y="160" on="0"/>
        <pt x="851" y="58" on="1"/>
        <pt x="725" y="3" on="0"/>
        <pt x="575" y="3" on="1"/>
        <pt x="444" y="3" on="1"/>
        <pt x="281" y="3" on="0"/>
        <pt x="211" y="39" on="1"/>
        <pt x="175" y="58" on="0"/>
        <pt x="175" y="152" on="1"/>
        <pt x="179" y="282" on="1"/>
        <pt x="179" y="390" on="1"/>
        <pt x="178" y="434" on="1"/>
        <pt x="178" y="542" on="1"/>
        <pt x="177" y="585" on="1"/>
        <pt x="177" y="694" on="1"/>
        <pt x="176" y="737" on="1"/>
        <pt x="176" y="759" on="0"/>
        <pt x="176" y="781" on="1"/>
        <pt x="171" y="1036" on="1"/>
        <pt x="171" y="1067" on="0"/>
        <pt x="171" y="1098" on="1"/>
        <pt x="168" y="1203" on="1"/>
        <pt x="167" y="1224" on="1"/>
        <pt x="167" y="1266" on="1"/>
        <pt x="168" y="1286" on="1"/>
        <pt x="168" y="1367" on="0"/>
        <pt x="223" y="1384" on="1"/>
        <pt x="312" y="1412" on="0"/>
      </contour>
    </TTGlyph>
    <TTGlyph name="E" xMin="152" yMin="2" xMax="998" yMax="1415">
      <contour>
        <pt x="998" y="95" on="1"/>
        <pt x="998" y="40" on="0"/>
        <pt x="913" y="26" on="1"/>
        <pt x="769" y="2" on="0"/>
        <pt x="539" y="2" on="1"/>
        <pt x="435" y="2" on="1"/>
        <pt x="244" y="2" on="0"/>
        <pt x="152" y="94" on="0"/>
        <pt x="152" y="260" on="1"/>
        <pt x="152" y="364" on="1"/>
        <pt x="152" y="537" on="0"/>
        <pt x="183" y="959" on="0"/>
        <pt x="183" y="1324" on="0"/>
        <pt x="234" y="1356" on="1"/>
        <pt x="329" y="1415" on="0"/>
        <pt x="670" y="1415" on="1"/>
        <pt x="770" y="1415" on="1"/>
        <pt x="882" y="1415" on="0"/>
        <pt x="976" y="1387" on="0"/>
        <pt x="976" y="1341" on="1"/>
        <pt x="976" y="1288" on="0"/>
        <pt x="829" y="1249" on="0"/>
        <pt x="499" y="1233" on="0"/>
        <pt x="458" y="1202" on="1"/>
        <pt x="393" y="1152" on="0"/>
        <pt x="393" y="960" on="1"/>
        <pt x="393" y="873" on="0"/>
        <pt x="485" y="835" on="0"/>
        <pt x="825" y="813" on="0"/>
        <pt x="826" y="813" on="1"/>
        <pt x="879" y="800" on="0"/>
        <pt x="879" y="677" on="0"/>
        <pt x="819" y="660" on="1"/>
        <pt x="803" y="655" on="0"/>
        <pt x="454" y="629" on="0"/>
        <pt x="418" y="609" on="1"/>
        <pt x="367" y="581" on="0"/>
        <pt x="367" y="456" on="1"/>
        <pt x="367" y="256" on="0"/>
        <pt x="429" y="205" on="1"/>
        <pt x="463" y="177" on="0"/>
        <pt x="669" y="177" on="1"/>
        <pt x="827" y="179" on="1"/>
        <pt x="998" y="179" on="0"/>
      </contour>
    </TTGlyph>
    <TTGlyph name="Eacute" xMin="162" yMin="67" xMax="982" yMax="1843">
      <contour>
        <pt x="788" y="1841" on="1"/>
        <pt x="822" y="1841" on="0"/>
        <pt x="822" y="1814" on="1"/>
        <pt x="821" y="1809" on="1"/>
        <pt x="821" y="1805" on="1"/>
        <pt x="821" y="1776" on="0"/>
        <pt x="561" y="1487" on="0"/>
        <pt x="519" y="1487" on="1"/>
        <pt x="515" y="1487" on="1"/>
        <pt x="510" y="1488" on="1"/>
        <pt x="440" y="1488" on="0"/>
        <pt x="440" y="1533" on="1"/>
        <pt x="440" y="1553" on="1"/>
        <pt x="440" y="1574" on="0"/>
        <pt x="526" y="1710" on="0"/>
        <pt x="621" y="1793" on="1"/>
        <pt x="676" y="1841" on="0"/>
        <pt x="729" y="1841" on="1"/>
        <pt x="742" y="1843" on="1"/>
        <pt x="772" y="1843" on="1"/>
        <pt x="782" y="1841" on="0"/>
      </contour>
      <contour>
        <pt x="169" y="1040" on="1"/>
        <pt x="169" y="1339" on="0"/>
        <pt x="195" y="1370" on="1"/>
        <pt x="244" y="1430" on="0"/>
        <pt x="582" y="1430" on="1"/>
        <pt x="781" y="1430" on="1"/>
        <pt x="903" y="1430" on="0"/>
        <pt x="965" y="1401" on="0"/>
        <pt x="965" y="1365" on="1"/>
        <pt x="965" y="1304" on="0"/>
        <pt x="883" y="1286" on="1"/>
        <pt x="853" y="1279" on="0"/>
        <pt x="463" y="1261" on="0"/>
        <pt x="437" y="1242" on="1"/>
        <pt x="386" y="1205" on="0"/>
        <pt x="386" y="1033" on="1"/>
        <pt x="386" y="912" on="0"/>
        <pt x="497" y="859" on="0"/>
        <pt x="824" y="859" on="0"/>
        <pt x="878" y="834" on="0"/>
        <pt x="878" y="708" on="0"/>
        <pt x="833" y="692" on="1"/>
        <pt x="805" y="682" on="0"/>
        <pt x="468" y="682" on="0"/>
        <pt x="382" y="613" on="0"/>
        <pt x="382" y="300" on="0"/>
        <pt x="459" y="232" on="0"/>
        <pt x="866" y="232" on="0"/>
        <pt x="982" y="196" on="0"/>
        <pt x="982" y="94" on="0"/>
        <pt x="924" y="78" on="1"/>
        <pt x="885" y="67" on="0"/>
        <pt x="698" y="67" on="1"/>
        <pt x="496" y="67" on="1"/>
        <pt x="283" y="67" on="0"/>
        <pt x="162" y="124" on="0"/>
        <pt x="162" y="242" on="1"/>
        <pt x="162" y="273" on="1"/>
        <pt x="163" y="306" on="1"/>
        <pt x="168" y="672" on="1"/>
        <pt x="170" y="840" on="1"/>
        <pt x="170" y="890" on="0"/>
        <pt x="170" y="940" on="1"/>
        <pt x="169" y="973" on="1"/>
      </contour>
    </TTGlyph>
    <TTGlyph name="Ecircumflex" xMin="152" yMin="15" xMax="993" yMax="1858">
      <contour>
        <pt x="818" y="1536" on="1"/>
        <pt x="795" y="1536" on="1"/>
        <pt x="759" y="1536" on="0"/>
        <pt x="641" y="1644" on="0"/>
        <pt x="582" y="1709" on="0"/>
        <pt x="570" y="1709" on="0"/>
        <pt x="539" y="1675" on="0"/>
        <pt x="518" y="1656" on="0"/>
        <pt x="500" y="1636" on="1"/>
        <pt x="412" y="1540" on="0"/>
        <pt x="345" y="1540" on="1"/>
        <pt x="344" y="1540" on="1"/>
        <pt x="277" y="1540" on="0"/>
        <pt x="277" y="1567" on="1"/>
        <pt x="277" y="1567" on="0"/>
        <pt x="277" y="1568" on="1"/>
        <pt x="277" y="1575" on="1"/>
        <pt x="277" y="1636" on="0"/>
        <pt x="470" y="1813" on="1"/>
        <pt x="519" y="1858" on="0"/>
        <pt x="577" y="1858" on="1"/>
        <pt x="585" y="1858" on="1"/>
        <pt x="647" y="1858" on="0"/>
        <pt x="703" y="1792" on="1"/>
        <pt x="875" y="1589" on="0"/>
        <pt x="875" y="1567" on="1"/>
        <pt x="875" y="1561" on="1"/>
        <pt x="875" y="1536" on="0"/>
      </contour>
      <contour>
        <pt x="158" y="876" on="1"/>
        <pt x="158" y="1325" on="0"/>
        <pt x="181" y="1355" on="1"/>
        <pt x="228" y="1416" on="0"/>
        <pt x="507" y="1416" on="1"/>
        <pt x="576" y="1418" on="1"/>
        <pt x="679" y="1418" on="1"/>
        <pt x="714" y="1417" on="1"/>
        <pt x="876" y="1417" on="0"/>
        <pt x="911" y="1410" on="1"/>
        <pt x="972" y="1398" on="0"/>
        <pt x="972" y="1352" on="1"/>
        <pt x="972" y="1287" on="0"/>
        <pt x="888" y="1267" on="1"/>
        <pt x="842" y="1256" on="0"/>
        <pt x="476" y="1245" on="0"/>
        <pt x="448" y="1234" on="1"/>
        <pt x="402" y="1216" on="0"/>
        <pt x="371" y="1122" on="0"/>
        <pt x="371" y="881" on="0"/>
        <pt x="485" y="827" on="0"/>
        <pt x="825" y="827" on="0"/>
        <pt x="883" y="802" on="0"/>
        <pt x="883" y="675" on="0"/>
        <pt x="837" y="657" on="1"/>
        <pt x="809" y="646" on="0"/>
        <pt x="464" y="646" on="0"/>
        <pt x="372" y="578" on="0"/>
        <pt x="372" y="259" on="0"/>
        <pt x="446" y="187" on="0"/>
        <pt x="618" y="187" on="1"/>
        <pt x="651" y="186" on="1"/>
        <pt x="685" y="185" on="0"/>
        <pt x="778" y="185" on="1"/>
        <pt x="993" y="185" on="0"/>
        <pt x="993" y="94" on="1"/>
        <pt x="993" y="43" on="0"/>
        <pt x="892" y="15" on="0"/>
        <pt x="704" y="15" on="1"/>
        <pt x="497" y="15" on="1"/>
        <pt x="283" y="15" on="0"/>
        <pt x="152" y="70" on="0"/>
        <pt x="152" y="193" on="1"/>
        <pt x="152" y="258" on="1"/>
        <pt x="153" y="293" on="1"/>
        <pt x="153" y="327" on="1"/>
        <pt x="156" y="600" on="1"/>
        <pt x="156" y="669" on="1"/>
        <pt x="158" y="808" on="1"/>
        <pt x="158" y="842" on="0"/>
      </contour>
    </TTGlyph>
    <TTGlyph name="Edieresis" xMin="149" yMin="31" xMax="986" yMax="1793">
      <contour>
        <pt x="478" y="1685" on="1"/>
        <pt x="478" y="1659" on="1"/>
        <pt x="476" y="1643" on="1"/>
        <pt x="476" y="1634" on="1"/>
        <pt x="474" y="1626" on="0"/>
        <pt x="474" y="1622" on="1"/>
        <pt x="474" y="1558" on="0"/>
        <pt x="419" y="1558" on="1"/>
        <pt x="413" y="1556" on="1"/>
        <pt x="390" y="1553" on="1"/>
        <pt x="375" y="1553" on="1"/>
        <pt x="371" y="1554" on="1"/>
        <pt x="318" y="1554" on="0"/>
        <pt x="272" y="1591" on="0"/>
        <pt x="272" y="1635" on="1"/>
        <pt x="272" y="1678" on="1"/>
        <pt x="273" y="1682" on="1"/>
        <pt x="273" y="1706" on="1"/>
        <pt x="276" y="1731" on="1"/>
        <pt x="276" y="1781" on="0"/>
        <pt x="332" y="1781" on="1"/>
        <pt x="351" y="1785" on="1"/>
        <pt x="378" y="1788" on="1"/>
        <pt x="404" y="1788" on="1"/>
        <pt x="426" y="1784" on="1"/>
        <pt x="478" y="1784" on="0"/>
      </contour>
      <contour>
        <pt x="654" y="1667" on="1"/>
        <pt x="654" y="1698" on="1"/>
        <pt x="660" y="1736" on="1"/>
        <pt x="660" y="1793" on="0"/>
        <pt x="763" y="1793" on="1"/>
        <pt x="767" y="1793" on="1"/>
        <pt x="865" y="1793" on="0"/>
        <pt x="865" y="1726" on="1"/>
        <pt x="868" y="1711" on="1"/>
        <pt x="868" y="1707" on="0"/>
        <pt x="868" y="1703" on="1"/>
        <pt x="869" y="1692" on="1"/>
        <pt x="869" y="1676" on="1"/>
        <pt x="868" y="1672" on="1"/>
        <pt x="868" y="1661" on="1"/>
        <pt x="865" y="1643" on="0"/>
        <pt x="865" y="1642" on="1"/>
        <pt x="865" y="1578" on="0"/>
        <pt x="801" y="1578" on="1"/>
        <pt x="793" y="1576" on="0"/>
        <pt x="790" y="1576" on="1"/>
        <pt x="771" y="1574" on="1"/>
        <pt x="741" y="1574" on="1"/>
        <pt x="712" y="1578" on="1"/>
        <pt x="654" y="1578" on="0"/>
      </contour>
      <contour>
        <pt x="576" y="1425" on="1"/>
        <pt x="610" y="1425" on="1"/>
        <pt x="644" y="1424" on="1"/>
        <pt x="678" y="1424" on="1"/>
        <pt x="870" y="1424" on="0"/>
        <pt x="908" y="1417" on="1"/>
        <pt x="966" y="1406" on="0"/>
        <pt x="966" y="1357" on="1"/>
        <pt x="966" y="1290" on="0"/>
        <pt x="878" y="1273" on="1"/>
        <pt x="839" y="1265" on="0"/>
        <pt x="451" y="1254" on="0"/>
        <pt x="416" y="1229" on="1"/>
        <pt x="365" y="1193" on="0"/>
        <pt x="365" y="1012" on="1"/>
        <pt x="365" y="891" on="0"/>
        <pt x="484" y="838" on="0"/>
        <pt x="819" y="838" on="0"/>
        <pt x="875" y="811" on="0"/>
        <pt x="875" y="683" on="0"/>
        <pt x="827" y="667" on="1"/>
        <pt x="803" y="659" on="0"/>
        <pt x="451" y="659" on="0"/>
        <pt x="366" y="590" on="0"/>
        <pt x="366" y="249" on="0"/>
        <pt x="427" y="217" on="1"/>
        <pt x="460" y="200" on="0"/>
        <pt x="866" y="200" on="0"/>
        <pt x="986" y="162" on="0"/>
        <pt x="986" y="56" on="0"/>
        <pt x="928" y="42" on="1"/>
        <pt x="884" y="31" on="0"/>
        <pt x="627" y="31" on="1"/>
        <pt x="592" y="31" on="1"/>
        <pt x="558" y="32" on="1"/>
        <pt x="269" y="32" on="0"/>
        <pt x="149" y="89" on="0"/>
        <pt x="149" y="211" on="1"/>
        <pt x="149" y="244" on="1"/>
        <pt x="151" y="311" on="1"/>
        <pt x="152" y="413" on="1"/>
        <pt x="155" y="617" on="1"/>
        <pt x="156" y="720" on="1"/>
        <pt x="156" y="823" on="1"/>
        <pt x="154" y="994" on="1"/>
        <pt x="150" y="1197" on="1"/>
        <pt x="150" y="1354" on="0"/>
        <pt x="199" y="1382" on="1"/>
        <pt x="273" y="1425" on="0"/>
      </contour>
    </TTGlyph>
    <TTGlyph name="Egrave" xMin="153" yMin="17" xMax="993" yMax="1863">
      <contour>
        <pt x="333" y="1801" on="1"/>
        <pt x="333" y="1811" on="1"/>
        <pt x="333" y="1863" on="0"/>
        <pt x="405" y="1863" on="1"/>
        <pt x="420" y="1863" on="1"/>
        <pt x="488" y="1863" on="0"/>
        <pt x="591" y="1773" on="0"/>
        <pt x="697" y="1637" on="1"/>
        <pt x="724" y="1602" on="0"/>
        <pt x="724" y="1569" on="1"/>
        <pt x="723" y="1565" on="1"/>
        <pt x="723" y="1536" on="0"/>
        <pt x="685" y="1536" on="1"/>
        <pt x="675" y="1536" on="1"/>
        <pt x="669" y="1537" on="1"/>
        <pt x="664" y="1537" on="1"/>
        <pt x="603" y="1537" on="0"/>
        <pt x="531" y="1593" on="1"/>
        <pt x="333" y="1747" on="0"/>
      </contour>
      <contour>
        <pt x="153" y="196" on="1"/>
        <pt x="153" y="296" on="1"/>
        <pt x="154" y="330" on="1"/>
        <pt x="157" y="569" on="1"/>
        <pt x="157" y="672" on="1"/>
        <pt x="159" y="810" on="1"/>
        <pt x="159" y="879" on="1"/>
        <pt x="155" y="1119" on="1"/>
        <pt x="154" y="1153" on="1"/>
        <pt x="154" y="1186" on="0"/>
        <pt x="154" y="1219" on="1"/>
        <pt x="154" y="1345" on="0"/>
        <pt x="199" y="1374" on="1"/>
        <pt x="270" y="1420" on="0"/>
        <pt x="576" y="1420" on="1"/>
        <pt x="714" y="1420" on="1"/>
        <pt x="873" y="1420" on="0"/>
        <pt x="912" y="1412" on="1"/>
        <pt x="972" y="1400" on="0"/>
        <pt x="972" y="1353" on="1"/>
        <pt x="972" y="1289" on="0"/>
        <pt x="887" y="1269" on="1"/>
        <pt x="854" y="1261" on="0"/>
        <pt x="452" y="1243" on="0"/>
        <pt x="425" y="1223" on="1"/>
        <pt x="371" y="1183" on="0"/>
        <pt x="371" y="882" on="0"/>
        <pt x="424" y="858" on="1"/>
        <pt x="489" y="829" on="0"/>
        <pt x="826" y="829" on="0"/>
        <pt x="882" y="806" on="0"/>
        <pt x="882" y="693" on="0"/>
        <pt x="833" y="649" on="0"/>
        <pt x="713" y="649" on="1"/>
        <pt x="461" y="649" on="0"/>
        <pt x="372" y="579" on="0"/>
        <pt x="372" y="236" on="0"/>
        <pt x="434" y="206" on="1"/>
        <pt x="475" y="186" on="0"/>
        <pt x="875" y="186" on="0"/>
        <pt x="993" y="148" on="0"/>
        <pt x="993" y="44" on="0"/>
        <pt x="936" y="28" on="1"/>
        <pt x="896" y="17" on="0"/>
        <pt x="704" y="17" on="1"/>
        <pt x="531" y="17" on="1"/>
        <pt x="282" y="17" on="0"/>
        <pt x="153" y="74" on="0"/>
      </contour>
    </TTGlyph>
    <TTGlyph name="Eth" xMin="66" yMin="0" xMax="1237" yMax="1418">
      <contour>
        <pt x="403" y="1031" on="1"/>
        <pt x="403" y="943" on="1"/>
        <pt x="403" y="858" on="0"/>
        <pt x="437" y="829" on="1"/>
        <pt x="454" y="814" on="0"/>
        <pt x="624" y="794" on="0"/>
        <pt x="633" y="789" on="1"/>
        <pt x="656" y="777" on="0"/>
        <pt x="656" y="684" on="0"/>
        <pt x="627" y="663" on="1"/>
        <pt x="618" y="656" on="0"/>
        <pt x="449" y="630" on="0"/>
        <pt x="407" y="567" on="0"/>
        <pt x="407" y="218" on="0"/>
        <pt x="449" y="163" on="0"/>
        <pt x="562" y="163" on="1"/>
        <pt x="580" y="164" on="1"/>
        <pt x="695" y="164" on="0"/>
        <pt x="772" y="190" on="1"/>
        <pt x="1012" y="269" on="0"/>
        <pt x="1012" y="712" on="1"/>
        <pt x="1011" y="732" on="1"/>
        <pt x="1011" y="1157" on="0"/>
        <pt x="751" y="1236" on="1"/>
        <pt x="685" y="1256" on="0"/>
        <pt x="575" y="1256" on="1"/>
        <pt x="523" y="1256" on="1"/>
        <pt x="439" y="1256" on="0"/>
        <pt x="403" y="1184" on="0"/>
      </contour>
      <contour>
        <pt x="1237" y="693" on="1"/>
        <pt x="1237" y="541" on="0"/>
        <pt x="1159" y="272" on="0"/>
        <pt x="1084" y="184" on="1"/>
        <pt x="931" y="4" on="0"/>
        <pt x="647" y="4" on="1"/>
        <pt x="575" y="1" on="1"/>
        <pt x="480" y="0" on="1"/>
        <pt x="457" y="0" on="1"/>
        <pt x="233" y="0" on="0"/>
        <pt x="211" y="40" on="1"/>
        <pt x="202" y="56" on="0"/>
        <pt x="202" y="593" on="0"/>
        <pt x="188" y="635" on="0"/>
        <pt x="86" y="663" on="0"/>
        <pt x="66" y="691" on="0"/>
        <pt x="66" y="786" on="0"/>
        <pt x="91" y="802" on="1"/>
        <pt x="96" y="805" on="0"/>
        <pt x="187" y="824" on="0"/>
        <pt x="202" y="853" on="0"/>
        <pt x="202" y="922" on="1"/>
        <pt x="199" y="991" on="1"/>
        <pt x="199" y="1036" on="1"/>
        <pt x="198" y="1081" on="1"/>
        <pt x="198" y="1126" on="1"/>
        <pt x="197" y="1149" on="1"/>
        <pt x="196" y="1172" on="0"/>
        <pt x="196" y="1194" on="1"/>
        <pt x="194" y="1239" on="1"/>
        <pt x="192" y="1284" on="0"/>
        <pt x="192" y="1307" on="1"/>
        <pt x="192" y="1386" on="0"/>
        <pt x="239" y="1400" on="1"/>
        <pt x="300" y="1418" on="0"/>
        <pt x="532" y="1418" on="1"/>
        <pt x="580" y="1418" on="1"/>
        <pt x="759" y="1418" on="0"/>
        <pt x="871" y="1379" on="1"/>
        <pt x="1103" y="1298" on="0"/>
        <pt x="1186" y="1054" on="1"/>
        <pt x="1237" y="904" on="0"/>
        <pt x="1237" y="719" on="1"/>
      </contour>
    </TTGlyph>
    <TTGlyph name="Euro" xMin="97" yMin="-5" xMax="1097" yMax="1375">
      <contour>
        <pt x="556" y="1081" on="0"/>
        <pt x="556" y="973" on="0"/>
        <pt x="642" y="920" on="0"/>
        <pt x="845" y="874" on="0"/>
        <pt x="845" y="838" on="1"/>
        <pt x="845" y="771" on="0"/>
        <pt x="675" y="754" on="1"/>
        <pt x="653" y="752" on="0"/>
        <pt x="520" y="744" on="0"/>
        <pt x="501" y="739" on="1"/>
        <pt x="451" y="725" on="0"/>
        <pt x="451" y="638" on="0"/>
        <pt x="490" y="624" on="1"/>
        <pt x="502" y="620" on="0"/>
        <pt x="730" y="604" on="0"/>
        <pt x="765" y="596" on="1"/>
        <pt x="823" y="582" on="0"/>
        <pt x="823" y="545" on="1"/>
        <pt x="823" y="502" on="0"/>
        <pt x="530" y="425" on="0"/>
        <pt x="530" y="367" on="1"/>
        <pt x="530" y="296" on="0"/>
        <pt x="679" y="191" on="0"/>
        <pt x="816" y="191" on="1"/>
        <pt x="852" y="191" on="0"/>
        <pt x="1024" y="216" on="0"/>
        <pt x="1029" y="216" on="1"/>
        <pt x="1097" y="216" on="0"/>
        <pt x="1097" y="167" on="1"/>
        <pt x="1097" y="100" on="0"/>
        <pt x="890" y="-5" on="0"/>
        <pt x="744" y="-5" on="1"/>
        <pt x="552" y="-5" on="0"/>
        <pt x="423" y="97" on="1"/>
        <pt x="347" y="157" on="0"/>
        <pt x="205" y="434" on="0"/>
        <pt x="97" y="501" on="0"/>
        <pt x="97" y="580" on="0"/>
        <pt x="212" y="627" on="0"/>
        <pt x="212" y="730" on="0"/>
        <pt x="109" y="768" on="0"/>
        <pt x="109" y="796" on="1"/>
        <pt x="109" y="845" on="0"/>
        <pt x="224" y="933" on="0"/>
        <pt x="291" y="1058" on="1"/>
        <pt x="358" y="1184" on="0"/>
        <pt x="434" y="1248" on="1"/>
        <pt x="582" y="1375" on="0"/>
        <pt x="782" y="1375" on="1"/>
        <pt x="785" y="1375" on="1"/>
        <pt x="911" y="1375" on="0"/>
        <pt x="1081" y="1294" on="0"/>
        <pt x="1081" y="1245" on="1"/>
        <pt x="1081" y="1207" on="0"/>
        <pt x="1038" y="1164" on="0"/>
        <pt x="977" y="1164" on="1"/>
        <pt x="802" y="1178" on="1"/>
        <pt x="711" y="1178" on="0"/>
      </contour>
    </TTGlyph>
    <TTGlyph name="F" xMin="180" yMin="46" xMax="975" yMax="1412">
      <contour>
        <pt x="805" y="1412" on="1"/>
        <pt x="859" y="1412" on="1"/>
        <pt x="975" y="1412" on="0"/>
        <pt x="975" y="1352" on="1"/>
        <pt x="975" y="1335" on="1"/>
        <pt x="975" y="1290" on="0"/>
        <pt x="880" y="1269" on="1"/>
        <pt x="845" y="1261" on="0"/>
        <pt x="530" y="1242" on="0"/>
        <pt x="449" y="1199" on="0"/>
        <pt x="415" y="1108" on="0"/>
        <pt x="415" y="864" on="0"/>
        <pt x="510" y="807" on="0"/>
        <pt x="794" y="807" on="0"/>
        <pt x="881" y="757" on="0"/>
        <pt x="881" y="665" on="0"/>
        <pt x="841" y="647" on="1"/>
        <pt x="827" y="641" on="0"/>
        <pt x="749" y="628" on="1"/>
        <pt x="698" y="621" on="1"/>
        <pt x="509" y="592" on="0"/>
        <pt x="400" y="478" on="0"/>
        <pt x="365" y="219" on="1"/>
        <pt x="351" y="115" on="0"/>
        <pt x="344" y="101" on="1"/>
        <pt x="319" y="46" on="0"/>
        <pt x="217" y="46" on="0"/>
        <pt x="182" y="93" on="0"/>
        <pt x="182" y="163" on="1"/>
        <pt x="180" y="214" on="1"/>
        <pt x="180" y="319" on="1"/>
        <pt x="181" y="345" on="1"/>
        <pt x="181" y="372" on="1"/>
        <pt x="181" y="474" on="0"/>
        <pt x="195" y="731" on="0"/>
        <pt x="195" y="907" on="1"/>
        <pt x="186" y="1208" on="1"/>
        <pt x="186" y="1283" on="0"/>
        <pt x="214" y="1343" on="0"/>
        <pt x="261" y="1356" on="1"/>
        <pt x="462" y="1412" on="0"/>
      </contour>
    </TTGlyph>
    <TTGlyph name="G" xMin="109" yMin="-13" xMax="1140" yMax="1425">
      <contour>
        <pt x="952" y="304" on="0"/>
        <pt x="952" y="485" on="0"/>
        <pt x="835" y="611" on="0"/>
        <pt x="835" y="623" on="1"/>
        <pt x="835" y="658" on="0"/>
        <pt x="920" y="658" on="1"/>
        <pt x="1052" y="658" on="0"/>
        <pt x="1107" y="594" on="1"/>
        <pt x="1140" y="555" on="0"/>
        <pt x="1140" y="432" on="1"/>
        <pt x="1140" y="365" on="1"/>
        <pt x="1140" y="141" on="0"/>
        <pt x="1057" y="66" on="1"/>
        <pt x="1024" y="36" on="0"/>
        <pt x="830" y="-13" on="0"/>
        <pt x="718" y="-13" on="1"/>
        <pt x="604" y="-13" on="0"/>
        <pt x="482" y="37" on="1"/>
        <pt x="236" y="137" on="0"/>
        <pt x="151" y="419" on="1"/>
        <pt x="109" y="558" on="0"/>
        <pt x="109" y="724" on="1"/>
        <pt x="109" y="1035" on="0"/>
        <pt x="267" y="1219" on="1"/>
        <pt x="351" y="1317" on="0"/>
        <pt x="592" y="1425" on="0"/>
        <pt x="878" y="1425" on="0"/>
        <pt x="960" y="1387" on="1"/>
        <pt x="1110" y="1318" on="0"/>
        <pt x="1110" y="1233" on="1"/>
        <pt x="1110" y="1175" on="0"/>
        <pt x="1031" y="1175" on="1"/>
        <pt x="1021" y="1175" on="0"/>
        <pt x="816" y="1227" on="0"/>
        <pt x="640" y="1227" on="0"/>
        <pt x="472" y="1133" on="0"/>
        <pt x="421" y="1064" on="1"/>
        <pt x="332" y="944" on="0"/>
        <pt x="332" y="487" on="0"/>
        <pt x="426" y="342" on="1"/>
        <pt x="518" y="202" on="0"/>
        <pt x="714" y="202" on="1"/>
        <pt x="808" y="202" on="0"/>
        <pt x="869" y="246" on="1"/>
      </contour>
    </TTGlyph>
    <TTGlyph name="H" xMin="170" yMin="17" xMax="1180" yMax="1398">
      <contour>
        <pt x="183" y="1052" on="1"/>
        <pt x="177" y="1308" on="1"/>
        <pt x="177" y="1348" on="0"/>
        <pt x="211" y="1384" on="0"/>
        <pt x="322" y="1384" on="0"/>
        <pt x="349" y="1306" on="1"/>
        <pt x="361" y="1270" on="0"/>
        <pt x="382" y="917" on="0"/>
        <pt x="415" y="878" on="1"/>
        <pt x="464" y="819" on="0"/>
        <pt x="788" y="819" on="1"/>
        <pt x="902" y="819" on="0"/>
        <pt x="933" y="879" on="1"/>
        <pt x="954" y="920" on="0"/>
        <pt x="974" y="1273" on="0"/>
        <pt x="986" y="1310" on="1"/>
        <pt x="1014" y="1398" on="0"/>
        <pt x="1108" y="1398" on="1"/>
        <pt x="1139" y="1398" on="0"/>
        <pt x="1180" y="1352" on="0"/>
        <pt x="1180" y="1260" on="1"/>
        <pt x="1180" y="1153" on="1"/>
        <pt x="1179" y="1117" on="1"/>
        <pt x="1179" y="970" on="1"/>
        <pt x="1177" y="821" on="1"/>
        <pt x="1175" y="746" on="1"/>
        <pt x="1173" y="671" on="0"/>
        <pt x="1173" y="637" on="1"/>
        <pt x="1166" y="304" on="1"/>
        <pt x="1168" y="92" on="1"/>
        <pt x="1168" y="17" on="0"/>
        <pt x="1102" y="17" on="1"/>
        <pt x="1019" y="17" on="0"/>
        <pt x="964" y="137" on="0"/>
        <pt x="964" y="559" on="0"/>
        <pt x="893" y="641" on="0"/>
        <pt x="733" y="641" on="1"/>
        <pt x="463" y="641" on="0"/>
        <pt x="412" y="576" on="1"/>
        <pt x="381" y="537" on="0"/>
        <pt x="366" y="185" on="0"/>
        <pt x="350" y="123" on="1"/>
        <pt x="326" y="32" on="0"/>
        <pt x="251" y="32" on="1"/>
        <pt x="198" y="32" on="0"/>
        <pt x="170" y="81" on="0"/>
        <pt x="170" y="157" on="1"/>
        <pt x="170" y="334" on="1"/>
        <pt x="171" y="370" on="1"/>
        <pt x="171" y="547" on="0"/>
        <pt x="180" y="709" on="0"/>
        <pt x="180" y="799" on="1"/>
        <pt x="181" y="835" on="1"/>
        <pt x="182" y="871" on="0"/>
        <pt x="182" y="905" on="1"/>
        <pt x="183" y="941" on="1"/>
      </contour>
    </TTGlyph>
    <TTGlyph name="I" xMin="167" yMin="6" xMax="462" yMax="1409">
      <contour>
        <pt x="167" y="143" on="1"/>
        <pt x="167" y="166" on="0"/>
        <pt x="191" y="286" on="1"/>
        <pt x="217" y="416" on="0"/>
        <pt x="217" y="567" on="1"/>
        <pt x="219" y="641" on="1"/>
        <pt x="219" y="678" on="1"/>
        <pt x="220" y="715" on="1"/>
        <pt x="220" y="752" on="1"/>
        <pt x="221" y="788" on="1"/>
        <pt x="221" y="972" on="0"/>
        <pt x="207" y="1113" on="0"/>
        <pt x="168" y="1239" on="0"/>
        <pt x="168" y="1296" on="1"/>
        <pt x="168" y="1409" on="0"/>
        <pt x="320" y="1409" on="1"/>
        <pt x="337" y="1409" on="1"/>
        <pt x="400" y="1409" on="0"/>
        <pt x="462" y="1331" on="0"/>
        <pt x="462" y="1283" on="1"/>
        <pt x="462" y="1268" on="1"/>
        <pt x="462" y="1249" on="0"/>
        <pt x="433" y="1093" on="0"/>
        <pt x="433" y="1008" on="1"/>
        <pt x="431" y="972" on="1"/>
        <pt x="428" y="823" on="1"/>
        <pt x="428" y="730" on="1"/>
        <pt x="427" y="674" on="1"/>
        <pt x="427" y="647" on="0"/>
        <pt x="427" y="620" on="1"/>
        <pt x="426" y="602" on="1"/>
        <pt x="426" y="530" on="1"/>
        <pt x="425" y="494" on="1"/>
        <pt x="425" y="362" on="1"/>
        <pt x="425" y="298" on="0"/>
        <pt x="452" y="168" on="0"/>
        <pt x="452" y="73" on="0"/>
        <pt x="395" y="6" on="0"/>
        <pt x="327" y="6" on="1"/>
        <pt x="293" y="6" on="1"/>
        <pt x="239" y="6" on="0"/>
        <pt x="167" y="64" on="0"/>
        <pt x="167" y="126" on="1"/>
      </contour>
    </TTGlyph>
    <TTGlyph name="Iacute" xMin="157" yMin="55" xMax="536" yMax="1852">
      <contour>
        <pt x="214" y="1496" on="1"/>
        <pt x="200" y="1496" on="1"/>
        <pt x="162" y="1496" on="0"/>
        <pt x="162" y="1528" on="1"/>
        <pt x="162" y="1543" on="1"/>
        <pt x="162" y="1597" on="0"/>
        <pt x="323" y="1781" on="1"/>
        <pt x="385" y="1852" on="0"/>
        <pt x="466" y="1852" on="1"/>
        <pt x="470" y="1852" on="1"/>
        <pt x="536" y="1852" on="0"/>
        <pt x="536" y="1799" on="1"/>
        <pt x="536" y="1794" on="1"/>
        <pt x="536" y="1737" on="0"/>
        <pt x="373" y="1592" on="1"/>
        <pt x="265" y="1496" on="0"/>
      </contour>
      <contour>
        <pt x="308" y="55" on="1"/>
        <pt x="274" y="55" on="1"/>
        <pt x="212" y="55" on="0"/>
        <pt x="157" y="110" on="0"/>
        <pt x="157" y="225" on="0"/>
        <pt x="190" y="384" on="0"/>
        <pt x="190" y="441" on="1"/>
        <pt x="191" y="475" on="1"/>
        <pt x="191" y="770" on="1"/>
        <pt x="192" y="804" on="1"/>
        <pt x="192" y="891" on="1"/>
        <pt x="190" y="976" on="1"/>
        <pt x="190" y="1009" on="1"/>
        <pt x="188" y="1043" on="0"/>
        <pt x="188" y="1107" on="0"/>
        <pt x="158" y="1247" on="0"/>
        <pt x="158" y="1379" on="0"/>
        <pt x="220" y="1431" on="0"/>
        <pt x="296" y="1431" on="1"/>
        <pt x="329" y="1431" on="1"/>
        <pt x="384" y="1431" on="0"/>
        <pt x="433" y="1366" on="0"/>
        <pt x="433" y="1296" on="1"/>
        <pt x="407" y="1088" on="1"/>
        <pt x="405" y="1056" on="1"/>
        <pt x="405" y="744" on="1"/>
        <pt x="404" y="709" on="1"/>
        <pt x="404" y="467" on="1"/>
        <pt x="404" y="392" on="0"/>
        <pt x="435" y="212" on="0"/>
        <pt x="435" y="206" on="1"/>
        <pt x="435" y="190" on="1"/>
        <pt x="434" y="174" on="1"/>
        <pt x="434" y="106" on="0"/>
        <pt x="396" y="74" on="1"/>
        <pt x="374" y="55" on="0"/>
      </contour>
    </TTGlyph>
    <TTGlyph name="Icircumflex" xMin="10" yMin="42" xMax="592" yMax="1845">
      <contour>
        <pt x="592" y="1551" on="1"/>
        <pt x="592" y="1515" on="0"/>
        <pt x="511" y="1515" on="1"/>
        <pt x="462" y="1515" on="0"/>
        <pt x="399" y="1573" on="1"/>
        <pt x="375" y="1595" on="0"/>
        <pt x="348" y="1622" on="1"/>
        <pt x="300" y="1670" on="1"/>
        <pt x="252" y="1622" on="1"/>
        <pt x="249" y="1619" on="0"/>
        <pt x="134" y="1514" on="0"/>
        <pt x="10" y="1514" on="0"/>
        <pt x="10" y="1545" on="1"/>
        <pt x="10" y="1552" on="1"/>
        <pt x="10" y="1593" on="0"/>
        <pt x="192" y="1792" on="1"/>
        <pt x="241" y="1845" on="0"/>
        <pt x="302" y="1845" on="1"/>
        <pt x="310" y="1845" on="1"/>
        <pt x="363" y="1845" on="0"/>
        <pt x="412" y="1792" on="1"/>
        <pt x="592" y="1596" on="0"/>
      </contour>
      <contour>
        <pt x="329" y="1424" on="1"/>
        <pt x="432" y="1424" on="0"/>
        <pt x="432" y="1304" on="1"/>
        <pt x="432" y="1252" on="0"/>
        <pt x="407" y="1112" on="0"/>
        <pt x="407" y="1060" on="1"/>
        <pt x="407" y="939" on="1"/>
        <pt x="408" y="904" on="1"/>
        <pt x="408" y="869" on="0"/>
        <pt x="408" y="834" on="1"/>
        <pt x="409" y="799" on="1"/>
        <pt x="409" y="573" on="1"/>
        <pt x="408" y="538" on="1"/>
        <pt x="408" y="444" on="1"/>
        <pt x="408" y="360" on="0"/>
        <pt x="438" y="219" on="0"/>
        <pt x="438" y="191" on="1"/>
        <pt x="438" y="160" on="1"/>
        <pt x="438" y="91" on="0"/>
        <pt x="376" y="42" on="0"/>
        <pt x="311" y="42" on="1"/>
        <pt x="277" y="42" on="1"/>
        <pt x="209" y="42" on="0"/>
        <pt x="161" y="106" on="0"/>
        <pt x="161" y="215" on="0"/>
        <pt x="191" y="360" on="0"/>
        <pt x="191" y="411" on="1"/>
        <pt x="191" y="496" on="1"/>
        <pt x="190" y="531" on="1"/>
        <pt x="190" y="548" on="0"/>
        <pt x="190" y="565" on="1"/>
        <pt x="189" y="600" on="1"/>
        <pt x="189" y="756" on="1"/>
        <pt x="190" y="791" on="1"/>
        <pt x="190" y="896" on="1"/>
        <pt x="189" y="930" on="1"/>
        <pt x="189" y="947" on="0"/>
        <pt x="189" y="964" on="1"/>
        <pt x="188" y="1014" on="1"/>
        <pt x="188" y="1081" on="0"/>
        <pt x="157" y="1261" on="0"/>
        <pt x="157" y="1271" on="1"/>
        <pt x="157" y="1318" on="1"/>
        <pt x="157" y="1373" on="0"/>
        <pt x="221" y="1424" on="0"/>
        <pt x="296" y="1424" on="1"/>
      </contour>
    </TTGlyph>
    <TTGlyph name="Idieresis" xMin="3" yMin="57" xMax="585" yMax="1792">
      <contour>
        <pt x="114" y="1522" on="1"/>
        <pt x="91" y="1522" on="1"/>
        <pt x="60" y="1522" on="0"/>
        <pt x="8" y="1566" on="0"/>
        <pt x="8" y="1604" on="1"/>
        <pt x="4" y="1629" on="1"/>
        <pt x="4" y="1638" on="1"/>
        <pt x="3" y="1655" on="1"/>
        <pt x="4" y="1660" on="1"/>
        <pt x="4" y="1664" on="0"/>
        <pt x="4" y="1668" on="1"/>
        <pt x="7" y="1697" on="1"/>
        <pt x="9" y="1705" on="0"/>
        <pt x="9" y="1710" on="1"/>
        <pt x="9" y="1778" on="0"/>
        <pt x="78" y="1778" on="1"/>
        <pt x="84" y="1780" on="1"/>
        <pt x="106" y="1782" on="1"/>
        <pt x="109" y="1782" on="1"/>
        <pt x="204" y="1782" on="0"/>
        <pt x="204" y="1666" on="1"/>
        <pt x="204" y="1635" on="1"/>
        <pt x="200" y="1602" on="1"/>
        <pt x="200" y="1570" on="0"/>
        <pt x="152" y="1522" on="0"/>
      </contour>
      <contour>
        <pt x="373" y="1722" on="1"/>
        <pt x="373" y="1787" on="0"/>
        <pt x="437" y="1787" on="1"/>
        <pt x="440" y="1788" on="1"/>
        <pt x="444" y="1789" on="1"/>
        <pt x="481" y="1792" on="1"/>
        <pt x="485" y="1792" on="1"/>
        <pt x="489" y="1791" on="1"/>
        <pt x="515" y="1789" on="1"/>
        <pt x="531" y="1785" on="0"/>
        <pt x="535" y="1785" on="1"/>
        <pt x="585" y="1785" on="0"/>
        <pt x="585" y="1684" on="1"/>
        <pt x="584" y="1680" on="1"/>
        <pt x="584" y="1621" on="0"/>
        <pt x="545" y="1572" on="0"/>
        <pt x="484" y="1572" on="1"/>
        <pt x="465" y="1572" on="1"/>
        <pt x="461" y="1573" on="1"/>
        <pt x="454" y="1573" on="1"/>
        <pt x="443" y="1574" on="1"/>
        <pt x="422" y="1578" on="1"/>
        <pt x="373" y="1578" on="0"/>
        <pt x="373" y="1642" on="1"/>
        <pt x="370" y="1657" on="1"/>
        <pt x="370" y="1661" on="0"/>
        <pt x="370" y="1665" on="1"/>
        <pt x="369" y="1676" on="1"/>
        <pt x="369" y="1688" on="1"/>
        <pt x="371" y="1704" on="1"/>
        <pt x="371" y="1711" on="1"/>
        <pt x="373" y="1719" on="0"/>
      </contour>
      <contour>
        <pt x="329" y="1433" on="1"/>
        <pt x="329" y="1433" on="0"/>
        <pt x="331" y="1433" on="1"/>
        <pt x="431" y="1433" on="0"/>
        <pt x="431" y="1312" on="1"/>
        <pt x="431" y="1308" on="0"/>
        <pt x="431" y="1304" on="1"/>
        <pt x="431" y="1251" on="0"/>
        <pt x="418" y="1192" on="1"/>
        <pt x="404" y="1128" on="0"/>
        <pt x="404" y="1010" on="1"/>
        <pt x="404" y="502" on="1"/>
        <pt x="405" y="468" on="1"/>
        <pt x="405" y="404" on="0"/>
        <pt x="437" y="218" on="0"/>
        <pt x="437" y="207" on="1"/>
        <pt x="437" y="176" on="1"/>
        <pt x="437" y="106" on="0"/>
        <pt x="376" y="57" on="0"/>
        <pt x="294" y="57" on="1"/>
        <pt x="277" y="57" on="1"/>
        <pt x="276" y="57" on="0"/>
        <pt x="275" y="57" on="1"/>
        <pt x="162" y="57" on="0"/>
        <pt x="162" y="172" on="1"/>
        <pt x="162" y="230" on="0"/>
        <pt x="195" y="384" on="0"/>
        <pt x="195" y="488" on="1"/>
        <pt x="195" y="738" on="1"/>
        <pt x="195" y="1070" on="0"/>
        <pt x="158" y="1272" on="0"/>
        <pt x="158" y="1297" on="1"/>
        <pt x="159" y="1313" on="1"/>
        <pt x="159" y="1328" on="1"/>
        <pt x="159" y="1396" on="0"/>
        <pt x="205" y="1419" on="1"/>
        <pt x="233" y="1433" on="0"/>
        <pt x="313" y="1433" on="1"/>
      </contour>
    </TTGlyph>
    <TTGlyph name="Igrave" xMin="57" yMin="45" xMax="433" yMax="1856">
      <contour>
        <pt x="433" y="1547" on="1"/>
        <pt x="433" y="1537" on="1"/>
        <pt x="433" y="1506" on="0"/>
        <pt x="388" y="1506" on="1"/>
        <pt x="383" y="1507" on="1"/>
        <pt x="323" y="1507" on="0"/>
        <pt x="240" y="1580" on="1"/>
        <pt x="57" y="1740" on="0"/>
        <pt x="57" y="1791" on="1"/>
        <pt x="57" y="1807" on="1"/>
        <pt x="57" y="1854" on="0"/>
        <pt x="115" y="1854" on="1"/>
        <pt x="124" y="1856" on="1"/>
        <pt x="129" y="1856" on="1"/>
        <pt x="134" y="1855" on="1"/>
        <pt x="219" y="1855" on="0"/>
        <pt x="280" y="1777" on="1"/>
        <pt x="433" y="1580" on="0"/>
      </contour>
      <contour>
        <pt x="305" y="45" on="1"/>
        <pt x="271" y="45" on="1"/>
        <pt x="211" y="45" on="0"/>
        <pt x="156" y="100" on="0"/>
        <pt x="156" y="223" on="0"/>
        <pt x="186" y="368" on="0"/>
        <pt x="186" y="436" on="1"/>
        <pt x="186" y="643" on="1"/>
        <pt x="185" y="678" on="1"/>
        <pt x="185" y="835" on="1"/>
        <pt x="184" y="870" on="1"/>
        <pt x="184" y="887" on="0"/>
        <pt x="184" y="904" on="1"/>
        <pt x="181" y="1022" on="1"/>
        <pt x="181" y="1071" on="0"/>
        <pt x="148" y="1262" on="0"/>
        <pt x="148" y="1278" on="1"/>
        <pt x="148" y="1309" on="1"/>
        <pt x="148" y="1376" on="0"/>
        <pt x="211" y="1429" on="0"/>
        <pt x="288" y="1429" on="1"/>
        <pt x="321" y="1429" on="1"/>
        <pt x="423" y="1429" on="0"/>
        <pt x="423" y="1292" on="1"/>
        <pt x="423" y="1244" on="0"/>
        <pt x="397" y="1123" on="0"/>
        <pt x="397" y="1078" on="1"/>
        <pt x="397" y="1016" on="1"/>
        <pt x="398" y="981" on="1"/>
        <pt x="398" y="842" on="1"/>
        <pt x="399" y="807" on="1"/>
        <pt x="399" y="650" on="1"/>
        <pt x="400" y="615" on="1"/>
        <pt x="400" y="615" on="0"/>
        <pt x="400" y="466" on="1"/>
        <pt x="400" y="396" on="0"/>
        <pt x="433" y="205" on="0"/>
        <pt x="433" y="179" on="1"/>
        <pt x="433" y="164" on="1"/>
        <pt x="433" y="95" on="0"/>
        <pt x="370" y="45" on="0"/>
      </contour>
    </TTGlyph>
    <TTGlyph name="J" xMin="59" yMin="-57" xMax="783" yMax="1415">
      <contour>
        <pt x="59" y="116" on="1"/>
        <pt x="59" y="150" on="0"/>
        <pt x="100" y="200" on="0"/>
        <pt x="159" y="200" on="0"/>
        <pt x="271" y="164" on="0"/>
        <pt x="352" y="164" on="0"/>
        <pt x="406" y="204" on="1"/>
        <pt x="544" y="306" on="0"/>
        <pt x="544" y="728" on="1"/>
        <pt x="544" y="977" on="0"/>
        <pt x="488" y="1164" on="1"/>
        <pt x="464" y="1241" on="0"/>
        <pt x="464" y="1352" on="0"/>
        <pt x="546" y="1415" on="0"/>
        <pt x="611" y="1415" on="1"/>
        <pt x="632" y="1415" on="1"/>
        <pt x="685" y="1415" on="0"/>
        <pt x="725" y="1347" on="1"/>
        <pt x="783" y="1248" on="0"/>
        <pt x="783" y="1142" on="1"/>
        <pt x="783" y="1122" on="1"/>
        <pt x="783" y="1100" on="0"/>
        <pt x="759" y="828" on="0"/>
        <pt x="759" y="656" on="1"/>
        <pt x="759" y="292" on="0"/>
        <pt x="673" y="136" on="1"/>
        <pt x="625" y="48" on="0"/>
        <pt x="458" y="-57" on="0"/>
        <pt x="349" y="-57" on="1"/>
        <pt x="328" y="-57" on="1"/>
        <pt x="223" y="-57" on="0"/>
        <pt x="59" y="49" on="0"/>
      </contour>
    </TTGlyph>
    <TTGlyph name="K" xMin="180" yMin="18" xMax="1150" yMax="1382">
      <contour>
        <pt x="325" y="33" on="0"/>
        <pt x="207" y="33" on="0"/>
        <pt x="190" y="70" on="1"/>
        <pt x="180" y="91" on="0"/>
        <pt x="180" y="160" on="1"/>
        <pt x="180" y="228" on="1"/>
        <pt x="186" y="406" on="1"/>
        <pt x="187" y="443" on="0"/>
        <pt x="187" y="541" on="1"/>
        <pt x="187" y="692" on="1"/>
        <pt x="185" y="763" on="1"/>
        <pt x="184" y="835" on="1"/>
        <pt x="184" y="870" on="0"/>
        <pt x="183" y="905" on="1"/>
        <pt x="180" y="1009" on="1"/>
        <pt x="180" y="1142" on="1"/>
        <pt x="180" y="1314" on="0"/>
        <pt x="216" y="1382" on="0"/>
        <pt x="344" y="1382" on="0"/>
        <pt x="368" y="1286" on="1"/>
        <pt x="384" y="1219" on="0"/>
        <pt x="396" y="849" on="0"/>
        <pt x="435" y="849" on="1"/>
        <pt x="481" y="849" on="0"/>
        <pt x="835" y="1275" on="0"/>
        <pt x="868" y="1306" on="1"/>
        <pt x="946" y="1379" on="0"/>
        <pt x="1080" y="1379" on="0"/>
        <pt x="1080" y="1346" on="1"/>
        <pt x="1080" y="1324" on="0"/>
        <pt x="711" y="832" on="0"/>
        <pt x="711" y="773" on="1"/>
        <pt x="711" y="756" on="0"/>
        <pt x="1150" y="56" on="0"/>
        <pt x="1150" y="49" on="1"/>
        <pt x="1150" y="18" on="0"/>
        <pt x="1101" y="18" on="1"/>
        <pt x="1072" y="18" on="1"/>
        <pt x="1007" y="18" on="0"/>
        <pt x="888" y="137" on="0"/>
        <pt x="699" y="442" on="0"/>
        <pt x="655" y="496" on="1"/>
        <pt x="572" y="599" on="0"/>
        <pt x="463" y="599" on="0"/>
        <pt x="419" y="510" on="1"/>
        <pt x="390" y="451" on="0"/>
        <pt x="368" y="150" on="0"/>
        <pt x="350" y="102" on="1"/>
      </contour>
    </TTGlyph>
    <TTGlyph name="L" xMin="159" yMin="0" xMax="1007" yMax="1408">
      <contour>
        <pt x="893" y="176" on="1"/>
        <pt x="1007" y="176" on="0"/>
        <pt x="1007" y="91" on="1"/>
        <pt x="1007" y="72" on="1"/>
        <pt x="1007" y="26" on="0"/>
        <pt x="925" y="0" on="0"/>
        <pt x="817" y="0" on="1"/>
        <pt x="611" y="0" on="1"/>
        <pt x="588" y="1" on="1"/>
        <pt x="251" y="1" on="0"/>
        <pt x="159" y="63" on="0"/>
        <pt x="159" y="255" on="1"/>
        <pt x="159" y="413" on="1"/>
        <pt x="160" y="436" on="1"/>
        <pt x="162" y="550" on="1"/>
        <pt x="162" y="733" on="1"/>
        <pt x="163" y="778" on="1"/>
        <pt x="163" y="889" on="1"/>
        <pt x="162" y="955" on="1"/>
        <pt x="162" y="988" on="0"/>
        <pt x="162" y="1021" on="1"/>
        <pt x="161" y="1087" on="1"/>
        <pt x="161" y="1152" on="1"/>
        <pt x="159" y="1283" on="1"/>
        <pt x="159" y="1365" on="0"/>
        <pt x="188" y="1408" on="0"/>
        <pt x="294" y="1408" on="0"/>
        <pt x="350" y="1375" on="0"/>
        <pt x="371" y="1277" on="0"/>
        <pt x="371" y="307" on="0"/>
        <pt x="406" y="235" on="1"/>
        <pt x="425" y="196" on="0"/>
        <pt x="556" y="172" on="0"/>
        <pt x="702" y="172" on="1"/>
        <pt x="767" y="173" on="1"/>
        <pt x="789" y="174" on="0"/>
        <pt x="810" y="174" on="1"/>
        <pt x="852" y="176" on="1"/>
      </contour>
    </TTGlyph>
    <TTGlyph name="Lslash" xMin="68" yMin="-5" xMax="1024" yMax="1392">
      <contour>
        <pt x="656" y="943" on="1"/>
        <pt x="693" y="943" on="0"/>
        <pt x="693" y="824" on="0"/>
        <pt x="503" y="686" on="0"/>
        <pt x="479" y="645" on="1"/>
        <pt x="428" y="556" on="0"/>
        <pt x="428" y="328" on="1"/>
        <pt x="428" y="229" on="0"/>
        <pt x="505" y="195" on="1"/>
        <pt x="563" y="169" on="0"/>
        <pt x="932" y="169" on="0"/>
        <pt x="1024" y="125" on="0"/>
        <pt x="1024" y="22" on="0"/>
        <pt x="898" y="-5" on="0"/>
        <pt x="748" y="-5" on="1"/>
        <pt x="502" y="-5" on="1"/>
        <pt x="282" y="-5" on="0"/>
        <pt x="239" y="39" on="1"/>
        <pt x="208" y="71" on="0"/>
        <pt x="208" y="458" on="0"/>
        <pt x="179" y="511" on="0"/>
        <pt x="102" y="519" on="0"/>
        <pt x="94" y="527" on="1"/>
        <pt x="68" y="553" on="0"/>
        <pt x="68" y="629" on="0"/>
        <pt x="174" y="778" on="0"/>
        <pt x="209" y="891" on="0"/>
        <pt x="209" y="1267" on="0"/>
        <pt x="228" y="1343" on="1"/>
        <pt x="240" y="1392" on="0"/>
        <pt x="294" y="1392" on="1"/>
        <pt x="374" y="1392" on="0"/>
        <pt x="403" y="1314" on="1"/>
        <pt x="420" y="1268" on="0"/>
        <pt x="420" y="940" on="0"/>
        <pt x="443" y="895" on="0"/>
        <pt x="505" y="895" on="0"/>
        <pt x="614" y="943" on="0"/>
      </contour>
    </TTGlyph>
    <TTGlyph name="M" xMin="160" yMin="64" xMax="1492" yMax="1352">
      <contour>
        <pt x="1492" y="135" on="1"/>
        <pt x="1492" y="64" on="0"/>
        <pt x="1425" y="64" on="1"/>
        <pt x="1403" y="64" on="0"/>
        <pt x="1336" y="136" on="0"/>
        <pt x="1308" y="284" on="0"/>
        <pt x="1273" y="969" on="0"/>
        <pt x="1220" y="969" on="0"/>
        <pt x="941" y="339" on="0"/>
        <pt x="918" y="305" on="1"/>
        <pt x="873" y="239" on="0"/>
        <pt x="765" y="239" on="0"/>
        <pt x="701" y="347" on="0"/>
        <pt x="647" y="489" on="1"/>
        <pt x="465" y="966" on="0"/>
        <pt x="426" y="966" on="1"/>
        <pt x="403" y="966" on="0"/>
        <pt x="306" y="215" on="0"/>
        <pt x="304" y="206" on="1"/>
        <pt x="273" y="87" on="0"/>
        <pt x="224" y="87" on="1"/>
        <pt x="160" y="87" on="0"/>
        <pt x="160" y="158" on="1"/>
        <pt x="160" y="181" on="0"/>
        <pt x="181" y="450" on="0"/>
        <pt x="187" y="627" on="0"/>
        <pt x="202" y="916" on="0"/>
        <pt x="202" y="1175" on="1"/>
        <pt x="202" y="1247" on="0"/>
        <pt x="227" y="1290" on="1"/>
        <pt x="262" y="1351" on="0"/>
        <pt x="396" y="1351" on="0"/>
        <pt x="521" y="1174" on="0"/>
        <pt x="814" y="601" on="0"/>
        <pt x="839" y="601" on="0"/>
        <pt x="1118" y="1132" on="0"/>
        <pt x="1164" y="1204" on="1"/>
        <pt x="1259" y="1352" on="0"/>
        <pt x="1336" y="1352" on="1"/>
        <pt x="1431" y="1352" on="0"/>
        <pt x="1487" y="1193" on="0"/>
        <pt x="1487" y="838" on="1"/>
        <pt x="1480" y="441" on="1"/>
        <pt x="1480" y="329" on="0"/>
        <pt x="1492" y="160" on="0"/>
      </contour>
    </TTGlyph>
    <TTGlyph name="N" xMin="167" yMin="51" xMax="1244" yMax="1349">
      <contour>
        <pt x="253" y="1349" on="1"/>
        <pt x="283" y="1349" on="1"/>
        <pt x="358" y="1349" on="0"/>
        <pt x="529" y="1145" on="1"/>
        <pt x="632" y="1022" on="0"/>
        <pt x="983" y="459" on="0"/>
        <pt x="1005" y="459" on="1"/>
        <pt x="1035" y="459" on="0"/>
        <pt x="1063" y="1151" on="0"/>
        <pt x="1078" y="1229" on="1"/>
        <pt x="1101" y="1346" on="0"/>
        <pt x="1169" y="1346" on="1"/>
        <pt x="1221" y="1346" on="0"/>
        <pt x="1235" y="1308" on="1"/>
        <pt x="1244" y="1284" on="0"/>
        <pt x="1244" y="1197" on="1"/>
        <pt x="1228" y="884" on="1"/>
        <pt x="1219" y="706" on="0"/>
        <pt x="1219" y="223" on="0"/>
        <pt x="1203" y="117" on="1"/>
        <pt x="1193" y="52" on="0"/>
        <pt x="1044" y="52" on="0"/>
        <pt x="957" y="163" on="1"/>
        <pt x="953" y="169" on="0"/>
        <pt x="434" y="1020" on="0"/>
        <pt x="399" y="1020" on="1"/>
        <pt x="379" y="1020" on="0"/>
        <pt x="330" y="229" on="0"/>
        <pt x="312" y="110" on="0"/>
        <pt x="253" y="51" on="0"/>
        <pt x="234" y="51" on="1"/>
        <pt x="208" y="51" on="1"/>
        <pt x="167" y="51" on="0"/>
        <pt x="167" y="111" on="1"/>
        <pt x="167" y="181" on="1"/>
        <pt x="168" y="217" on="1"/>
        <pt x="168" y="254" on="1"/>
        <pt x="188" y="1051" on="1"/>
        <pt x="183" y="1277" on="1"/>
        <pt x="183" y="1349" on="0"/>
      </contour>
    </TTGlyph>
    <TTGlyph name="Nacute" xMin="161" yMin="40" xMax="1218" yMax="1887">
      <contour>
        <pt x="612" y="1556" on="1"/>
        <pt x="601" y="1556" on="1"/>
        <pt x="551" y="1556" on="0"/>
        <pt x="551" y="1592" on="1"/>
        <pt x="551" y="1607" on="1"/>
        <pt x="551" y="1663" on="0"/>
        <pt x="722" y="1815" on="1"/>
        <pt x="803" y="1887" on="0"/>
        <pt x="886" y="1887" on="1"/>
        <pt x="891" y="1887" on="1"/>
        <pt x="901" y="1885" on="0"/>
        <pt x="907" y="1885" on="1"/>
        <pt x="972" y="1885" on="0"/>
        <pt x="972" y="1831" on="1"/>
        <pt x="972" y="1821" on="1"/>
        <pt x="971" y="1816" on="1"/>
        <pt x="971" y="1780" on="0"/>
        <pt x="683" y="1556" on="0"/>
      </contour>
      <contour>
        <pt x="377" y="1062" on="1"/>
        <pt x="358" y="1062" on="0"/>
        <pt x="358" y="222" on="0"/>
        <pt x="326" y="98" on="0"/>
        <pt x="270" y="40" on="0"/>
        <pt x="191" y="40" on="0"/>
        <pt x="180" y="66" on="1"/>
        <pt x="161" y="113" on="0"/>
        <pt x="161" y="348" on="1"/>
        <pt x="162" y="389" on="1"/>
        <pt x="163" y="470" on="1"/>
        <pt x="163" y="798" on="1"/>
        <pt x="163" y="1288" on="0"/>
        <pt x="171" y="1318" on="1"/>
        <pt x="187" y="1376" on="0"/>
        <pt x="344" y="1376" on="0"/>
        <pt x="424" y="1282" on="1"/>
        <pt x="458" y="1241" on="0"/>
        <pt x="1005" y="501" on="0"/>
        <pt x="1015" y="501" on="1"/>
        <pt x="1041" y="501" on="0"/>
        <pt x="1041" y="1199" on="0"/>
        <pt x="1085" y="1334" on="0"/>
        <pt x="1218" y="1334" on="0"/>
        <pt x="1218" y="1251" on="1"/>
        <pt x="1218" y="1171" on="1"/>
        <pt x="1217" y="1131" on="1"/>
        <pt x="1217" y="1091" on="1"/>
        <pt x="1217" y="979" on="0"/>
        <pt x="1201" y="675" on="0"/>
        <pt x="1201" y="137" on="0"/>
        <pt x="1180" y="83" on="0"/>
        <pt x="1125" y="83" on="1"/>
        <pt x="1049" y="83" on="0"/>
        <pt x="961" y="196" on="1"/>
        <pt x="926" y="240" on="0"/>
        <pt x="725" y="574" on="0"/>
        <pt x="687" y="634" on="1"/>
        <pt x="414" y="1062" on="0"/>
      </contour>
    </TTGlyph>
    <TTGlyph name="Ntilde" xMin="156" yMin="56" xMax="1206" yMax="1794">
      <contour>
        <pt x="860" y="1551" on="1"/>
        <pt x="827" y="1551" on="1"/>
        <pt x="782" y="1551" on="0"/>
        <pt x="590" y="1653" on="0"/>
        <pt x="520" y="1653" on="0"/>
        <pt x="424" y="1565" on="0"/>
        <pt x="395" y="1565" on="1"/>
        <pt x="355" y="1565" on="0"/>
        <pt x="355" y="1606" on="1"/>
        <pt x="355" y="1614" on="1"/>
        <pt x="355" y="1676" on="0"/>
        <pt x="464" y="1794" on="0"/>
        <pt x="518" y="1794" on="1"/>
        <pt x="534" y="1794" on="1"/>
        <pt x="543" y="1793" on="1"/>
        <pt x="579" y="1793" on="0"/>
        <pt x="796" y="1691" on="0"/>
        <pt x="851" y="1691" on="0"/>
        <pt x="945" y="1777" on="0"/>
        <pt x="975" y="1777" on="1"/>
        <pt x="1015" y="1777" on="0"/>
        <pt x="1015" y="1737" on="1"/>
        <pt x="1015" y="1677" on="0"/>
        <pt x="916" y="1551" on="0"/>
      </contour>
      <contour>
        <pt x="1189" y="367" on="1"/>
        <pt x="1189" y="166" on="0"/>
        <pt x="1184" y="136" on="1"/>
        <pt x="1175" y="83" on="0"/>
        <pt x="1080" y="83" on="0"/>
        <pt x="994" y="135" on="0"/>
        <pt x="894" y="266" on="0"/>
        <pt x="723" y="550" on="0"/>
        <pt x="660" y="647" on="1"/>
        <pt x="392" y="1061" on="0"/>
        <pt x="362" y="1061" on="1"/>
        <pt x="345" y="1061" on="0"/>
        <pt x="345" y="237" on="0"/>
        <pt x="325" y="157" on="1"/>
        <pt x="300" y="56" on="0"/>
        <pt x="231" y="56" on="1"/>
        <pt x="178" y="56" on="0"/>
        <pt x="168" y="89" on="1"/>
        <pt x="163" y="105" on="0"/>
        <pt x="163" y="190" on="1"/>
        <pt x="162" y="225" on="1"/>
        <pt x="161" y="261" on="0"/>
        <pt x="161" y="299" on="1"/>
        <pt x="160" y="337" on="1"/>
        <pt x="160" y="377" on="0"/>
        <pt x="160" y="417" on="1"/>
        <pt x="161" y="538" on="1"/>
        <pt x="161" y="701" on="1"/>
        <pt x="162" y="742" on="1"/>
        <pt x="162" y="966" on="1"/>
        <pt x="162" y="1068" on="0"/>
        <pt x="161" y="1108" on="1"/>
        <pt x="156" y="1265" on="1"/>
        <pt x="156" y="1334" on="0"/>
        <pt x="201" y="1375" on="0"/>
        <pt x="236" y="1375" on="1"/>
        <pt x="329" y="1375" on="0"/>
        <pt x="465" y="1234" on="0"/>
        <pt x="989" y="483" on="0"/>
        <pt x="993" y="483" on="1"/>
        <pt x="1021" y="483" on="0"/>
        <pt x="1021" y="803" on="1"/>
        <pt x="1023" y="875" on="1"/>
        <pt x="1024" y="947" on="1"/>
        <pt x="1024" y="1209" on="0"/>
        <pt x="1073" y="1347" on="0"/>
        <pt x="1143" y="1347" on="1"/>
        <pt x="1175" y="1347" on="0"/>
        <pt x="1206" y="1305" on="0"/>
        <pt x="1206" y="1222" on="1"/>
        <pt x="1204" y="1145" on="1"/>
        <pt x="1202" y="1068" on="0"/>
        <pt x="1202" y="1029" on="1"/>
        <pt x="1189" y="717" on="1"/>
      </contour>
    </TTGlyph>
    <TTGlyph name="O" xMin="114" yMin="-17" xMax="1251" yMax="1422">
      <contour>
        <pt x="314" y="718" on="1"/>
        <pt x="314" y="652" on="1"/>
        <pt x="314" y="538" on="0"/>
        <pt x="340" y="442" on="1"/>
        <pt x="390" y="260" on="0"/>
        <pt x="509" y="192" on="1"/>
        <pt x="579" y="151" on="0"/>
        <pt x="661" y="151" on="1"/>
        <pt x="692" y="151" on="1"/>
        <pt x="772" y="151" on="0"/>
        <pt x="836" y="193" on="1"/>
        <pt x="1028" y="318" on="0"/>
        <pt x="1029" y="692" on="1"/>
        <pt x="1029" y="758" on="1"/>
        <pt x="1029" y="980" on="0"/>
        <pt x="941" y="1121" on="1"/>
        <pt x="902" y="1184" on="0"/>
        <pt x="777" y="1260" on="0"/>
        <pt x="710" y="1260" on="1"/>
        <pt x="664" y="1260" on="1"/>
        <pt x="586" y="1260" on="0"/>
        <pt x="450" y="1172" on="0"/>
        <pt x="372" y="1054" on="0"/>
        <pt x="314" y="845" on="0"/>
      </contour>
      <contour>
        <pt x="1251" y="762" on="1"/>
        <pt x="1251" y="694" on="1"/>
        <pt x="1251" y="539" on="0"/>
        <pt x="1175" y="262" on="0"/>
        <pt x="1031" y="91" on="0"/>
        <pt x="816" y="-17" on="0"/>
        <pt x="704" y="-17" on="1"/>
        <pt x="637" y="-17" on="1"/>
        <pt x="531" y="-16" on="0"/>
        <pt x="429" y="30" on="1"/>
        <pt x="221" y="125" on="0"/>
        <pt x="146" y="397" on="1"/>
        <pt x="114" y="513" on="0"/>
        <pt x="114" y="674" on="1"/>
        <pt x="115" y="696" on="1"/>
        <pt x="116" y="843" on="0"/>
        <pt x="154" y="986" on="1"/>
        <pt x="232" y="1275" on="0"/>
        <pt x="452" y="1376" on="1"/>
        <pt x="553" y="1422" on="0"/>
        <pt x="670" y="1422" on="1"/>
        <pt x="714" y="1422" on="1"/>
        <pt x="818" y="1422" on="0"/>
        <pt x="925" y="1376" on="1"/>
        <pt x="1129" y="1287" on="0"/>
        <pt x="1210" y="1036" on="1"/>
        <pt x="1251" y="910" on="0"/>
      </contour>
    </TTGlyph>
    <TTGlyph name="OE" xMin="124" yMin="2" xMax="1712" yMax="1407">
      <contour>
        <pt x="706" y="1254" on="1"/>
        <pt x="677" y="1254" on="1"/>
        <pt x="608" y="1254" on="0"/>
        <pt x="536" y="1216" on="1"/>
        <pt x="404" y="1147" on="0"/>
        <pt x="353" y="945" on="1"/>
        <pt x="321" y="817" on="0"/>
        <pt x="321" y="686" on="1"/>
        <pt x="321" y="640" on="1"/>
        <pt x="321" y="427" on="0"/>
        <pt x="408" y="294" on="1"/>
        <pt x="451" y="229" on="0"/>
        <pt x="586" y="158" on="0"/>
        <pt x="658" y="158" on="1"/>
        <pt x="687" y="158" on="1"/>
        <pt x="825" y="158" on="0"/>
        <pt x="869" y="242" on="1"/>
        <pt x="928" y="355" on="0"/>
        <pt x="928" y="628" on="1"/>
        <pt x="930" y="660" on="0"/>
        <pt x="930" y="674" on="1"/>
        <pt x="932" y="752" on="1"/>
        <pt x="932" y="828" on="1"/>
        <pt x="932" y="1071" on="0"/>
        <pt x="878" y="1179" on="1"/>
        <pt x="840" y="1254" on="0"/>
      </contour>
      <contour>
        <pt x="1712" y="108" on="1"/>
        <pt x="1712" y="56" on="0"/>
        <pt x="1568" y="13" on="0"/>
        <pt x="1258" y="13" on="0"/>
        <pt x="1155" y="27" on="0"/>
        <pt x="1059" y="46" on="0"/>
        <pt x="986" y="46" on="0"/>
        <pt x="739" y="2" on="0"/>
        <pt x="551" y="2" on="0"/>
        <pt x="448" y="42" on="1"/>
        <pt x="236" y="124" on="0"/>
        <pt x="162" y="376" on="1"/>
        <pt x="124" y="503" on="0"/>
        <pt x="124" y="659" on="1"/>
        <pt x="124" y="703" on="1"/>
        <pt x="124" y="879" on="0"/>
        <pt x="210" y="1151" on="0"/>
        <pt x="351" y="1313" on="0"/>
        <pt x="568" y="1407" on="0"/>
        <pt x="682" y="1407" on="1"/>
        <pt x="721" y="1407" on="1"/>
        <pt x="763" y="1407" on="0"/>
        <pt x="1016" y="1366" on="0"/>
        <pt x="1064" y="1366" on="0"/>
        <pt x="1282" y="1402" on="0"/>
        <pt x="1601" y="1402" on="0"/>
        <pt x="1698" y="1371" on="0"/>
        <pt x="1698" y="1289" on="0"/>
        <pt x="1613" y="1265" on="1"/>
        <pt x="1566" y="1252" on="0"/>
        <pt x="1282" y="1236" on="0"/>
        <pt x="1188" y="1181" on="0"/>
        <pt x="1162" y="1065" on="0"/>
        <pt x="1162" y="868" on="0"/>
        <pt x="1233" y="839" on="1"/>
        <pt x="1287" y="817" on="0"/>
        <pt x="1562" y="817" on="0"/>
        <pt x="1586" y="808" on="1"/>
        <pt x="1626" y="793" on="0"/>
        <pt x="1626" y="680" on="0"/>
        <pt x="1580" y="660" on="1"/>
        <pt x="1553" y="648" on="0"/>
        <pt x="1233" y="631" on="0"/>
        <pt x="1155" y="557" on="0"/>
        <pt x="1155" y="261" on="0"/>
        <pt x="1256" y="178" on="0"/>
        <pt x="1631" y="178" on="0"/>
        <pt x="1693" y="134" on="1"/>
        <pt x="1712" y="121" on="0"/>
      </contour>
    </TTGlyph>
    <TTGlyph name="Oacute" xMin="103" yMin="-8" xMax="1238" yMax="1851">
      <contour>
        <pt x="313" y="781" on="1"/>
        <pt x="313" y="683" on="1"/>
        <pt x="313" y="348" on="0"/>
        <pt x="493" y="241" on="1"/>
        <pt x="562" y="201" on="0"/>
        <pt x="633" y="201" on="1"/>
        <pt x="681" y="201" on="1"/>
        <pt x="850" y="201" on="0"/>
        <pt x="947" y="351" on="1"/>
        <pt x="1026" y="472" on="0"/>
        <pt x="1026" y="760" on="1"/>
        <pt x="1026" y="776" on="1"/>
        <pt x="1026" y="892" on="0"/>
        <pt x="972" y="1110" on="0"/>
        <pt x="934" y="1165" on="1"/>
        <pt x="846" y="1290" on="0"/>
        <pt x="678" y="1290" on="1"/>
        <pt x="662" y="1290" on="1"/>
        <pt x="488" y="1290" on="0"/>
        <pt x="394" y="1145" on="1"/>
        <pt x="313" y="1021" on="0"/>
      </contour>
      <contour>
        <pt x="586" y="1520" on="1"/>
        <pt x="565" y="1520" on="1"/>
        <pt x="526" y="1520" on="0"/>
        <pt x="526" y="1550" on="1"/>
        <pt x="526" y="1559" on="1"/>
        <pt x="526" y="1591" on="0"/>
        <pt x="559" y="1633" on="1"/>
        <pt x="661" y="1764" on="0"/>
        <pt x="770" y="1849" on="0"/>
        <pt x="827" y="1849" on="1"/>
        <pt x="838" y="1851" on="1"/>
        <pt x="859" y="1851" on="1"/>
        <pt x="924" y="1851" on="0"/>
        <pt x="924" y="1806" on="1"/>
        <pt x="924" y="1801" on="1"/>
        <pt x="924" y="1739" on="0"/>
        <pt x="749" y="1603" on="1"/>
        <pt x="642" y="1520" on="0"/>
      </contour>
      <contour>
        <pt x="1238" y="757" on="1"/>
        <pt x="1238" y="666" on="1"/>
        <pt x="1238" y="517" on="0"/>
        <pt x="1159" y="247" on="0"/>
        <pt x="1017" y="84" on="0"/>
        <pt x="799" y="-8" on="0"/>
        <pt x="682" y="-8" on="1"/>
        <pt x="637" y="-8" on="1"/>
        <pt x="511" y="-8" on="0"/>
        <pt x="407" y="44" on="1"/>
        <pt x="304" y="96" on="0"/>
        <pt x="240" y="178" on="1"/>
        <pt x="104" y="354" on="0"/>
        <pt x="103" y="704" on="1"/>
        <pt x="103" y="750" on="1"/>
        <pt x="103" y="1260" on="0"/>
        <pt x="429" y="1402" on="1"/>
        <pt x="531" y="1446" on="0"/>
        <pt x="633" y="1446" on="1"/>
        <pt x="701" y="1446" on="1"/>
        <pt x="826" y="1446" on="0"/>
        <pt x="1037" y="1340" on="0"/>
        <pt x="1166" y="1176" on="0"/>
        <pt x="1238" y="907" on="0"/>
      </contour>
    </TTGlyph>
    <TTGlyph name="Ocircumflex" xMin="102" yMin="-13" xMax="1241" yMax="1846">
      <contour>
        <pt x="316" y="775" on="1"/>
        <pt x="316" y="693" on="1"/>
        <pt x="316" y="561" on="0"/>
        <pt x="375" y="353" on="0"/>
        <pt x="412" y="300" on="1"/>
        <pt x="494" y="182" on="0"/>
        <pt x="657" y="182" on="1"/>
        <pt x="673" y="182" on="1"/>
        <pt x="689" y="183" on="1"/>
        <pt x="766" y="183" on="0"/>
        <pt x="836" y="221" on="1"/>
        <pt x="1021" y="320" on="0"/>
        <pt x="1021" y="707" on="1"/>
        <pt x="1021" y="711" on="1"/>
        <pt x="1021" y="776" on="1"/>
        <pt x="1021" y="873" on="0"/>
        <pt x="966" y="1095" on="0"/>
        <pt x="926" y="1153" on="1"/>
        <pt x="839" y="1278" on="0"/>
        <pt x="670" y="1278" on="1"/>
        <pt x="654" y="1278" on="1"/>
        <pt x="496" y="1278" on="0"/>
        <pt x="408" y="1151" on="1"/>
        <pt x="367" y="1092" on="0"/>
        <pt x="316" y="881" on="0"/>
      </contour>
      <contour>
        <pt x="661" y="1846" on="1"/>
        <pt x="678" y="1846" on="1"/>
        <pt x="735" y="1846" on="0"/>
        <pt x="782" y="1803" on="1"/>
        <pt x="968" y="1632" on="0"/>
        <pt x="968" y="1579" on="1"/>
        <pt x="968" y="1572" on="1"/>
        <pt x="968" y="1541" on="0"/>
        <pt x="827" y="1541" on="0"/>
        <pt x="721" y="1658" on="1"/>
        <pt x="678" y="1705" on="0"/>
        <pt x="668" y="1705" on="1"/>
        <pt x="578" y="1621" on="1"/>
        <pt x="565" y="1610" on="1"/>
        <pt x="485" y="1537" on="0"/>
        <pt x="442" y="1537" on="1"/>
        <pt x="419" y="1537" on="1"/>
        <pt x="363" y="1537" on="0"/>
        <pt x="363" y="1564" on="1"/>
        <pt x="363" y="1570" on="1"/>
        <pt x="363" y="1626" on="0"/>
        <pt x="550" y="1797" on="1"/>
        <pt x="603" y="1846" on="0"/>
      </contour>
      <contour>
        <pt x="1241" y="753" on="1"/>
        <pt x="1241" y="661" on="1"/>
        <pt x="1241" y="525" on="0"/>
        <pt x="1171" y="263" on="0"/>
        <pt x="1040" y="96" on="0"/>
        <pt x="816" y="-13" on="0"/>
        <pt x="706" y="-13" on="1"/>
        <pt x="638" y="-13" on="1"/>
        <pt x="520" y="-13" on="0"/>
        <pt x="414" y="36" on="1"/>
        <pt x="209" y="130" on="0"/>
        <pt x="142" y="376" on="1"/>
        <pt x="102" y="525" on="0"/>
        <pt x="102" y="676" on="1"/>
        <pt x="102" y="745" on="1"/>
        <pt x="102" y="1257" on="0"/>
        <pt x="422" y="1395" on="1"/>
        <pt x="531" y="1442" on="0"/>
        <pt x="633" y="1442" on="1"/>
        <pt x="702" y="1442" on="1"/>
        <pt x="818" y="1442" on="0"/>
        <pt x="1032" y="1344" on="0"/>
        <pt x="1161" y="1184" on="0"/>
        <pt x="1241" y="917" on="0"/>
      </contour>
    </TTGlyph>
    <TTGlyph name="Odieresis" xMin="79" yMin="-9" xMax="1226" yMax="1798">
      <contour>
        <pt x="298" y="778" on="1"/>
        <pt x="298" y="678" on="1"/>
        <pt x="298" y="309" on="0"/>
        <pt x="494" y="207" on="1"/>
        <pt x="557" y="174" on="0"/>
        <pt x="639" y="174" on="1"/>
        <pt x="671" y="174" on="1"/>
        <pt x="838" y="174" on="0"/>
        <pt x="932" y="329" on="1"/>
        <pt x="1003" y="446" on="0"/>
        <pt x="1003" y="697" on="1"/>
        <pt x="1003" y="780" on="1"/>
        <pt x="1003" y="879" on="0"/>
        <pt x="950" y="1099" on="0"/>
        <pt x="909" y="1158" on="1"/>
        <pt x="821" y="1284" on="0"/>
        <pt x="652" y="1284" on="1"/>
        <pt x="635" y="1284" on="1"/>
        <pt x="471" y="1284" on="0"/>
        <pt x="298" y="1019" on="0"/>
      </contour>
      <contour>
        <pt x="350" y="1683" on="1"/>
        <pt x="350" y="1699" on="1"/>
        <pt x="351" y="1702" on="1"/>
        <pt x="354" y="1728" on="1"/>
        <pt x="355" y="1732" on="0"/>
        <pt x="355" y="1735" on="1"/>
        <pt x="355" y="1794" on="0"/>
        <pt x="420" y="1794" on="1"/>
        <pt x="428" y="1796" on="0"/>
        <pt x="431" y="1796" on="1"/>
        <pt x="451" y="1798" on="1"/>
        <pt x="482" y="1798" on="1"/>
        <pt x="527" y="1798" on="0"/>
        <pt x="572" y="1762" on="0"/>
        <pt x="572" y="1712" on="1"/>
        <pt x="572" y="1674" on="1"/>
        <pt x="567" y="1659" on="0"/>
        <pt x="567" y="1645" on="1"/>
        <pt x="567" y="1591" on="0"/>
        <pt x="506" y="1591" on="1"/>
        <pt x="502" y="1590" on="1"/>
        <pt x="499" y="1589" on="1"/>
        <pt x="468" y="1586" on="1"/>
        <pt x="440" y="1586" on="1"/>
        <pt x="437" y="1587" on="1"/>
        <pt x="429" y="1587" on="1"/>
        <pt x="397" y="1593" on="1"/>
        <pt x="350" y="1593" on="0"/>
      </contour>
      <contour>
        <pt x="790" y="1587" on="1"/>
        <pt x="736" y="1587" on="0"/>
        <pt x="736" y="1638" on="1"/>
        <pt x="732" y="1655" on="1"/>
        <pt x="730" y="1677" on="1"/>
        <pt x="730" y="1695" on="1"/>
        <pt x="734" y="1723" on="1"/>
        <pt x="734" y="1779" on="0"/>
        <pt x="788" y="1779" on="1"/>
        <pt x="807" y="1783" on="1"/>
        <pt x="831" y="1786" on="1"/>
        <pt x="868" y="1786" on="1"/>
        <pt x="899" y="1782" on="1"/>
        <pt x="962" y="1782" on="0"/>
        <pt x="962" y="1702" on="1"/>
        <pt x="962" y="1666" on="1"/>
        <pt x="958" y="1642" on="1"/>
        <pt x="958" y="1586" on="0"/>
        <pt x="889" y="1586" on="1"/>
        <pt x="883" y="1584" on="0"/>
        <pt x="878" y="1584" on="1"/>
        <pt x="858" y="1582" on="1"/>
        <pt x="829" y="1582" on="1"/>
        <pt x="825" y="1583" on="1"/>
        <pt x="797" y="1586" on="1"/>
        <pt x="793" y="1587" on="0"/>
      </contour>
      <contour>
        <pt x="1226" y="756" on="1"/>
        <pt x="1226" y="686" on="1"/>
        <pt x="1226" y="370" on="0"/>
        <pt x="1092" y="186" on="1"/>
        <pt x="1028" y="98" on="0"/>
        <pt x="796" y="-9" on="0"/>
        <pt x="663" y="-9" on="1"/>
        <pt x="640" y="-9" on="1"/>
        <pt x="512" y="-9" on="0"/>
        <pt x="404" y="38" on="1"/>
        <pt x="186" y="133" on="0"/>
        <pt x="118" y="387" on="1"/>
        <pt x="79" y="532" on="0"/>
        <pt x="79" y="688" on="1"/>
        <pt x="79" y="757" on="1"/>
        <pt x="79" y="909" on="0"/>
        <pt x="152" y="1180" on="0"/>
        <pt x="291" y="1352" on="0"/>
        <pt x="511" y="1451" on="0"/>
        <pt x="644" y="1451" on="1"/>
        <pt x="667" y="1451" on="1"/>
        <pt x="802" y="1451" on="0"/>
        <pt x="1021" y="1350" on="0"/>
        <pt x="1152" y="1183" on="0"/>
        <pt x="1226" y="907" on="0"/>
      </contour>
    </TTGlyph>
    <TTGlyph name="Ograve" xMin="102" yMin="-8" xMax="1241" yMax="1875">
      <contour>
        <pt x="312" y="759" on="1"/>
        <pt x="312" y="693" on="1"/>
        <pt x="312" y="322" on="0"/>
        <pt x="498" y="213" on="1"/>
        <pt x="567" y="173" on="0"/>
        <pt x="655" y="173" on="1"/>
        <pt x="671" y="173" on="1"/>
        <pt x="845" y="173" on="0"/>
        <pt x="942" y="315" on="1"/>
        <pt x="1021" y="431" on="0"/>
        <pt x="1021" y="710" on="1"/>
        <pt x="1021" y="744" on="1"/>
        <pt x="1021" y="870" on="0"/>
        <pt x="969" y="1088" on="0"/>
        <pt x="892" y="1205" on="0"/>
        <pt x="758" y="1278" on="0"/>
        <pt x="667" y="1278" on="1"/>
        <pt x="651" y="1278" on="1"/>
        <pt x="479" y="1278" on="0"/>
        <pt x="387" y="1130" on="1"/>
        <pt x="312" y="1010" on="0"/>
      </contour>
      <contour>
        <pt x="722" y="1554" on="1"/>
        <pt x="688" y="1554" on="0"/>
        <pt x="503" y="1698" on="1"/>
        <pt x="414" y="1767" on="0"/>
        <pt x="414" y="1823" on="1"/>
        <pt x="415" y="1828" on="1"/>
        <pt x="415" y="1875" on="0"/>
        <pt x="486" y="1875" on="1"/>
        <pt x="508" y="1875" on="1"/>
        <pt x="577" y="1875" on="0"/>
        <pt x="644" y="1816" on="1"/>
        <pt x="807" y="1673" on="0"/>
        <pt x="807" y="1592" on="1"/>
        <pt x="807" y="1578" on="1"/>
        <pt x="807" y="1552" on="0"/>
        <pt x="765" y="1552" on="1"/>
        <pt x="738" y="1552" on="1"/>
        <pt x="728" y="1554" on="0"/>
      </contour>
      <contour>
        <pt x="1241" y="761" on="1"/>
        <pt x="1241" y="692" on="1"/>
        <pt x="1241" y="373" on="0"/>
        <pt x="1110" y="191" on="1"/>
        <pt x="1048" y="105" on="0"/>
        <pt x="815" y="-8" on="0"/>
        <pt x="684" y="-8" on="1"/>
        <pt x="661" y="-8" on="1"/>
        <pt x="398" y="-8" on="0"/>
        <pt x="252" y="160" on="1"/>
        <pt x="177" y="246" on="0"/>
        <pt x="102" y="527" on="0"/>
        <pt x="102" y="680" on="1"/>
        <pt x="102" y="772" on="1"/>
        <pt x="102" y="932" on="0"/>
        <pt x="186" y="1196" on="0"/>
        <pt x="256" y="1280" on="1"/>
        <pt x="397" y="1449" on="0"/>
        <pt x="675" y="1449" on="1"/>
        <pt x="678" y="1449" on="1"/>
        <pt x="818" y="1449" on="0"/>
        <pt x="926" y="1399" on="1"/>
        <pt x="1135" y="1302" on="0"/>
        <pt x="1200" y="1062" on="1"/>
        <pt x="1241" y="909" on="0"/>
      </contour>
    </TTGlyph>
    <TTGlyph name="Oslash" xMin="103" yMin="-34" xMax="1235" yMax="1461">
      <contour>
        <pt x="310" y="759" on="1"/>
        <pt x="310" y="668" on="1"/>
        <pt x="310" y="493" on="0"/>
        <pt x="365" y="377" on="1"/>
        <pt x="378" y="350" on="0"/>
        <pt x="394" y="350" on="1"/>
        <pt x="440" y="350" on="0"/>
        <pt x="592" y="641" on="1"/>
        <pt x="857" y="1147" on="0"/>
        <pt x="857" y="1181" on="1"/>
        <pt x="857" y="1191" on="1"/>
        <pt x="857" y="1214" on="0"/>
        <pt x="768" y="1277" on="0"/>
        <pt x="682" y="1277" on="1"/>
        <pt x="656" y="1277" on="1"/>
        <pt x="654" y="1277" on="0"/>
        <pt x="652" y="1277" on="1"/>
        <pt x="573" y="1277" on="0"/>
        <pt x="510" y="1242" on="1"/>
        <pt x="389" y="1175" on="0"/>
        <pt x="343" y="1002" on="1"/>
        <pt x="310" y="875" on="0"/>
      </contour>
      <contour>
        <pt x="1014" y="853" on="1"/>
        <pt x="1014" y="1017" on="0"/>
        <pt x="982" y="1086" on="1"/>
        <pt x="976" y="1098" on="0"/>
        <pt x="969" y="1098" on="1"/>
        <pt x="952" y="1098" on="0"/>
        <pt x="797" y="788" on="0"/>
        <pt x="490" y="251" on="0"/>
        <pt x="490" y="212" on="1"/>
        <pt x="490" y="192" on="0"/>
        <pt x="546" y="140" on="0"/>
        <pt x="600" y="140" on="1"/>
        <pt x="622" y="140" on="1"/>
        <pt x="705" y="140" on="0"/>
        <pt x="780" y="184" on="1"/>
        <pt x="923" y="267" on="0"/>
        <pt x="975" y="476" on="1"/>
        <pt x="1011" y="620" on="0"/>
        <pt x="1011" y="724" on="1"/>
        <pt x="1013" y="750" on="1"/>
        <pt x="1014" y="790" on="1"/>
      </contour>
      <contour>
        <pt x="1235" y="732" on="1"/>
        <pt x="1235" y="706" on="1"/>
        <pt x="1235" y="544" on="0"/>
        <pt x="1196" y="404" on="1"/>
        <pt x="1121" y="132" on="0"/>
        <pt x="893" y="34" on="1"/>
        <pt x="791" y="-10" on="0"/>
        <pt x="652" y="-10" on="1"/>
        <pt x="595" y="-10" on="0"/>
        <pt x="437" y="14" on="0"/>
        <pt x="387" y="14" on="0"/>
        <pt x="291" y="-34" on="0"/>
        <pt x="275" y="-34" on="1"/>
        <pt x="258" y="-34" on="1"/>
        <pt x="197" y="-34" on="0"/>
        <pt x="197" y="48" on="1"/>
        <pt x="208" y="145" on="1"/>
        <pt x="208" y="152" on="0"/>
        <pt x="103" y="524" on="0"/>
        <pt x="103" y="669" on="1"/>
        <pt x="103" y="748" on="1"/>
        <pt x="104" y="900" on="0"/>
        <pt x="144" y="1036" on="1"/>
        <pt x="223" y="1299" on="0"/>
        <pt x="441" y="1396" on="1"/>
        <pt x="545" y="1442" on="0"/>
        <pt x="708" y="1442" on="1"/>
        <pt x="759" y="1442" on="0"/>
        <pt x="926" y="1413" on="0"/>
        <pt x="957" y="1413" on="0"/>
        <pt x="1042" y="1461" on="0"/>
        <pt x="1064" y="1461" on="1"/>
        <pt x="1081" y="1461" on="1"/>
        <pt x="1143" y="1461" on="0"/>
        <pt x="1143" y="1397" on="1"/>
        <pt x="1127" y="1282" on="1"/>
        <pt x="1127" y="1239" on="0"/>
        <pt x="1181" y="1097" on="0"/>
        <pt x="1235" y="902" on="0"/>
      </contour>
    </TTGlyph>
    <TTGlyph name="Otilde" xMin="106" yMin="-10" xMax="1245" yMax="1788">
      <contour>
        <pt x="315" y="770" on="1"/>
        <pt x="315" y="721" on="1"/>
        <pt x="315" y="581" on="0"/>
        <pt x="375" y="363" on="0"/>
        <pt x="414" y="310" on="1"/>
        <pt x="502" y="190" on="0"/>
        <pt x="675" y="190" on="1"/>
        <pt x="691" y="191" on="1"/>
        <pt x="863" y="191" on="0"/>
        <pt x="955" y="341" on="1"/>
        <pt x="1030" y="464" on="0"/>
        <pt x="1030" y="757" on="1"/>
        <pt x="1030" y="878" on="0"/>
        <pt x="975" y="1096" on="0"/>
        <pt x="899" y="1213" on="0"/>
        <pt x="759" y="1286" on="0"/>
        <pt x="691" y="1286" on="1"/>
        <pt x="643" y="1286" on="1"/>
        <pt x="570" y="1286" on="0"/>
        <pt x="504" y="1248" on="1"/>
        <pt x="315" y="1143" on="0"/>
        <pt x="315" y="774" on="1"/>
        <pt x="315" y="772" on="0"/>
      </contour>
      <contour>
        <pt x="996" y="1729" on="1"/>
        <pt x="996" y="1713" on="1"/>
        <pt x="996" y="1661" on="0"/>
        <pt x="895" y="1560" on="0"/>
        <pt x="822" y="1560" on="1"/>
        <pt x="814" y="1560" on="1"/>
        <pt x="757" y="1560" on="0"/>
        <pt x="568" y="1649" on="0"/>
        <pt x="501" y="1649" on="0"/>
        <pt x="410" y="1573" on="0"/>
        <pt x="379" y="1573" on="1"/>
        <pt x="338" y="1573" on="0"/>
        <pt x="338" y="1616" on="1"/>
        <pt x="338" y="1633" on="1"/>
        <pt x="338" y="1685" on="0"/>
        <pt x="441" y="1788" on="0"/>
        <pt x="515" y="1788" on="1"/>
        <pt x="532" y="1788" on="1"/>
        <pt x="572" y="1788" on="0"/>
        <pt x="791" y="1698" on="0"/>
        <pt x="844" y="1698" on="0"/>
        <pt x="919" y="1773" on="0"/>
        <pt x="996" y="1773" on="0"/>
      </contour>
      <contour>
        <pt x="1245" y="727" on="1"/>
        <pt x="1245" y="704" on="1"/>
        <pt x="1245" y="344" on="0"/>
        <pt x="1105" y="177" on="1"/>
        <pt x="1034" y="92" on="0"/>
        <pt x="812" y="-10" on="0"/>
        <pt x="680" y="-10" on="1"/>
        <pt x="657" y="-9" on="1"/>
        <pt x="634" y="-9" on="1"/>
        <pt x="526" y="-8" on="0"/>
        <pt x="420" y="40" on="1"/>
        <pt x="106" y="184" on="0"/>
        <pt x="106" y="688" on="1"/>
        <pt x="106" y="734" on="1"/>
        <pt x="107" y="757" on="1"/>
        <pt x="107" y="1082" on="0"/>
        <pt x="246" y="1262" on="1"/>
        <pt x="313" y="1347" on="0"/>
        <pt x="530" y="1447" on="0"/>
        <pt x="645" y="1447" on="1"/>
        <pt x="690" y="1447" on="1"/>
        <pt x="695" y="1447" on="1"/>
        <pt x="814" y="1447" on="0"/>
        <pt x="922" y="1400" on="1"/>
        <pt x="1137" y="1307" on="0"/>
        <pt x="1200" y="1072" on="1"/>
        <pt x="1245" y="904" on="0"/>
      </contour>
    </TTGlyph>
    <TTGlyph name="P" xMin="184" yMin="31" xMax="1118" yMax="1426">
      <contour>
        <pt x="400" y="798" on="1"/>
        <pt x="400" y="724" on="0"/>
        <pt x="442" y="689" on="0"/>
        <pt x="516" y="689" on="1"/>
        <pt x="526" y="689" on="1"/>
        <pt x="535" y="690" on="1"/>
        <pt x="544" y="690" on="1"/>
        <pt x="715" y="690" on="0"/>
        <pt x="893" y="855" on="0"/>
        <pt x="893" y="995" on="1"/>
        <pt x="893" y="1026" on="1"/>
        <pt x="893" y="1144" on="0"/>
        <pt x="750" y="1276" on="0"/>
        <pt x="613" y="1276" on="1"/>
        <pt x="603" y="1276" on="1"/>
        <pt x="594" y="1275" on="1"/>
        <pt x="484" y="1275" on="0"/>
        <pt x="436" y="1251" on="1"/>
        <pt x="405" y="1235" on="0"/>
        <pt x="405" y="1170" on="1"/>
        <pt x="403" y="1152" on="1"/>
        <pt x="402" y="1123" on="1"/>
        <pt x="402" y="1065" on="0"/>
        <pt x="402" y="1006" on="1"/>
        <pt x="401" y="976" on="1"/>
        <pt x="401" y="886" on="1"/>
        <pt x="400" y="847" on="1"/>
      </contour>
      <contour>
        <pt x="210" y="847" on="1"/>
        <pt x="197" y="1223" on="1"/>
        <pt x="197" y="1369" on="0"/>
        <pt x="251" y="1390" on="1"/>
        <pt x="344" y="1426" on="0"/>
        <pt x="635" y="1426" on="1"/>
        <pt x="680" y="1426" on="1"/>
        <pt x="862" y="1426" on="0"/>
        <pt x="980" y="1330" on="1"/>
        <pt x="1043" y="1279" on="0"/>
        <pt x="1118" y="1120" on="0"/>
        <pt x="1118" y="1024" on="1"/>
        <pt x="1118" y="1001" on="1"/>
        <pt x="1118" y="774" on="0"/>
        <pt x="939" y="642" on="1"/>
        <pt x="849" y="576" on="0"/>
        <pt x="444" y="507" on="0"/>
        <pt x="425" y="480" on="1"/>
        <pt x="396" y="440" on="0"/>
        <pt x="372" y="115" on="0"/>
        <pt x="363" y="90" on="1"/>
        <pt x="343" y="31" on="0"/>
        <pt x="286" y="31" on="1"/>
        <pt x="269" y="31" on="1"/>
        <pt x="224" y="31" on="0"/>
        <pt x="184" y="69" on="0"/>
        <pt x="184" y="115" on="1"/>
        <pt x="184" y="136" on="1"/>
        <pt x="193" y="262" on="1"/>
        <pt x="200" y="362" on="0"/>
        <pt x="200" y="411" on="1"/>
        <pt x="201" y="433" on="1"/>
        <pt x="202" y="455" on="0"/>
        <pt x="202" y="477" on="1"/>
        <pt x="204" y="521" on="1"/>
        <pt x="206" y="565" on="0"/>
        <pt x="206" y="587" on="1"/>
        <pt x="208" y="630" on="1"/>
        <pt x="210" y="738" on="1"/>
      </contour>
    </TTGlyph>
    <TTGlyph name="Q" xMin="100" yMin="-178" xMax="1268" yMax="1432">
      <contour>
        <pt x="708" y="1259" on="1"/>
        <pt x="675" y="1259" on="1"/>
        <pt x="505" y="1259" on="0"/>
        <pt x="404" y="1109" on="1"/>
        <pt x="367" y="1054" on="0"/>
        <pt x="311" y="838" on="0"/>
        <pt x="311" y="703" on="1"/>
        <pt x="311" y="686" on="1"/>
        <pt x="311" y="334" on="0"/>
        <pt x="487" y="217" on="1"/>
        <pt x="558" y="170" on="0"/>
        <pt x="633" y="170" on="1"/>
        <pt x="647" y="170" on="1"/>
        <pt x="741" y="170" on="0"/>
        <pt x="885" y="258" on="0"/>
        <pt x="1059" y="499" on="0"/>
        <pt x="1059" y="720" on="1"/>
        <pt x="1058" y="736" on="1"/>
        <pt x="1058" y="1116" on="0"/>
        <pt x="845" y="1225" on="1"/>
        <pt x="779" y="1259" on="0"/>
      </contour>
      <contour>
        <pt x="1084" y="106" on="0"/>
        <pt x="1084" y="40" on="0"/>
        <pt x="1173" y="-102" on="0"/>
        <pt x="1173" y="-127" on="0"/>
        <pt x="1099" y="-178" on="0"/>
        <pt x="1041" y="-178" on="1"/>
        <pt x="943" y="-178" on="0"/>
        <pt x="400" y="32" on="0"/>
        <pt x="214" y="207" on="0"/>
        <pt x="100" y="515" on="0"/>
        <pt x="100" y="680" on="1"/>
        <pt x="100" y="761" on="1"/>
        <pt x="100" y="906" on="0"/>
        <pt x="138" y="1030" on="1"/>
        <pt x="219" y="1288" on="0"/>
        <pt x="434" y="1385" on="1"/>
        <pt x="540" y="1432" on="0"/>
        <pt x="655" y="1432" on="1"/>
        <pt x="710" y="1432" on="1"/>
        <pt x="822" y="1432" on="0"/>
        <pt x="934" y="1382" on="1"/>
        <pt x="1151" y="1286" on="0"/>
        <pt x="1227" y="1040" on="1"/>
        <pt x="1268" y="909" on="0"/>
        <pt x="1268" y="758" on="1"/>
        <pt x="1268" y="731" on="1"/>
        <pt x="1267" y="705" on="1"/>
        <pt x="1266" y="454" on="0"/>
        <pt x="1140" y="214" on="1"/>
      </contour>
    </TTGlyph>
    <TTGlyph name="R" xMin="169" yMin="27" xMax="1117" yMax="1424">
      <contour>
        <pt x="525" y="727" on="1"/>
        <pt x="686" y="727" on="0"/>
        <pt x="862" y="890" on="0"/>
        <pt x="862" y="1022" on="1"/>
        <pt x="862" y="1032" on="1"/>
        <pt x="861" y="1042" on="1"/>
        <pt x="861" y="1137" on="0"/>
        <pt x="747" y="1261" on="0"/>
        <pt x="654" y="1261" on="1"/>
        <pt x="635" y="1263" on="1"/>
        <pt x="570" y="1263" on="1"/>
        <pt x="465" y="1263" on="0"/>
        <pt x="381" y="1221" on="0"/>
        <pt x="381" y="1166" on="1"/>
        <pt x="377" y="1132" on="0"/>
        <pt x="377" y="1121" on="1"/>
        <pt x="375" y="1066" on="1"/>
        <pt x="375" y="1052" on="0"/>
        <pt x="375" y="1038" on="1"/>
        <pt x="374" y="1029" on="1"/>
        <pt x="374" y="982" on="1"/>
        <pt x="373" y="954" on="1"/>
        <pt x="373" y="935" on="1"/>
        <pt x="372" y="906" on="1"/>
        <pt x="372" y="897" on="0"/>
        <pt x="372" y="888" on="1"/>
        <pt x="371" y="850" on="1"/>
        <pt x="371" y="822" on="1"/>
        <pt x="371" y="761" on="0"/>
        <pt x="403" y="725" on="0"/>
        <pt x="466" y="725" on="1"/>
        <pt x="500" y="725" on="1"/>
        <pt x="516" y="727" on="0"/>
      </contour>
      <contour>
        <pt x="843" y="598" on="1"/>
        <pt x="843" y="547" on="0"/>
        <pt x="1117" y="60" on="0"/>
        <pt x="1117" y="57" on="1"/>
        <pt x="1117" y="27" on="0"/>
        <pt x="980" y="27" on="0"/>
        <pt x="929" y="83" on="1"/>
        <pt x="908" y="106" on="0"/>
        <pt x="695" y="469" on="0"/>
        <pt x="599" y="555" on="0"/>
        <pt x="487" y="555" on="1"/>
        <pt x="419" y="555" on="0"/>
        <pt x="385" y="471" on="0"/>
        <pt x="368" y="166" on="0"/>
        <pt x="357" y="124" on="1"/>
        <pt x="333" y="32" on="0"/>
        <pt x="192" y="32" on="0"/>
        <pt x="182" y="83" on="1"/>
        <pt x="179" y="99" on="0"/>
        <pt x="179" y="420" on="1"/>
        <pt x="179" y="883" on="1"/>
        <pt x="179" y="940" on="0"/>
        <pt x="176" y="1021" on="1"/>
        <pt x="175" y="1048" on="1"/>
        <pt x="172" y="1101" on="1"/>
        <pt x="171" y="1127" on="1"/>
        <pt x="169" y="1179" on="0"/>
        <pt x="169" y="1180" on="1"/>
        <pt x="169" y="1205" on="1"/>
        <pt x="169" y="1362" on="0"/>
        <pt x="303" y="1424" on="0"/>
        <pt x="563" y="1424" on="1"/>
        <pt x="592" y="1424" on="1"/>
        <pt x="621" y="1423" on="1"/>
        <pt x="841" y="1423" on="0"/>
        <pt x="1068" y="1221" on="0"/>
        <pt x="1068" y="857" on="0"/>
        <pt x="931" y="716" on="1"/>
        <pt x="843" y="626" on="0"/>
      </contour>
    </TTGlyph>
    <TTGlyph name="S" xMin="119" yMin="-11" xMax="1035" yMax="1427">
      <contour>
        <pt x="1035" y="373" on="1"/>
        <pt x="1035" y="201" on="0"/>
        <pt x="773" y="-11" on="0"/>
        <pt x="403" y="-11" on="0"/>
        <pt x="186" y="88" on="0"/>
        <pt x="140" y="150" on="1"/>
        <pt x="119" y="179" on="0"/>
        <pt x="119" y="239" on="0"/>
        <pt x="167" y="289" on="0"/>
        <pt x="219" y="289" on="0"/>
        <pt x="267" y="265" on="1"/>
        <pt x="314" y="240" on="1"/>
        <pt x="444" y="173" on="0"/>
        <pt x="674" y="173" on="0"/>
        <pt x="735" y="213" on="1"/>
        <pt x="818" y="267" on="0"/>
        <pt x="818" y="460" on="0"/>
        <pt x="732" y="529" on="1"/>
        <pt x="668" y="581" on="0"/>
        <pt x="334" y="725" on="0"/>
        <pt x="267" y="789" on="1"/>
        <pt x="151" y="900" on="0"/>
        <pt x="151" y="1224" on="0"/>
        <pt x="278" y="1326" on="1"/>
        <pt x="404" y="1427" on="0"/>
        <pt x="615" y="1427" on="1"/>
        <pt x="619" y="1427" on="1"/>
        <pt x="746" y="1427" on="0"/>
        <pt x="915" y="1357" on="0"/>
        <pt x="980" y="1278" on="0"/>
        <pt x="980" y="1261" on="1"/>
        <pt x="980" y="1216" on="0"/>
        <pt x="936" y="1166" on="0"/>
        <pt x="900" y="1166" on="1"/>
        <pt x="895" y="1166" on="0"/>
        <pt x="678" y="1252" on="0"/>
        <pt x="458" y="1252" on="0"/>
        <pt x="394" y="1178" on="1"/>
        <pt x="364" y="1142" on="0"/>
        <pt x="356" y="1092" on="1"/>
        <pt x="354" y="1081" on="0"/>
        <pt x="354" y="1070" on="1"/>
        <pt x="354" y="1030" on="0"/>
        <pt x="377" y="985" on="1"/>
        <pt x="416" y="912" on="0"/>
        <pt x="848" y="721" on="0"/>
        <pt x="917" y="656" on="1"/>
        <pt x="1035" y="546" on="0"/>
        <pt x="1035" y="406" on="1"/>
      </contour>
    </TTGlyph>
    <TTGlyph name="Scaron" xMin="97" yMin="3" xMax="1052" yMax="1864">
      <contour>
        <pt x="579" y="1540" on="1"/>
        <pt x="563" y="1540" on="1"/>
        <pt x="514" y="1540" on="0"/>
        <pt x="473" y="1581" on="1"/>
        <pt x="278" y="1776" on="0"/>
        <pt x="278" y="1831" on="1"/>
        <pt x="278" y="1864" on="0"/>
        <pt x="338" y="1864" on="1"/>
        <pt x="361" y="1864" on="1"/>
        <pt x="408" y="1864" on="0"/>
        <pt x="577" y="1695" on="0"/>
        <pt x="587" y="1695" on="0"/>
        <pt x="682" y="1799" on="1"/>
        <pt x="742" y="1864" on="0"/>
        <pt x="803" y="1864" on="1"/>
        <pt x="811" y="1863" on="1"/>
        <pt x="874" y="1863" on="0"/>
        <pt x="874" y="1833" on="1"/>
        <pt x="874" y="1827" on="1"/>
        <pt x="874" y="1810" on="0"/>
        <pt x="846" y="1771" on="1"/>
        <pt x="682" y="1540" on="0"/>
      </contour>
      <contour>
        <pt x="574" y="185" on="1"/>
        <pt x="834" y="186" on="0"/>
        <pt x="834" y="398" on="1"/>
        <pt x="834" y="498" on="0"/>
        <pt x="724" y="570" on="1"/>
        <pt x="672" y="605" on="0"/>
        <pt x="284" y="750" on="0"/>
        <pt x="166" y="861" on="0"/>
        <pt x="113" y="984" on="0"/>
        <pt x="113" y="1070" on="1"/>
        <pt x="113" y="1338" on="0"/>
        <pt x="378" y="1418" on="1"/>
        <pt x="464" y="1444" on="0"/>
        <pt x="734" y="1444" on="0"/>
        <pt x="931" y="1367" on="0"/>
        <pt x="992" y="1292" on="0"/>
        <pt x="992" y="1218" on="0"/>
        <pt x="948" y="1168" on="0"/>
        <pt x="914" y="1168" on="0"/>
        <pt x="685" y="1266" on="0"/>
        <pt x="454" y="1266" on="0"/>
        <pt x="330" y="1163" on="0"/>
        <pt x="330" y="988" on="0"/>
        <pt x="422" y="924" on="1"/>
        <pt x="457" y="900" on="0"/>
        <pt x="853" y="757" on="0"/>
        <pt x="935" y="684" on="1"/>
        <pt x="1052" y="579" on="0"/>
        <pt x="1052" y="423" on="1"/>
        <pt x="1052" y="126" on="0"/>
        <pt x="799" y="37" on="1"/>
        <pt x="702" y="3" on="0"/>
        <pt x="599" y="3" on="1"/>
        <pt x="564" y="3" on="1"/>
        <pt x="380" y="3" on="0"/>
        <pt x="241" y="64" on="1"/>
        <pt x="160" y="99" on="0"/>
        <pt x="118" y="155" on="1"/>
        <pt x="97" y="183" on="0"/>
        <pt x="97" y="207" on="1"/>
        <pt x="97" y="236" on="1"/>
        <pt x="97" y="256" on="0"/>
        <pt x="141" y="311" on="0"/>
        <pt x="193" y="311" on="0"/>
        <pt x="350" y="221" on="0"/>
        <pt x="483" y="185" on="0"/>
      </contour>
    </TTGlyph>
    <TTGlyph name="T" xMin="74" yMin="3" xMax="1090" yMax="1414">
      <contour>
        <pt x="622" y="3" on="0"/>
        <pt x="486" y="3" on="0"/>
        <pt x="458" y="60" on="0"/>
        <pt x="458" y="176" on="0"/>
        <pt x="473" y="412" on="0"/>
        <pt x="473" y="608" on="1"/>
        <pt x="477" y="786" on="1"/>
        <pt x="479" y="836" on="0"/>
        <pt x="479" y="856" on="1"/>
        <pt x="479" y="912" on="1"/>
        <pt x="479" y="1126" on="0"/>
        <pt x="434" y="1184" on="1"/>
        <pt x="406" y="1220" on="0"/>
        <pt x="228" y="1220" on="1"/>
        <pt x="139" y="1220" on="0"/>
        <pt x="74" y="1257" on="0"/>
        <pt x="74" y="1305" on="1"/>
        <pt x="74" y="1322" on="1"/>
        <pt x="74" y="1373" on="0"/>
        <pt x="171" y="1387" on="1"/>
        <pt x="360" y="1414" on="0"/>
        <pt x="704" y="1414" on="1"/>
        <pt x="903" y="1414" on="1"/>
        <pt x="1019" y="1414" on="0"/>
        <pt x="1090" y="1384" on="0"/>
        <pt x="1090" y="1285" on="0"/>
        <pt x="1037" y="1263" on="1"/>
        <pt x="1012" y="1253" on="0"/>
        <pt x="770" y="1225" on="0"/>
        <pt x="737" y="1190" on="1"/>
        <pt x="679" y="1127" on="0"/>
        <pt x="679" y="859" on="1"/>
        <pt x="678" y="808" on="1"/>
        <pt x="677" y="783" on="1"/>
        <pt x="674" y="631" on="1"/>
        <pt x="673" y="606" on="0"/>
        <pt x="673" y="580" on="1"/>
        <pt x="662" y="285" on="1"/>
        <pt x="660" y="239" on="1"/>
        <pt x="659" y="170" on="1"/>
        <pt x="659" y="79" on="0"/>
      </contour>
    </TTGlyph>
    <TTGlyph name="Thorn" xMin="167" yMin="2" xMax="1058" yMax="1409">
      <contour>
        <pt x="838" y="730" on="1"/>
        <pt x="838" y="761" on="1"/>
        <pt x="838" y="879" on="0"/>
        <pt x="710" y="1031" on="0"/>
        <pt x="592" y="1031" on="1"/>
        <pt x="574" y="1033" on="0"/>
        <pt x="564" y="1033" on="1"/>
        <pt x="527" y="1034" on="1"/>
        <pt x="518" y="1034" on="1"/>
        <pt x="375" y="1034" on="0"/>
        <pt x="375" y="961" on="1"/>
        <pt x="374" y="951" on="1"/>
        <pt x="373" y="942" on="1"/>
        <pt x="372" y="914" on="1"/>
        <pt x="372" y="895" on="1"/>
        <pt x="371" y="856" on="1"/>
        <pt x="371" y="807" on="1"/>
        <pt x="372" y="797" on="1"/>
        <pt x="372" y="749" on="1"/>
        <pt x="373" y="730" on="1"/>
        <pt x="373" y="501" on="0"/>
        <pt x="384" y="482" on="1"/>
        <pt x="404" y="447" on="0"/>
        <pt x="538" y="447" on="1"/>
        <pt x="547" y="447" on="1"/>
        <pt x="681" y="447" on="0"/>
        <pt x="838" y="592" on="0"/>
      </contour>
      <contour>
        <pt x="580" y="1191" on="1"/>
        <pt x="803" y="1191" on="0"/>
        <pt x="936" y="1075" on="1"/>
        <pt x="991" y="1027" on="0"/>
        <pt x="1058" y="868" on="0"/>
        <pt x="1058" y="767" on="1"/>
        <pt x="1058" y="743" on="1"/>
        <pt x="1058" y="401" on="0"/>
        <pt x="750" y="317" on="1"/>
        <pt x="682" y="299" on="0"/>
        <pt x="440" y="288" on="0"/>
        <pt x="389" y="253" on="0"/>
        <pt x="370" y="77" on="0"/>
        <pt x="359" y="52" on="1"/>
        <pt x="336" y="2" on="0"/>
        <pt x="283" y="2" on="1"/>
        <pt x="247" y="2" on="1"/>
        <pt x="184" y="2" on="0"/>
        <pt x="173" y="57" on="1"/>
        <pt x="171" y="67" on="0"/>
        <pt x="171" y="117" on="1"/>
        <pt x="175" y="309" on="1"/>
        <pt x="175" y="331" on="0"/>
        <pt x="175" y="353" on="1"/>
        <pt x="176" y="418" on="1"/>
        <pt x="176" y="461" on="1"/>
        <pt x="177" y="505" on="1"/>
        <pt x="177" y="613" on="1"/>
        <pt x="176" y="656" on="1"/>
        <pt x="176" y="850" on="1"/>
        <pt x="172" y="1044" on="1"/>
        <pt x="172" y="1087" on="1"/>
        <pt x="171" y="1130" on="1"/>
        <pt x="171" y="1173" on="1"/>
        <pt x="169" y="1237" on="1"/>
        <pt x="168" y="1259" on="1"/>
        <pt x="167" y="1300" on="1"/>
        <pt x="167" y="1366" on="0"/>
        <pt x="206" y="1409" on="0"/>
        <pt x="249" y="1409" on="1"/>
        <pt x="267" y="1409" on="1"/>
        <pt x="329" y="1409" on="0"/>
        <pt x="352" y="1371" on="1"/>
        <pt x="366" y="1348" on="0"/>
        <pt x="386" y="1232" on="0"/>
        <pt x="427" y="1193" on="0"/>
        <pt x="558" y="1191" on="0"/>
      </contour>
    </TTGlyph>
    <TTGlyph name="U" xMin="152" yMin="12" xMax="1180" yMax="1376">
      <contour>
        <pt x="586" y="169" on="0"/>
        <pt x="754" y="169" on="0"/>
        <pt x="892" y="270" on="0"/>
        <pt x="959" y="459" on="0"/>
        <pt x="992" y="1220" on="0"/>
        <pt x="1027" y="1376" on="0"/>
        <pt x="1156" y="1376" on="0"/>
        <pt x="1180" y="1338" on="0"/>
        <pt x="1180" y="1262" on="1"/>
        <pt x="1180" y="1159" on="1"/>
        <pt x="1179" y="1124" on="1"/>
        <pt x="1177" y="952" on="1"/>
        <pt x="1177" y="518" on="0"/>
        <pt x="1160" y="301" on="0"/>
        <pt x="1126" y="232" on="1"/>
        <pt x="1074" y="129" on="0"/>
        <pt x="837" y="12" on="0"/>
        <pt x="652" y="12" on="1"/>
        <pt x="617" y="12" on="1"/>
        <pt x="360" y="12" on="0"/>
        <pt x="243" y="204" on="1"/>
        <pt x="199" y="277" on="0"/>
        <pt x="164" y="490" on="0"/>
        <pt x="164" y="734" on="1"/>
        <pt x="159" y="998" on="1"/>
        <pt x="154" y="1184" on="1"/>
        <pt x="152" y="1244" on="1"/>
        <pt x="152" y="1274" on="1"/>
        <pt x="152" y="1334" on="0"/>
        <pt x="185" y="1363" on="0"/>
        <pt x="238" y="1363" on="1"/>
        <pt x="309" y="1363" on="0"/>
        <pt x="334" y="1257" on="1"/>
        <pt x="367" y="1117" on="0"/>
        <pt x="367" y="717" on="1"/>
        <pt x="369" y="578" on="1"/>
        <pt x="369" y="262" on="0"/>
        <pt x="543" y="187" on="1"/>
      </contour>
    </TTGlyph>
    <TTGlyph name="Uacute" xMin="139" yMin="12" xMax="1173" yMax="1851">
      <contour>
        <pt x="575" y="1538" on="1"/>
        <pt x="521" y="1538" on="0"/>
        <pt x="521" y="1578" on="1"/>
        <pt x="521" y="1583" on="1"/>
        <pt x="521" y="1650" on="0"/>
        <pt x="692" y="1783" on="1"/>
        <pt x="779" y="1851" on="0"/>
        <pt x="844" y="1851" on="1"/>
        <pt x="865" y="1851" on="1"/>
        <pt x="921" y="1851" on="0"/>
        <pt x="921" y="1818" on="1"/>
        <pt x="921" y="1809" on="1"/>
        <pt x="921" y="1756" on="0"/>
        <pt x="774" y="1625" on="1"/>
        <pt x="679" y="1541" on="0"/>
        <pt x="613" y="1541" on="1"/>
        <pt x="586" y="1538" on="1"/>
      </contour>
      <contour>
        <pt x="139" y="1304" on="1"/>
        <pt x="139" y="1379" on="0"/>
        <pt x="161" y="1418" on="0"/>
        <pt x="225" y="1418" on="1"/>
        <pt x="315" y="1418" on="0"/>
        <pt x="358" y="1256" on="0"/>
        <pt x="358" y="440" on="0"/>
        <pt x="437" y="264" on="0"/>
        <pt x="562" y="184" on="0"/>
        <pt x="659" y="184" on="1"/>
        <pt x="848" y="184" on="0"/>
        <pt x="920" y="333" on="1"/>
        <pt x="966" y="430" on="0"/>
        <pt x="966" y="1294" on="0"/>
        <pt x="1017" y="1418" on="0"/>
        <pt x="1124" y="1418" on="1"/>
        <pt x="1173" y="1418" on="0"/>
        <pt x="1173" y="1304" on="1"/>
        <pt x="1173" y="1205" on="1"/>
        <pt x="1172" y="1172" on="1"/>
        <pt x="1169" y="903" on="1"/>
        <pt x="1169" y="504" on="0"/>
        <pt x="1156" y="408" on="1"/>
        <pt x="1122" y="159" on="0"/>
        <pt x="923" y="66" on="1"/>
        <pt x="807" y="12" on="0"/>
        <pt x="662" y="12" on="1"/>
        <pt x="242" y="12" on="0"/>
        <pt x="167" y="362" on="1"/>
        <pt x="145" y="466" on="0"/>
        <pt x="145" y="708" on="1"/>
        <pt x="142" y="911" on="1"/>
        <pt x="139" y="1207" on="1"/>
      </contour>
    </TTGlyph>
    <TTGlyph name="Ucircumflex" xMin="134" yMin="-14" xMax="1178" yMax="1858">
      <contour>
        <pt x="430" y="1544" on="1"/>
        <pt x="415" y="1544" on="1"/>
        <pt x="358" y="1544" on="0"/>
        <pt x="358" y="1570" on="1"/>
        <pt x="358" y="1577" on="1"/>
        <pt x="358" y="1596" on="0"/>
        <pt x="388" y="1631" on="1"/>
        <pt x="522" y="1789" on="0"/>
        <pt x="603" y="1858" on="0"/>
        <pt x="727" y="1858" on="0"/>
        <pt x="777" y="1808" on="1"/>
        <pt x="961" y="1624" on="0"/>
        <pt x="961" y="1577" on="1"/>
        <pt x="961" y="1571" on="1"/>
        <pt x="961" y="1545" on="0"/>
        <pt x="831" y="1545" on="0"/>
        <pt x="764" y="1612" on="1"/>
        <pt x="661" y="1715" on="0"/>
        <pt x="655" y="1715" on="0"/>
        <pt x="484" y="1544" on="0"/>
      </contour>
      <contour>
        <pt x="654" y="-14" on="1"/>
        <pt x="617" y="-14" on="1"/>
        <pt x="495" y="-14" on="0"/>
        <pt x="283" y="90" on="0"/>
        <pt x="176" y="264" on="0"/>
        <pt x="140" y="467" on="0"/>
        <pt x="140" y="727" on="1"/>
        <pt x="138" y="864" on="1"/>
        <pt x="137" y="898" on="0"/>
        <pt x="137" y="931" on="1"/>
        <pt x="136" y="965" on="1"/>
        <pt x="136" y="998" on="0"/>
        <pt x="136" y="1031" on="1"/>
        <pt x="134" y="1230" on="1"/>
        <pt x="134" y="1296" on="1"/>
        <pt x="134" y="1373" on="0"/>
        <pt x="156" y="1410" on="0"/>
        <pt x="221" y="1410" on="1"/>
        <pt x="310" y="1410" on="0"/>
        <pt x="335" y="1321" on="1"/>
        <pt x="353" y="1257" on="0"/>
        <pt x="353" y="417" on="0"/>
        <pt x="436" y="236" on="0"/>
        <pt x="562" y="156" on="0"/>
        <pt x="658" y="156" on="1"/>
        <pt x="851" y="156" on="0"/>
        <pt x="922" y="309" on="1"/>
        <pt x="968" y="410" on="0"/>
        <pt x="968" y="1282" on="0"/>
        <pt x="1019" y="1409" on="0"/>
        <pt x="1127" y="1409" on="1"/>
        <pt x="1160" y="1409" on="0"/>
        <pt x="1178" y="1368" on="0"/>
        <pt x="1178" y="1225" on="1"/>
        <pt x="1177" y="1192" on="1"/>
        <pt x="1175" y="1024" on="1"/>
        <pt x="1173" y="819" on="1"/>
        <pt x="1173" y="514" on="0"/>
        <pt x="1154" y="299" on="0"/>
        <pt x="1043" y="98" on="0"/>
        <pt x="811" y="-14" on="0"/>
      </contour>
    </TTGlyph>
    <TTGlyph name="Udieresis" xMin="126" yMin="1" xMax="1167" yMax="1788">
      <contour>
        <pt x="490" y="1776" on="1"/>
        <pt x="537" y="1776" on="0"/>
        <pt x="566" y="1727" on="0"/>
        <pt x="566" y="1691" on="1"/>
        <pt x="566" y="1677" on="1"/>
        <pt x="565" y="1673" on="1"/>
        <pt x="562" y="1642" on="1"/>
        <pt x="561" y="1638" on="0"/>
        <pt x="561" y="1634" on="1"/>
        <pt x="561" y="1568" on="0"/>
        <pt x="484" y="1568" on="1"/>
        <pt x="478" y="1566" on="0"/>
        <pt x="473" y="1566" on="1"/>
        <pt x="457" y="1564" on="1"/>
        <pt x="444" y="1564" on="1"/>
        <pt x="440" y="1565" on="1"/>
        <pt x="417" y="1568" on="1"/>
        <pt x="413" y="1569" on="0"/>
        <pt x="410" y="1569" on="1"/>
        <pt x="346" y="1569" on="0"/>
        <pt x="346" y="1637" on="1"/>
        <pt x="344" y="1645" on="1"/>
        <pt x="341" y="1676" on="1"/>
        <pt x="341" y="1694" on="1"/>
        <pt x="347" y="1728" on="1"/>
        <pt x="347" y="1772" on="0"/>
        <pt x="400" y="1772" on="1"/>
        <pt x="406" y="1774" on="0"/>
        <pt x="411" y="1774" on="1"/>
        <pt x="429" y="1776" on="1"/>
      </contour>
      <contour>
        <pt x="789" y="1579" on="1"/>
        <pt x="736" y="1579" on="0"/>
        <pt x="736" y="1639" on="1"/>
        <pt x="734" y="1647" on="0"/>
        <pt x="734" y="1650" on="1"/>
        <pt x="732" y="1669" on="1"/>
        <pt x="732" y="1695" on="1"/>
        <pt x="736" y="1721" on="1"/>
        <pt x="736" y="1783" on="0"/>
        <pt x="799" y="1783" on="1"/>
        <pt x="802" y="1784" on="1"/>
        <pt x="806" y="1785" on="1"/>
        <pt x="837" y="1788" on="1"/>
        <pt x="861" y="1788" on="1"/>
        <pt x="865" y="1787" on="1"/>
        <pt x="891" y="1784" on="1"/>
        <pt x="895" y="1783" on="0"/>
        <pt x="898" y="1783" on="1"/>
        <pt x="950" y="1783" on="0"/>
        <pt x="950" y="1727" on="1"/>
        <pt x="952" y="1719" on="1"/>
        <pt x="955" y="1693" on="1"/>
        <pt x="955" y="1670" on="1"/>
        <pt x="951" y="1641" on="1"/>
        <pt x="951" y="1579" on="0"/>
        <pt x="888" y="1579" on="1"/>
        <pt x="884" y="1578" on="1"/>
        <pt x="881" y="1577" on="1"/>
        <pt x="850" y="1574" on="1"/>
        <pt x="826" y="1574" on="1"/>
        <pt x="822" y="1575" on="1"/>
        <pt x="796" y="1578" on="1"/>
        <pt x="792" y="1579" on="0"/>
      </contour>
      <contour>
        <pt x="961" y="432" on="0"/>
        <pt x="961" y="1278" on="0"/>
        <pt x="978" y="1337" on="1"/>
        <pt x="1001" y="1417" on="0"/>
        <pt x="1097" y="1417" on="1"/>
        <pt x="1139" y="1417" on="0"/>
        <pt x="1167" y="1393" on="0"/>
        <pt x="1167" y="1289" on="1"/>
        <pt x="1167" y="1189" on="1"/>
        <pt x="1166" y="1155" on="1"/>
        <pt x="1165" y="1055" on="1"/>
        <pt x="1165" y="988" on="1"/>
        <pt x="1164" y="920" on="1"/>
        <pt x="1164" y="513" on="0"/>
        <pt x="1139" y="300" on="0"/>
        <pt x="1033" y="115" on="0"/>
        <pt x="921" y="58" on="1"/>
        <pt x="810" y="1" on="0"/>
        <pt x="656" y="1" on="1"/>
        <pt x="206" y="1" on="0"/>
        <pt x="146" y="402" on="1"/>
        <pt x="132" y="497" on="0"/>
        <pt x="132" y="751" on="1"/>
        <pt x="130" y="887" on="1"/>
        <pt x="129" y="921" on="0"/>
        <pt x="129" y="955" on="1"/>
        <pt x="128" y="988" on="1"/>
        <pt x="128" y="1021" on="0"/>
        <pt x="128" y="1054" on="1"/>
        <pt x="127" y="1087" on="1"/>
        <pt x="127" y="1152" on="1"/>
        <pt x="126" y="1219" on="1"/>
        <pt x="126" y="1316" on="1"/>
        <pt x="126" y="1387" on="0"/>
        <pt x="152" y="1417" on="0"/>
        <pt x="252" y="1417" on="0"/>
        <pt x="315" y="1380" on="0"/>
        <pt x="342" y="1244" on="0"/>
        <pt x="342" y="418" on="0"/>
        <pt x="394" y="316" on="1"/>
        <pt x="468" y="172" on="0"/>
        <pt x="848" y="172" on="0"/>
        <pt x="918" y="332" on="1"/>
      </contour>
    </TTGlyph>
    <TTGlyph name="Ugrave" xMin="134" yMin="-12" xMax="1177" yMax="1862">
      <contour>
        <pt x="408" y="1805" on="1"/>
        <pt x="408" y="1814" on="1"/>
        <pt x="408" y="1862" on="0"/>
        <pt x="483" y="1862" on="1"/>
        <pt x="493" y="1862" on="1"/>
        <pt x="570" y="1862" on="0"/>
        <pt x="636" y="1804" on="1"/>
        <pt x="802" y="1659" on="0"/>
        <pt x="802" y="1581" on="1"/>
        <pt x="802" y="1571" on="1"/>
        <pt x="802" y="1541" on="0"/>
        <pt x="763" y="1541" on="1"/>
        <pt x="736" y="1541" on="1"/>
        <pt x="724" y="1543" on="0"/>
        <pt x="719" y="1543" on="1"/>
        <pt x="665" y="1543" on="0"/>
        <pt x="408" y="1768" on="0"/>
      </contour>
      <contour>
        <pt x="134" y="1330" on="1"/>
        <pt x="134" y="1412" on="0"/>
        <pt x="190" y="1412" on="1"/>
        <pt x="221" y="1412" on="1"/>
        <pt x="310" y="1412" on="0"/>
        <pt x="335" y="1323" on="1"/>
        <pt x="353" y="1259" on="0"/>
        <pt x="353" y="419" on="0"/>
        <pt x="436" y="238" on="0"/>
        <pt x="560" y="159" on="0"/>
        <pt x="658" y="159" on="1"/>
        <pt x="854" y="159" on="0"/>
        <pt x="922" y="311" on="1"/>
        <pt x="968" y="414" on="0"/>
        <pt x="968" y="1245" on="0"/>
        <pt x="994" y="1363" on="0"/>
        <pt x="1053" y="1411" on="0"/>
        <pt x="1127" y="1411" on="1"/>
        <pt x="1159" y="1411" on="0"/>
        <pt x="1177" y="1371" on="0"/>
        <pt x="1177" y="1261" on="1"/>
        <pt x="1177" y="1194" on="1"/>
        <pt x="1176" y="1161" on="1"/>
        <pt x="1174" y="992" on="1"/>
        <pt x="1174" y="717" on="1"/>
        <pt x="1174" y="494" on="0"/>
        <pt x="1160" y="384" on="1"/>
        <pt x="1128" y="141" on="0"/>
        <pt x="924" y="43" on="1"/>
        <pt x="810" y="-12" on="0"/>
        <pt x="662" y="-12" on="1"/>
        <pt x="366" y="-12" on="0"/>
        <pt x="240" y="164" on="1"/>
        <pt x="183" y="244" on="0"/>
        <pt x="140" y="450" on="0"/>
        <pt x="140" y="695" on="1"/>
        <pt x="137" y="900" on="1"/>
        <pt x="134" y="1233" on="1"/>
      </contour>
    </TTGlyph>
    <TTGlyph name="V" xMin="52" yMin="14" xMax="1192" yMax="1401">
      <contour>
        <pt x="640" y="301" on="1"/>
        <pt x="651" y="301" on="0"/>
        <pt x="839" y="837" on="0"/>
        <pt x="967" y="1227" on="0"/>
        <pt x="991" y="1280" on="1"/>
        <pt x="1045" y="1401" on="0"/>
        <pt x="1125" y="1401" on="1"/>
        <pt x="1149" y="1401" on="1"/>
        <pt x="1192" y="1401" on="0"/>
        <pt x="1192" y="1366" on="1"/>
        <pt x="1192" y="1348" on="0"/>
        <pt x="1120" y="1120" on="1"/>
        <pt x="816" y="158" on="0"/>
        <pt x="718" y="46" on="1"/>
        <pt x="690" y="14" on="0"/>
        <pt x="572" y="14" on="0"/>
        <pt x="515" y="61" on="0"/>
        <pt x="474" y="153" on="0"/>
        <pt x="306" y="649" on="1"/>
        <pt x="285" y="710" on="0"/>
        <pt x="52" y="1312" on="0"/>
        <pt x="52" y="1326" on="1"/>
        <pt x="52" y="1371" on="0"/>
        <pt x="135" y="1371" on="1"/>
        <pt x="135" y="1371" on="0"/>
        <pt x="137" y="1371" on="1"/>
        <pt x="187" y="1371" on="0"/>
        <pt x="230" y="1324" on="1"/>
        <pt x="338" y="1207" on="0"/>
        <pt x="618" y="301" on="0"/>
      </contour>
    </TTGlyph>
    <TTGlyph name="W" xMin="111" yMin="85" xMax="1698" yMax="1358">
      <contour>
        <pt x="1271" y="380" on="1"/>
        <pt x="1311" y="380" on="0"/>
        <pt x="1527" y="1193" on="0"/>
        <pt x="1549" y="1243" on="1"/>
        <pt x="1600" y="1358" on="0"/>
        <pt x="1669" y="1358" on="1"/>
        <pt x="1698" y="1358" on="0"/>
        <pt x="1698" y="1325" on="1"/>
        <pt x="1698" y="1293" on="1"/>
        <pt x="1698" y="1259" on="0"/>
        <pt x="1560" y="571" on="0"/>
        <pt x="1461" y="260" on="1"/>
        <pt x="1405" y="85" on="0"/>
        <pt x="1302" y="85" on="1"/>
        <pt x="1224" y="85" on="0"/>
        <pt x="1140" y="243" on="1"/>
        <pt x="1115" y="290" on="0"/>
        <pt x="993" y="591" on="0"/>
        <pt x="908" y="829" on="0"/>
        <pt x="901" y="829" on="1"/>
        <pt x="888" y="829" on="0"/>
        <pt x="692" y="328" on="0"/>
        <pt x="641" y="238" on="1"/>
        <pt x="569" y="111" on="0"/>
        <pt x="512" y="111" on="1"/>
        <pt x="403" y="111" on="0"/>
        <pt x="356" y="260" on="1"/>
        <pt x="291" y="469" on="0"/>
        <pt x="111" y="1235" on="0"/>
        <pt x="111" y="1330" on="0"/>
        <pt x="159" y="1330" on="1"/>
        <pt x="236" y="1330" on="0"/>
        <pt x="307" y="1164" on="1"/>
        <pt x="334" y="1101" on="0"/>
        <pt x="535" y="378" on="0"/>
        <pt x="555" y="378" on="1"/>
        <pt x="588" y="378" on="0"/>
        <pt x="690" y="733" on="1"/>
        <pt x="720" y="837" on="0"/>
        <pt x="797" y="1177" on="0"/>
        <pt x="812" y="1210" on="1"/>
        <pt x="843" y="1278" on="0"/>
        <pt x="964" y="1278" on="0"/>
        <pt x="1010" y="1244" on="0"/>
        <pt x="1037" y="1173" on="0"/>
        <pt x="1244" y="380" on="0"/>
      </contour>
    </TTGlyph>
    <TTGlyph name="X" xMin="99" yMin="9" xMax="1143" yMax="1399">
      <contour>
        <pt x="985" y="1399" on="0"/>
        <pt x="1130" y="1399" on="0"/>
        <pt x="1130" y="1358" on="1"/>
        <pt x="1130" y="1343" on="0"/>
        <pt x="775" y="777" on="0"/>
        <pt x="775" y="643" on="0"/>
        <pt x="1143" y="75" on="0"/>
        <pt x="1143" y="64" on="1"/>
        <pt x="1143" y="23" on="0"/>
        <pt x="1035" y="23" on="1"/>
        <pt x="973" y="23" on="0"/>
        <pt x="829" y="190" on="0"/>
        <pt x="626" y="521" on="0"/>
        <pt x="586" y="521" on="0"/>
        <pt x="351" y="136" on="0"/>
        <pt x="245" y="9" on="0"/>
        <pt x="99" y="9" on="0"/>
        <pt x="99" y="35" on="1"/>
        <pt x="99" y="56" on="1"/>
        <pt x="99" y="74" on="0"/>
        <pt x="467" y="657" on="0"/>
        <pt x="467" y="738" on="1"/>
        <pt x="467" y="784" on="0"/>
        <pt x="122" y="1312" on="0"/>
        <pt x="122" y="1379" on="0"/>
        <pt x="286" y="1379" on="0"/>
        <pt x="352" y="1308" on="1"/>
        <pt x="388" y="1270" on="0"/>
        <pt x="612" y="914" on="0"/>
        <pt x="631" y="914" on="1"/>
        <pt x="643" y="914" on="0"/>
        <pt x="898" y="1297" on="0"/>
        <pt x="915" y="1317" on="1"/>
      </contour>
    </TTGlyph>
    <TTGlyph name="Y" xMin="88" yMin="-7" xMax="1111" yMax="1397">
      <contour>
        <pt x="1034" y="1397" on="1"/>
        <pt x="1056" y="1397" on="1"/>
        <pt x="1111" y="1397" on="0"/>
        <pt x="1111" y="1364" on="1"/>
        <pt x="1111" y="1346" on="1"/>
        <pt x="1111" y="1320" on="0"/>
        <pt x="747" y="544" on="0"/>
        <pt x="702" y="414" on="0"/>
        <pt x="649" y="53" on="0"/>
        <pt x="625" y="-7" on="0"/>
        <pt x="509" y="-7" on="0"/>
        <pt x="481" y="36" on="0"/>
        <pt x="481" y="106" on="0"/>
        <pt x="487" y="164" on="1"/>
        <pt x="493" y="213" on="1"/>
        <pt x="494" y="217" on="0"/>
        <pt x="509" y="375" on="0"/>
        <pt x="509" y="526" on="0"/>
        <pt x="428" y="696" on="0"/>
        <pt x="213" y="1099" on="0"/>
        <pt x="88" y="1309" on="0"/>
        <pt x="88" y="1329" on="1"/>
        <pt x="88" y="1371" on="0"/>
        <pt x="249" y="1371" on="0"/>
        <pt x="304" y="1299" on="1"/>
        <pt x="380" y="1199" on="0"/>
        <pt x="583" y="787" on="0"/>
        <pt x="593" y="787" on="1"/>
        <pt x="627" y="787" on="0"/>
        <pt x="763" y="1028" on="1"/>
        <pt x="792" y="1080" on="0"/>
        <pt x="902" y="1309" on="0"/>
        <pt x="925" y="1339" on="1"/>
        <pt x="970" y="1397" on="0"/>
      </contour>
    </TTGlyph>
    <TTGlyph name="Yacute" xMin="68" yMin="30" xMax="1095" yMax="1857">
      <contour>
        <pt x="488" y="1531" on="1"/>
        <pt x="457" y="1531" on="0"/>
        <pt x="457" y="1558" on="1"/>
        <pt x="457" y="1567" on="1"/>
        <pt x="457" y="1596" on="0"/>
        <pt x="490" y="1638" on="1"/>
        <pt x="591" y="1768" on="0"/>
        <pt x="704" y="1856" on="0"/>
        <pt x="771" y="1856" on="1"/>
        <pt x="782" y="1857" on="1"/>
        <pt x="852" y="1857" on="0"/>
        <pt x="852" y="1808" on="1"/>
        <pt x="852" y="1804" on="1"/>
        <pt x="852" y="1756" on="0"/>
        <pt x="786" y="1705" on="1"/>
        <pt x="565" y="1533" on="0"/>
        <pt x="519" y="1533" on="1"/>
        <pt x="509" y="1531" on="1"/>
      </contour>
      <contour>
        <pt x="1031" y="1415" on="1"/>
        <pt x="1095" y="1415" on="0"/>
        <pt x="1095" y="1375" on="1"/>
        <pt x="1095" y="1371" on="0"/>
        <pt x="927" y="1012" on="1"/>
        <pt x="883" y="918" on="1"/>
        <pt x="757" y="661" on="0"/>
        <pt x="740" y="616" on="1"/>
        <pt x="693" y="493" on="0"/>
        <pt x="693" y="101" on="0"/>
        <pt x="658" y="30" on="0"/>
        <pt x="517" y="30" on="0"/>
        <pt x="478" y="74" on="0"/>
        <pt x="478" y="181" on="1"/>
        <pt x="479" y="205" on="1"/>
        <pt x="480" y="230" on="0"/>
        <pt x="480" y="255" on="1"/>
        <pt x="481" y="280" on="1"/>
        <pt x="481" y="331" on="1"/>
        <pt x="481" y="519" on="0"/>
        <pt x="436" y="622" on="1"/>
        <pt x="419" y="660" on="0"/>
        <pt x="68" y="1348" on="0"/>
        <pt x="68" y="1365" on="1"/>
        <pt x="68" y="1384" on="1"/>
        <pt x="68" y="1413" on="0"/>
        <pt x="236" y="1413" on="0"/>
        <pt x="296" y="1336" on="1"/>
        <pt x="330" y="1293" on="0"/>
        <pt x="567" y="786" on="0"/>
        <pt x="588" y="786" on="1"/>
        <pt x="624" y="786" on="0"/>
        <pt x="881" y="1335" on="0"/>
        <pt x="883" y="1338" on="1"/>
        <pt x="935" y="1415" on="0"/>
      </contour>
    </TTGlyph>
    <TTGlyph name="Ydieresis" xMin="93" yMin="29" xMax="1102" yMax="1782">
      <contour>
        <pt x="324" y="1693" on="1"/>
        <pt x="324" y="1759" on="0"/>
        <pt x="362" y="1759" on="1"/>
        <pt x="374" y="1763" on="0"/>
        <pt x="377" y="1763" on="1"/>
        <pt x="395" y="1765" on="1"/>
        <pt x="405" y="1765" on="1"/>
        <pt x="409" y="1764" on="1"/>
        <pt x="443" y="1765" on="1"/>
        <pt x="452" y="1765" on="1"/>
        <pt x="505" y="1765" on="0"/>
        <pt x="505" y="1721" on="1"/>
        <pt x="511" y="1697" on="0"/>
        <pt x="511" y="1689" on="1"/>
        <pt x="514" y="1659" on="1"/>
        <pt x="514" y="1639" on="1"/>
        <pt x="514" y="1586" on="0"/>
        <pt x="463" y="1535" on="0"/>
        <pt x="429" y="1535" on="1"/>
        <pt x="412" y="1532" on="1"/>
        <pt x="406" y="1532" on="1"/>
        <pt x="369" y="1532" on="0"/>
        <pt x="319" y="1582" on="0"/>
        <pt x="319" y="1631" on="1"/>
        <pt x="319" y="1652" on="1"/>
        <pt x="320" y="1656" on="1"/>
        <pt x="320" y="1665" on="1"/>
        <pt x="324" y="1692" on="0"/>
      </contour>
      <contour>
        <pt x="683" y="1684" on="1"/>
        <pt x="683" y="1776" on="0"/>
        <pt x="752" y="1776" on="1"/>
        <pt x="764" y="1780" on="0"/>
        <pt x="769" y="1780" on="1"/>
        <pt x="796" y="1782" on="1"/>
        <pt x="803" y="1782" on="1"/>
        <pt x="855" y="1782" on="0"/>
        <pt x="898" y="1739" on="0"/>
        <pt x="898" y="1695" on="1"/>
        <pt x="898" y="1662" on="1"/>
        <pt x="898" y="1616" on="0"/>
        <pt x="853" y="1571" on="0"/>
        <pt x="822" y="1571" on="1"/>
        <pt x="816" y="1569" on="0"/>
        <pt x="811" y="1569" on="1"/>
        <pt x="793" y="1567" on="1"/>
        <pt x="770" y="1567" on="1"/>
        <pt x="735" y="1573" on="1"/>
        <pt x="688" y="1573" on="0"/>
        <pt x="688" y="1629" on="1"/>
        <pt x="685" y="1639" on="0"/>
        <pt x="685" y="1643" on="1"/>
        <pt x="683" y="1661" on="1"/>
      </contour>
      <contour>
        <pt x="1023" y="1418" on="1"/>
        <pt x="1044" y="1418" on="1"/>
        <pt x="1102" y="1418" on="0"/>
        <pt x="1102" y="1369" on="1"/>
        <pt x="1102" y="1341" on="0"/>
        <pt x="862" y="821" on="0"/>
        <pt x="750" y="591" on="0"/>
        <pt x="690" y="433" on="0"/>
        <pt x="644" y="86" on="0"/>
        <pt x="620" y="29" on="0"/>
        <pt x="505" y="29" on="0"/>
        <pt x="475" y="65" on="0"/>
        <pt x="475" y="144" on="0"/>
        <pt x="503" y="378" on="0"/>
        <pt x="503" y="544" on="0"/>
        <pt x="421" y="719" on="0"/>
        <pt x="316" y="912" on="0"/>
        <pt x="231" y="1074" on="0"/>
        <pt x="93" y="1301" on="0"/>
        <pt x="93" y="1329" on="1"/>
        <pt x="93" y="1382" on="0"/>
        <pt x="256" y="1382" on="0"/>
        <pt x="371" y="1226" on="0"/>
        <pt x="583" y="802" on="0"/>
        <pt x="597" y="802" on="1"/>
        <pt x="652" y="802" on="0"/>
        <pt x="823" y="1171" on="1"/>
        <pt x="880" y="1295" on="0"/>
        <pt x="902" y="1330" on="1"/>
        <pt x="958" y="1418" on="0"/>
      </contour>
    </TTGlyph>
    <TTGlyph name="Z" xMin="124" yMin="4" xMax="1093" yMax="1415">
      <contour>
        <pt x="137" y="1293" on="0"/>
        <pt x="137" y="1383" on="0"/>
        <pt x="183" y="1395" on="1"/>
        <pt x="259" y="1415" on="0"/>
        <pt x="606" y="1415" on="1"/>
        <pt x="640" y="1415" on="1"/>
        <pt x="891" y="1415" on="0"/>
        <pt x="989" y="1391" on="1"/>
        <pt x="1049" y="1376" on="0"/>
        <pt x="1049" y="1327" on="1"/>
        <pt x="1049" y="1252" on="0"/>
        <pt x="896" y="976" on="0"/>
        <pt x="414" y="291" on="0"/>
        <pt x="414" y="217" on="1"/>
        <pt x="414" y="176" on="0"/>
        <pt x="641" y="176" on="1"/>
        <pt x="955" y="184" on="1"/>
        <pt x="1093" y="184" on="0"/>
        <pt x="1093" y="109" on="1"/>
        <pt x="1093" y="84" on="1"/>
        <pt x="1093" y="39" on="0"/>
        <pt x="1015" y="26" on="1"/>
        <pt x="881" y="4" on="0"/>
        <pt x="486" y="4" on="1"/>
        <pt x="385" y="4" on="1"/>
        <pt x="217" y="4" on="0"/>
        <pt x="124" y="38" on="0"/>
        <pt x="124" y="169" on="0"/>
        <pt x="201" y="300" on="1"/>
        <pt x="354" y="560" on="0"/>
        <pt x="479" y="736" on="1"/>
        <pt x="772" y="1149" on="0"/>
        <pt x="772" y="1190" on="1"/>
        <pt x="772" y="1226" on="0"/>
        <pt x="662" y="1247" on="0"/>
        <pt x="494" y="1247" on="1"/>
        <pt x="246" y="1242" on="1"/>
        <pt x="182" y="1242" on="0"/>
      </contour>
    </TTGlyph>
    <TTGlyph name="Zcaron" xMin="120" yMin="17" xMax="1097" yMax="1862">
      <contour>
        <pt x="844" y="1862" on="1"/>
        <pt x="859" y="1862" on="1"/>
        <pt x="912" y="1862" on="0"/>
        <pt x="912" y="1831" on="1"/>
        <pt x="912" y="1824" on="1"/>
        <pt x="912" y="1761" on="0"/>
        <pt x="716" y="1581" on="1"/>
        <pt x="661" y="1531" on="0"/>
        <pt x="611" y="1531" on="1"/>
        <pt x="604" y="1532" on="1"/>
        <pt x="596" y="1532" on="1"/>
        <pt x="552" y="1532" on="0"/>
        <pt x="501" y="1587" on="1"/>
        <pt x="320" y="1783" on="0"/>
        <pt x="320" y="1826" on="1"/>
        <pt x="320" y="1859" on="0"/>
        <pt x="451" y="1859" on="0"/>
        <pt x="608" y="1688" on="0"/>
        <pt x="618" y="1688" on="0"/>
        <pt x="792" y="1862" on="0"/>
      </contour>
      <contour>
        <pt x="132" y="1284" on="0"/>
        <pt x="132" y="1386" on="0"/>
        <pt x="201" y="1399" on="1"/>
        <pt x="299" y="1417" on="0"/>
        <pt x="599" y="1417" on="1"/>
        <pt x="735" y="1417" on="1"/>
        <pt x="918" y="1417" on="0"/>
        <pt x="1053" y="1383" on="0"/>
        <pt x="1053" y="1339" on="1"/>
        <pt x="1053" y="1259" on="0"/>
        <pt x="886" y="967" on="0"/>
        <pt x="425" y="312" on="0"/>
        <pt x="425" y="233" on="1"/>
        <pt x="425" y="188" on="0"/>
        <pt x="617" y="188" on="1"/>
        <pt x="654" y="188" on="0"/>
        <pt x="780" y="194" on="1"/>
        <pt x="872" y="200" on="1"/>
        <pt x="932" y="203" on="0"/>
        <pt x="960" y="203" on="1"/>
        <pt x="1097" y="203" on="0"/>
        <pt x="1097" y="133" on="1"/>
        <pt x="1097" y="108" on="1"/>
        <pt x="1097" y="51" on="0"/>
        <pt x="994" y="38" on="1"/>
        <pt x="831" y="17" on="0"/>
        <pt x="497" y="17" on="1"/>
        <pt x="463" y="18" on="1"/>
        <pt x="328" y="20" on="1"/>
        <pt x="294" y="21" on="0"/>
        <pt x="236" y="21" on="1"/>
        <pt x="120" y="21" on="0"/>
        <pt x="120" y="106" on="1"/>
        <pt x="120" y="179" on="0"/>
        <pt x="341" y="560" on="0"/>
        <pt x="488" y="764" on="1"/>
        <pt x="765" y="1148" on="0"/>
        <pt x="765" y="1209" on="1"/>
        <pt x="765" y="1250" on="0"/>
        <pt x="493" y="1250" on="1"/>
        <pt x="250" y="1240" on="1"/>
        <pt x="182" y="1240" on="0"/>
      </contour>
    </TTGlyph>
    <TTGlyph name="a" xMin="81" yMin="-10" xMax="912" yMax="1031">
      <contour>
        <pt x="290" y="275" on="1"/>
        <pt x="290" y="211" on="0"/>
        <pt x="352" y="168" on="1"/>
        <pt x="393" y="139" on="0"/>
        <pt x="468" y="139" on="1"/>
        <pt x="474" y="139" on="1"/>
        <pt x="492" y="142" on="0"/>
        <pt x="512" y="142" on="1"/>
        <pt x="579" y="142" on="0"/>
        <pt x="686" y="262" on="0"/>
        <pt x="686" y="317" on="1"/>
        <pt x="688" y="329" on="1"/>
        <pt x="691" y="382" on="1"/>
        <pt x="691" y="434" on="1"/>
        <pt x="691" y="471" on="0"/>
        <pt x="642" y="498" on="0"/>
        <pt x="573" y="498" on="1"/>
        <pt x="559" y="498" on="1"/>
        <pt x="552" y="497" on="1"/>
        <pt x="539" y="497" on="1"/>
        <pt x="497" y="494" on="1"/>
        <pt x="476" y="491" on="0"/>
        <pt x="463" y="491" on="1"/>
        <pt x="391" y="491" on="0"/>
        <pt x="288" y="401" on="0"/>
        <pt x="288" y="326" on="1"/>
        <pt x="288" y="297" on="1"/>
        <pt x="290" y="281" on="0"/>
      </contour>
      <contour>
        <pt x="219" y="820" on="1"/>
        <pt x="153" y="820" on="0"/>
        <pt x="153" y="892" on="1"/>
        <pt x="153" y="942" on="0"/>
        <pt x="222" y="976" on="1"/>
        <pt x="332" y="1031" on="0"/>
        <pt x="457" y="1031" on="1"/>
        <pt x="505" y="1031" on="1"/>
        <pt x="605" y="1031" on="0"/>
        <pt x="780" y="959" on="0"/>
        <pt x="827" y="884" on="1"/>
        <pt x="887" y="789" on="0"/>
        <pt x="887" y="463" on="1"/>
        <pt x="887" y="291" on="0"/>
        <pt x="912" y="127" on="0"/>
        <pt x="912" y="89" on="1"/>
        <pt x="912" y="14" on="0"/>
        <pt x="816" y="14" on="1"/>
        <pt x="773" y="14" on="0"/>
        <pt x="699" y="66" on="0"/>
        <pt x="655" y="66" on="0"/>
        <pt x="465" y="-10" on="0"/>
        <pt x="369" y="-10" on="1"/>
        <pt x="234" y="-10" on="0"/>
        <pt x="81" y="160" on="0"/>
        <pt x="81" y="284" on="1"/>
        <pt x="81" y="307" on="1"/>
        <pt x="81" y="459" on="0"/>
        <pt x="213" y="542" on="1"/>
        <pt x="299" y="596" on="0"/>
        <pt x="658" y="636" on="0"/>
        <pt x="668" y="648" on="1"/>
        <pt x="681" y="663" on="0"/>
        <pt x="681" y="699" on="1"/>
        <pt x="681" y="710" on="0"/>
        <pt x="680" y="722" on="1"/>
        <pt x="667" y="864" on="0"/>
        <pt x="480" y="865" on="1"/>
        <pt x="411" y="865" on="0"/>
        <pt x="247" y="820" on="0"/>
      </contour>
    </TTGlyph>
    <TTGlyph name="aacute" xMin="72" yMin="-3" xMax="902" yMax="1483">
      <contour>
        <pt x="418" y="183" on="1"/>
        <pt x="459" y="183" on="1"/>
        <pt x="471" y="185" on="0"/>
        <pt x="479" y="185" on="1"/>
        <pt x="560" y="185" on="0"/>
        <pt x="677" y="302" on="0"/>
        <pt x="677" y="365" on="1"/>
        <pt x="679" y="377" on="1"/>
        <pt x="682" y="429" on="1"/>
        <pt x="682" y="467" on="1"/>
        <pt x="682" y="508" on="0"/>
        <pt x="649" y="536" on="0"/>
        <pt x="605" y="536" on="1"/>
        <pt x="566" y="536" on="1"/>
        <pt x="513" y="532" on="1"/>
        <pt x="478" y="527" on="0"/>
        <pt x="468" y="527" on="1"/>
        <pt x="382" y="527" on="0"/>
        <pt x="277" y="409" on="0"/>
        <pt x="277" y="335" on="1"/>
        <pt x="277" y="315" on="1"/>
        <pt x="277" y="251" on="0"/>
        <pt x="364" y="183" on="0"/>
      </contour>
      <contour>
        <pt x="443" y="1143" on="1"/>
        <pt x="427" y="1143" on="1"/>
        <pt x="370" y="1143" on="0"/>
        <pt x="370" y="1175" on="1"/>
        <pt x="370" y="1190" on="1"/>
        <pt x="370" y="1271" on="0"/>
        <pt x="524" y="1425" on="1"/>
        <pt x="582" y="1483" on="0"/>
        <pt x="652" y="1483" on="1"/>
        <pt x="663" y="1483" on="1"/>
        <pt x="748" y="1483" on="0"/>
        <pt x="748" y="1436" on="1"/>
        <pt x="748" y="1421" on="1"/>
        <pt x="748" y="1366" on="0"/>
        <pt x="497" y="1143" on="0"/>
      </contour>
      <contour>
        <pt x="216" y="822" on="1"/>
        <pt x="149" y="822" on="0"/>
        <pt x="149" y="892" on="1"/>
        <pt x="149" y="945" on="0"/>
        <pt x="334" y="1028" on="0"/>
        <pt x="447" y="1028" on="1"/>
        <pt x="494" y="1028" on="1"/>
        <pt x="601" y="1028" on="0"/>
        <pt x="769" y="954" on="0"/>
        <pt x="815" y="885" on="1"/>
        <pt x="877" y="791" on="0"/>
        <pt x="877" y="468" on="1"/>
        <pt x="877" y="299" on="0"/>
        <pt x="902" y="134" on="0"/>
        <pt x="902" y="108" on="1"/>
        <pt x="902" y="87" on="1"/>
        <pt x="902" y="21" on="0"/>
        <pt x="793" y="21" on="1"/>
        <pt x="765" y="21" on="0"/>
        <pt x="689" y="69" on="0"/>
        <pt x="646" y="69" on="0"/>
        <pt x="454" y="-3" on="0"/>
        <pt x="367" y="-3" on="1"/>
        <pt x="228" y="-3" on="0"/>
        <pt x="72" y="163" on="0"/>
        <pt x="72" y="467" on="0"/>
        <pt x="216" y="550" on="1"/>
        <pt x="324" y="612" on="0"/>
        <pt x="537" y="621" on="1"/>
        <pt x="635" y="625" on="0"/>
        <pt x="666" y="656" on="0"/>
        <pt x="666" y="761" on="0"/>
        <pt x="587" y="861" on="0"/>
        <pt x="398" y="861" on="0"/>
        <pt x="245" y="822" on="0"/>
      </contour>
    </TTGlyph>
    <TTGlyph name="acircumflex" xMin="71" yMin="-9" xMax="906" yMax="1485">
      <contour>
        <pt x="434" y="166" on="1"/>
        <pt x="447" y="166" on="1"/>
        <pt x="551" y="166" on="0"/>
        <pt x="685" y="285" on="0"/>
        <pt x="685" y="398" on="1"/>
        <pt x="685" y="423" on="1"/>
        <pt x="685" y="477" on="0"/>
        <pt x="650" y="512" on="0"/>
        <pt x="581" y="512" on="1"/>
        <pt x="528" y="512" on="1"/>
        <pt x="402" y="512" on="0"/>
        <pt x="276" y="414" on="0"/>
        <pt x="276" y="337" on="1"/>
        <pt x="276" y="302" on="1"/>
        <pt x="276" y="240" on="0"/>
        <pt x="361" y="166" on="0"/>
      </contour>
      <contour>
        <pt x="497" y="1485" on="1"/>
        <pt x="514" y="1485" on="1"/>
        <pt x="572" y="1485" on="0"/>
        <pt x="616" y="1437" on="1"/>
        <pt x="800" y="1238" on="0"/>
        <pt x="800" y="1187" on="1"/>
        <pt x="800" y="1154" on="0"/>
        <pt x="733" y="1154" on="1"/>
        <pt x="717" y="1154" on="1"/>
        <pt x="663" y="1154" on="0"/>
        <pt x="603" y="1225" on="1"/>
        <pt x="508" y="1337" on="0"/>
        <pt x="501" y="1337" on="0"/>
        <pt x="433" y="1263" on="0"/>
        <pt x="404" y="1234" on="1"/>
        <pt x="335" y="1165" on="0"/>
        <pt x="207" y="1165" on="0"/>
        <pt x="207" y="1190" on="1"/>
        <pt x="207" y="1196" on="1"/>
        <pt x="208" y="1207" on="0"/>
        <pt x="274" y="1300" on="1"/>
        <pt x="406" y="1485" on="0"/>
      </contour>
      <contour>
        <pt x="672" y="652" on="0"/>
        <pt x="672" y="794" on="0"/>
        <pt x="560" y="866" on="0"/>
        <pt x="412" y="866" on="0"/>
        <pt x="232" y="823" on="0"/>
        <pt x="212" y="823" on="1"/>
        <pt x="146" y="823" on="0"/>
        <pt x="146" y="897" on="1"/>
        <pt x="146" y="953" on="0"/>
        <pt x="346" y="1033" on="0"/>
        <pt x="452" y="1033" on="1"/>
        <pt x="500" y="1033" on="1"/>
        <pt x="722" y="1033" on="0"/>
        <pt x="828" y="874" on="1"/>
        <pt x="881" y="794" on="0"/>
        <pt x="881" y="474" on="1"/>
        <pt x="881" y="468" on="0"/>
        <pt x="881" y="462" on="1"/>
        <pt x="881" y="275" on="0"/>
        <pt x="906" y="138" on="0"/>
        <pt x="906" y="118" on="1"/>
        <pt x="906" y="97" on="1"/>
        <pt x="906" y="50" on="0"/>
        <pt x="858" y="14" on="0"/>
        <pt x="765" y="14" on="0"/>
        <pt x="690" y="64" on="0"/>
        <pt x="650" y="64" on="0"/>
        <pt x="455" y="-9" on="0"/>
        <pt x="384" y="-9" on="1"/>
        <pt x="361" y="-9" on="1"/>
        <pt x="238" y="-9" on="0"/>
        <pt x="71" y="147" on="0"/>
        <pt x="71" y="450" on="0"/>
        <pt x="186" y="531" on="1"/>
        <pt x="249" y="575" on="0"/>
        <pt x="389" y="610" on="0"/>
        <pt x="635" y="632" on="0"/>
        <pt x="647" y="638" on="1"/>
      </contour>
    </TTGlyph>
    <TTGlyph name="acute" xMin="165" yMin="1140" xMax="543" yMax="1476">
      <contour>
        <pt x="232" y="1140" on="1"/>
        <pt x="205" y="1140" on="1"/>
        <pt x="165" y="1140" on="0"/>
        <pt x="165" y="1166" on="1"/>
        <pt x="165" y="1181" on="1"/>
        <pt x="165" y="1237" on="0"/>
        <pt x="328" y="1423" on="1"/>
        <pt x="374" y="1476" on="0"/>
        <pt x="448" y="1476" on="1"/>
        <pt x="474" y="1476" on="1"/>
        <pt x="543" y="1476" on="0"/>
        <pt x="543" y="1438" on="1"/>
        <pt x="543" y="1424" on="1"/>
        <pt x="543" y="1375" on="0"/>
        <pt x="364" y="1216" on="1"/>
        <pt x="278" y="1140" on="0"/>
      </contour>
    </TTGlyph>
    <TTGlyph name="adieresis" xMin="66" yMin="-5" xMax="895" yMax="1421">
      <contour>
        <pt x="468" y="175" on="1"/>
        <pt x="540" y="175" on="0"/>
        <pt x="659" y="294" on="0"/>
        <pt x="659" y="356" on="1"/>
        <pt x="660" y="363" on="1"/>
        <pt x="661" y="369" on="1"/>
        <pt x="664" y="431" on="1"/>
        <pt x="664" y="451" on="1"/>
        <pt x="664" y="494" on="0"/>
        <pt x="634" y="524" on="0"/>
        <pt x="577" y="524" on="1"/>
        <pt x="550" y="524" on="1"/>
        <pt x="544" y="523" on="1"/>
        <pt x="459" y="518" on="1"/>
        <pt x="434" y="516" on="1"/>
        <pt x="360" y="516" on="0"/>
        <pt x="265" y="409" on="0"/>
        <pt x="265" y="331" on="1"/>
        <pt x="265" y="317" on="1"/>
        <pt x="265" y="263" on="0"/>
        <pt x="334" y="175" on="0"/>
        <pt x="397" y="175" on="1"/>
        <pt x="410" y="173" on="1"/>
        <pt x="449" y="173" on="1"/>
        <pt x="461" y="175" on="0"/>
      </contour>
      <contour>
        <pt x="333" y="1421" on="1"/>
        <pt x="416" y="1421" on="0"/>
        <pt x="416" y="1355" on="1"/>
        <pt x="418" y="1347" on="0"/>
        <pt x="418" y="1344" on="1"/>
        <pt x="420" y="1325" on="1"/>
        <pt x="420" y="1297" on="1"/>
        <pt x="419" y="1294" on="1"/>
        <pt x="419" y="1290" on="0"/>
        <pt x="419" y="1286" on="1"/>
        <pt x="413" y="1253" on="1"/>
        <pt x="413" y="1208" on="0"/>
        <pt x="361" y="1208" on="1"/>
        <pt x="351" y="1205" on="0"/>
        <pt x="347" y="1205" on="1"/>
        <pt x="325" y="1202" on="1"/>
        <pt x="295" y="1202" on="1"/>
        <pt x="212" y="1202" on="0"/>
        <pt x="212" y="1268" on="1"/>
        <pt x="210" y="1276" on="0"/>
        <pt x="210" y="1279" on="1"/>
        <pt x="208" y="1298" on="1"/>
        <pt x="208" y="1326" on="1"/>
        <pt x="209" y="1329" on="1"/>
        <pt x="209" y="1333" on="0"/>
        <pt x="209" y="1337" on="1"/>
        <pt x="215" y="1370" on="1"/>
        <pt x="215" y="1415" on="0"/>
        <pt x="267" y="1415" on="1"/>
        <pt x="276" y="1418" on="0"/>
        <pt x="281" y="1418" on="1"/>
        <pt x="303" y="1421" on="1"/>
      </contour>
      <contour>
        <pt x="570" y="1339" on="1"/>
        <pt x="570" y="1395" on="0"/>
        <pt x="660" y="1395" on="1"/>
        <pt x="697" y="1395" on="1"/>
        <pt x="709" y="1392" on="0"/>
        <pt x="721" y="1392" on="1"/>
        <pt x="796" y="1392" on="0"/>
        <pt x="796" y="1284" on="1"/>
        <pt x="796" y="1277" on="1"/>
        <pt x="795" y="1273" on="1"/>
        <pt x="792" y="1243" on="1"/>
        <pt x="791" y="1239" on="0"/>
        <pt x="791" y="1235" on="1"/>
        <pt x="791" y="1175" on="0"/>
        <pt x="698" y="1175" on="1"/>
        <pt x="694" y="1176" on="1"/>
        <pt x="686" y="1176" on="1"/>
        <pt x="674" y="1177" on="1"/>
        <pt x="667" y="1177" on="1"/>
        <pt x="651" y="1181" on="0"/>
        <pt x="644" y="1181" on="1"/>
        <pt x="571" y="1181" on="0"/>
        <pt x="571" y="1260" on="1"/>
        <pt x="569" y="1268" on="0"/>
        <pt x="569" y="1272" on="1"/>
        <pt x="567" y="1290" on="1"/>
        <pt x="567" y="1323" on="1"/>
        <pt x="570" y="1332" on="0"/>
      </contour>
      <contour>
        <pt x="466" y="864" on="1"/>
        <pt x="404" y="864" on="0"/>
        <pt x="218" y="824" on="0"/>
        <pt x="207" y="824" on="1"/>
        <pt x="141" y="824" on="0"/>
        <pt x="141" y="896" on="1"/>
        <pt x="141" y="948" on="0"/>
        <pt x="328" y="1029" on="0"/>
        <pt x="445" y="1029" on="1"/>
        <pt x="491" y="1029" on="1"/>
        <pt x="598" y="1029" on="0"/>
        <pt x="767" y="949" on="0"/>
        <pt x="810" y="881" on="1"/>
        <pt x="869" y="787" on="0"/>
        <pt x="869" y="462" on="1"/>
        <pt x="869" y="288" on="0"/>
        <pt x="895" y="142" on="0"/>
        <pt x="895" y="55" on="0"/>
        <pt x="849" y="18" on="0"/>
        <pt x="753" y="18" on="0"/>
        <pt x="678" y="68" on="0"/>
        <pt x="641" y="68" on="0"/>
        <pt x="446" y="-5" on="0"/>
        <pt x="376" y="-5" on="1"/>
        <pt x="353" y="-5" on="1"/>
        <pt x="218" y="-5" on="0"/>
        <pt x="66" y="164" on="0"/>
        <pt x="66" y="380" on="0"/>
        <pt x="99" y="440" on="1"/>
        <pt x="178" y="585" on="0"/>
        <pt x="644" y="637" on="0"/>
        <pt x="662" y="660" on="0"/>
        <pt x="662" y="767" on="0"/>
        <pt x="579" y="864" on="0"/>
      </contour>
    </TTGlyph>
    <TTGlyph name="ae" xMin="88" yMin="-7" xMax="1501" yMax="1023">
      <contour>
        <pt x="500" y="504" on="1"/>
        <pt x="419" y="504" on="0"/>
        <pt x="305" y="403" on="0"/>
        <pt x="305" y="332" on="1"/>
        <pt x="305" y="311" on="1"/>
        <pt x="305" y="243" on="0"/>
        <pt x="389" y="169" on="0"/>
        <pt x="461" y="169" on="1"/>
        <pt x="474" y="169" on="1"/>
        <pt x="481" y="170" on="1"/>
        <pt x="593" y="170" on="0"/>
        <pt x="707" y="284" on="0"/>
        <pt x="707" y="376" on="1"/>
        <pt x="707" y="439" on="1"/>
        <pt x="707" y="506" on="0"/>
        <pt x="648" y="506" on="1"/>
        <pt x="636" y="508" on="1"/>
        <pt x="611" y="509" on="1"/>
        <pt x="579" y="509" on="1"/>
        <pt x="572" y="508" on="1"/>
        <pt x="559" y="508" on="1"/>
        <pt x="513" y="505" on="1"/>
        <pt x="506" y="504" on="0"/>
      </contour>
      <contour>
        <pt x="1290" y="634" on="1"/>
        <pt x="1290" y="659" on="1"/>
        <pt x="1290" y="733" on="0"/>
        <pt x="1198" y="852" on="0"/>
        <pt x="1121" y="852" on="1"/>
        <pt x="1074" y="852" on="1"/>
        <pt x="985" y="852" on="0"/>
        <pt x="865" y="716" on="0"/>
        <pt x="865" y="616" on="1"/>
        <pt x="865" y="598" on="1"/>
        <pt x="865" y="557" on="0"/>
        <pt x="944" y="557" on="1"/>
        <pt x="999" y="557" on="1"/>
        <pt x="1005" y="558" on="1"/>
        <pt x="1113" y="563" on="1"/>
        <pt x="1176" y="569" on="1"/>
        <pt x="1290" y="569" on="0"/>
      </contour>
      <contour>
        <pt x="1473" y="145" on="1"/>
        <pt x="1473" y="92" on="0"/>
        <pt x="1265" y="-7" on="0"/>
        <pt x="1028" y="-7" on="0"/>
        <pt x="893" y="43" on="0"/>
        <pt x="779" y="112" on="0"/>
        <pt x="745" y="112" on="0"/>
        <pt x="623" y="36" on="0"/>
        <pt x="493" y="-4" on="0"/>
        <pt x="260" y="-4" on="0"/>
        <pt x="88" y="157" on="0"/>
        <pt x="88" y="285" on="1"/>
        <pt x="88" y="320" on="1"/>
        <pt x="88" y="384" on="0"/>
        <pt x="123" y="442" on="1"/>
        <pt x="201" y="570" on="0"/>
        <pt x="400" y="604" on="1"/>
        <pt x="450" y="612" on="0"/>
        <pt x="626" y="625" on="0"/>
        <pt x="632" y="627" on="1"/>
        <pt x="674" y="640" on="0"/>
        <pt x="674" y="686" on="1"/>
        <pt x="674" y="773" on="0"/>
        <pt x="572" y="863" on="0"/>
        <pt x="448" y="863" on="1"/>
        <pt x="406" y="863" on="0"/>
        <pt x="240" y="814" on="0"/>
        <pt x="211" y="814" on="1"/>
        <pt x="158" y="814" on="0"/>
        <pt x="158" y="886" on="1"/>
        <pt x="158" y="938" on="0"/>
        <pt x="353" y="1019" on="0"/>
        <pt x="580" y="1019" on="0"/>
        <pt x="690" y="975" on="0"/>
        <pt x="780" y="923" on="0"/>
        <pt x="810" y="923" on="0"/>
        <pt x="836" y="937" on="1"/>
        <pt x="862" y="952" on="1"/>
        <pt x="984" y="1023" on="0"/>
        <pt x="1112" y="1023" on="1"/>
        <pt x="1378" y="1023" on="0"/>
        <pt x="1468" y="809" on="1"/>
        <pt x="1501" y="730" on="0"/>
        <pt x="1501" y="643" on="1"/>
        <pt x="1501" y="518" on="0"/>
        <pt x="1436" y="488" on="1"/>
        <pt x="1391" y="467" on="0"/>
        <pt x="1210" y="454" on="1"/>
        <pt x="979" y="437" on="1"/>
        <pt x="900" y="422" on="0"/>
        <pt x="900" y="358" on="1"/>
        <pt x="900" y="263" on="0"/>
        <pt x="981" y="203" on="1"/>
        <pt x="1038" y="161" on="0"/>
        <pt x="1157" y="161" on="1"/>
        <pt x="1197" y="161" on="0"/>
        <pt x="1410" y="215" on="0"/>
        <pt x="1426" y="215" on="1"/>
        <pt x="1473" y="215" on="0"/>
      </contour>
    </TTGlyph>
    <TTGlyph name="agrave" xMin="71" yMin="-5" xMax="906" yMax="1495">
      <contour>
        <pt x="436" y="165" on="1"/>
        <pt x="468" y="165" on="1"/>
        <pt x="568" y="165" on="0"/>
        <pt x="680" y="291" on="0"/>
        <pt x="680" y="382" on="1"/>
        <pt x="680" y="439" on="1"/>
        <pt x="680" y="511" on="0"/>
        <pt x="609" y="511" on="1"/>
        <pt x="603" y="512" on="1"/>
        <pt x="596" y="513" on="1"/>
        <pt x="570" y="514" on="1"/>
        <pt x="536" y="514" on="1"/>
        <pt x="529" y="513" on="1"/>
        <pt x="516" y="513" on="1"/>
        <pt x="276" y="513" on="0"/>
        <pt x="276" y="336" on="1"/>
        <pt x="276" y="322" on="1"/>
        <pt x="276" y="246" on="0"/>
        <pt x="367" y="165" on="0"/>
      </contour>
      <contour>
        <pt x="263" y="1437" on="1"/>
        <pt x="263" y="1451" on="1"/>
        <pt x="263" y="1495" on="0"/>
        <pt x="340" y="1495" on="1"/>
        <pt x="356" y="1495" on="1"/>
        <pt x="368" y="1493" on="0"/>
        <pt x="372" y="1493" on="1"/>
        <pt x="442" y="1493" on="0"/>
        <pt x="491" y="1430" on="1"/>
        <pt x="643" y="1235" on="0"/>
        <pt x="643" y="1195" on="1"/>
        <pt x="643" y="1180" on="1"/>
        <pt x="643" y="1151" on="0"/>
        <pt x="590" y="1151" on="1"/>
        <pt x="579" y="1151" on="1"/>
        <pt x="533" y="1151" on="0"/>
        <pt x="469" y="1208" on="1"/>
        <pt x="263" y="1391" on="0"/>
      </contour>
      <contour>
        <pt x="473" y="869" on="1"/>
        <pt x="415" y="869" on="0"/>
        <pt x="219" y="827" on="0"/>
        <pt x="211" y="827" on="1"/>
        <pt x="146" y="827" on="0"/>
        <pt x="146" y="900" on="1"/>
        <pt x="146" y="954" on="0"/>
        <pt x="342" y="1037" on="0"/>
        <pt x="468" y="1037" on="1"/>
        <pt x="710" y="1037" on="0"/>
        <pt x="809" y="905" on="1"/>
        <pt x="854" y="843" on="0"/>
        <pt x="881" y="672" on="0"/>
        <pt x="881" y="278" on="0"/>
        <pt x="906" y="141" on="0"/>
        <pt x="906" y="122" on="1"/>
        <pt x="906" y="101" on="1"/>
        <pt x="906" y="53" on="0"/>
        <pt x="858" y="17" on="0"/>
        <pt x="774" y="17" on="0"/>
        <pt x="743" y="33" on="1"/>
        <pt x="675" y="68" on="1"/>
        <pt x="645" y="68" on="0"/>
        <pt x="462" y="-5" on="0"/>
        <pt x="384" y="-5" on="1"/>
        <pt x="361" y="-5" on="1"/>
        <pt x="224" y="-5" on="0"/>
        <pt x="148" y="80" on="1"/>
        <pt x="72" y="166" on="0"/>
        <pt x="71" y="274" on="1"/>
        <pt x="72" y="382" on="0"/>
        <pt x="104" y="442" on="1"/>
        <pt x="184" y="591" on="0"/>
        <pt x="652" y="642" on="0"/>
        <pt x="672" y="667" on="0"/>
        <pt x="672" y="772" on="0"/>
        <pt x="588" y="869" on="0"/>
      </contour>
    </TTGlyph>
    <TTGlyph name="ampersand" xMin="141" yMin="-16" xMax="1190" yMax="1347">
      <contour>
        <pt x="460" y="1119" on="1"/>
        <pt x="460" y="1078" on="1"/>
        <pt x="460" y="1020" on="0"/>
        <pt x="531" y="902" on="1"/>
        <pt x="555" y="862" on="0"/>
        <pt x="576" y="862" on="1"/>
        <pt x="632" y="862" on="0"/>
        <pt x="699" y="969" on="1"/>
        <pt x="737" y="1030" on="0"/>
        <pt x="737" y="1101" on="1"/>
        <pt x="737" y="1119" on="1"/>
        <pt x="737" y="1176" on="0"/>
        <pt x="669" y="1263" on="0"/>
        <pt x="621" y="1263" on="1"/>
        <pt x="600" y="1263" on="1"/>
        <pt x="541" y="1263" on="0"/>
        <pt x="460" y="1159" on="0"/>
      </contour>
      <contour>
        <pt x="325" y="423" on="1"/>
        <pt x="325" y="392" on="1"/>
        <pt x="325" y="293" on="0"/>
        <pt x="447" y="157" on="0"/>
        <pt x="532" y="157" on="1"/>
        <pt x="563" y="157" on="1"/>
        <pt x="650" y="157" on="0"/>
        <pt x="733" y="215" on="1"/>
        <pt x="776" y="245" on="0"/>
        <pt x="776" y="266" on="1"/>
        <pt x="776" y="271" on="1"/>
        <pt x="776" y="274" on="0"/>
        <pt x="673" y="411" on="0"/>
        <pt x="508" y="650" on="0"/>
        <pt x="497" y="650" on="1"/>
        <pt x="458" y="650" on="0"/>
        <pt x="373" y="537" on="1"/>
        <pt x="325" y="473" on="0"/>
      </contour>
      <contour>
        <pt x="532" y="-16" on="1"/>
        <pt x="366" y="-16" on="0"/>
        <pt x="141" y="185" on="0"/>
        <pt x="141" y="495" on="0"/>
        <pt x="279" y="662" on="1"/>
        <pt x="351" y="749" on="0"/>
        <pt x="351" y="798" on="0"/>
        <pt x="283" y="970" on="0"/>
        <pt x="283" y="1041" on="1"/>
        <pt x="283" y="1177" on="0"/>
        <pt x="473" y="1347" on="0"/>
        <pt x="721" y="1347" on="0"/>
        <pt x="884" y="1198" on="0"/>
        <pt x="884" y="1018" on="0"/>
        <pt x="821" y="877" on="0"/>
        <pt x="701" y="724" on="0"/>
        <pt x="701" y="633" on="0"/>
        <pt x="861" y="458" on="0"/>
        <pt x="934" y="458" on="0"/>
        <pt x="1051" y="639" on="0"/>
        <pt x="1097" y="639" on="1"/>
        <pt x="1157" y="639" on="0"/>
        <pt x="1157" y="583" on="1"/>
        <pt x="1157" y="547" on="0"/>
        <pt x="1083" y="362" on="0"/>
        <pt x="1083" y="247" on="0"/>
        <pt x="1190" y="104" on="0"/>
        <pt x="1190" y="80" on="1"/>
        <pt x="1190" y="35" on="0"/>
        <pt x="1129" y="35" on="1"/>
        <pt x="1090" y="35" on="0"/>
        <pt x="975" y="82" on="0"/>
        <pt x="931" y="82" on="0"/>
        <pt x="866" y="57" on="1"/>
        <pt x="819" y="38" on="1"/>
        <pt x="676" y="-16" on="0"/>
        <pt x="560" y="-16" on="1"/>
      </contour>
    </TTGlyph>
    <TTGlyph name="aring" xMin="60" yMin="-1" xMax="900" yMax="1560">
      <contour>
        <pt x="391" y="1379" on="1"/>
        <pt x="391" y="1354" on="1"/>
        <pt x="392" y="1350" on="1"/>
        <pt x="392" y="1343" on="1"/>
        <pt x="394" y="1337" on="0"/>
        <pt x="394" y="1312" on="0"/>
        <pt x="444" y="1262" on="0"/>
        <pt x="469" y="1262" on="1"/>
        <pt x="475" y="1260" on="0"/>
        <pt x="479" y="1260" on="1"/>
        <pt x="493" y="1259" on="1"/>
        <pt x="500" y="1259" on="1"/>
        <pt x="531" y="1259" on="0"/>
        <pt x="594" y="1309" on="0"/>
        <pt x="594" y="1350" on="1"/>
        <pt x="594" y="1375" on="1"/>
        <pt x="593" y="1379" on="1"/>
        <pt x="593" y="1386" on="1"/>
        <pt x="591" y="1392" on="0"/>
        <pt x="591" y="1417" on="0"/>
        <pt x="538" y="1470" on="0"/>
        <pt x="499" y="1470" on="1"/>
        <pt x="485" y="1470" on="1"/>
        <pt x="447" y="1470" on="0"/>
        <pt x="391" y="1414" on="0"/>
      </contour>
      <contour>
        <pt x="456" y="167" on="1"/>
        <pt x="537" y="167" on="0"/>
        <pt x="669" y="284" on="0"/>
        <pt x="669" y="342" on="1"/>
        <pt x="673" y="366" on="0"/>
        <pt x="673" y="372" on="1"/>
        <pt x="675" y="415" on="1"/>
        <pt x="675" y="441" on="1"/>
        <pt x="675" y="508" on="0"/>
        <pt x="618" y="508" on="1"/>
        <pt x="586" y="511" on="1"/>
        <pt x="546" y="511" on="1"/>
        <pt x="526" y="509" on="1"/>
        <pt x="513" y="509" on="1"/>
        <pt x="506" y="508" on="1"/>
        <pt x="492" y="508" on="1"/>
        <pt x="472" y="506" on="1"/>
        <pt x="446" y="504" on="1"/>
        <pt x="370" y="504" on="0"/>
        <pt x="267" y="401" on="0"/>
        <pt x="267" y="325" on="1"/>
        <pt x="267" y="318" on="1"/>
        <pt x="267" y="256" on="0"/>
        <pt x="334" y="169" on="0"/>
        <pt x="397" y="169" on="1"/>
        <pt x="410" y="167" on="1"/>
      </contour>
      <contour>
        <pt x="483" y="1560" on="1"/>
        <pt x="498" y="1560" on="1"/>
        <pt x="505" y="1559" on="1"/>
        <pt x="592" y="1559" on="0"/>
        <pt x="709" y="1442" on="0"/>
        <pt x="709" y="1360" on="1"/>
        <pt x="709" y="1345" on="1"/>
        <pt x="708" y="1338" on="1"/>
        <pt x="708" y="1267" on="0"/>
        <pt x="601" y="1148" on="0"/>
        <pt x="524" y="1148" on="1"/>
        <pt x="490" y="1148" on="1"/>
        <pt x="476" y="1150" on="0"/>
        <pt x="469" y="1150" on="1"/>
        <pt x="398" y="1150" on="0"/>
        <pt x="284" y="1276" on="0"/>
        <pt x="284" y="1337" on="1"/>
        <pt x="282" y="1351" on="1"/>
        <pt x="282" y="1379" on="1"/>
        <pt x="282" y="1448" on="0"/>
        <pt x="394" y="1560" on="0"/>
      </contour>
      <contour>
        <pt x="662" y="658" on="0"/>
        <pt x="662" y="800" on="0"/>
        <pt x="552" y="871" on="0"/>
        <pt x="402" y="871" on="0"/>
        <pt x="225" y="828" on="0"/>
        <pt x="202" y="828" on="1"/>
        <pt x="135" y="828" on="0"/>
        <pt x="135" y="900" on="1"/>
        <pt x="135" y="955" on="0"/>
        <pt x="322" y="1039" on="0"/>
        <pt x="438" y="1039" on="1"/>
        <pt x="485" y="1039" on="1"/>
        <pt x="593" y="1039" on="0"/>
        <pt x="766" y="964" on="0"/>
        <pt x="812" y="894" on="1"/>
        <pt x="873" y="801" on="0"/>
        <pt x="873" y="495" on="1"/>
        <pt x="873" y="306" on="0"/>
        <pt x="900" y="128" on="0"/>
        <pt x="900" y="94" on="1"/>
        <pt x="900" y="22" on="0"/>
        <pt x="804" y="22" on="1"/>
        <pt x="759" y="22" on="0"/>
        <pt x="682" y="73" on="0"/>
        <pt x="632" y="73" on="0"/>
        <pt x="447" y="-1" on="0"/>
        <pt x="379" y="-1" on="1"/>
        <pt x="356" y="-1" on="1"/>
        <pt x="229" y="-1" on="0"/>
        <pt x="60" y="152" on="0"/>
        <pt x="60" y="288" on="1"/>
        <pt x="60" y="312" on="1"/>
        <pt x="60" y="457" on="0"/>
        <pt x="275" y="609" on="0"/>
        <pt x="627" y="640" on="0"/>
        <pt x="637" y="645" on="1"/>
      </contour>
    </TTGlyph>
    <TTGlyph name="asciicircum" xMin="124" yMin="775" xMax="900" yMax="1377">
      <contour>
        <pt x="900" y="814" on="1"/>
        <pt x="900" y="803" on="1"/>
        <pt x="900" y="776" on="0"/>
        <pt x="778" y="776" on="0"/>
        <pt x="729" y="837" on="1"/>
        <pt x="707" y="864" on="0"/>
        <pt x="521" y="1183" on="0"/>
        <pt x="512" y="1183" on="0"/>
        <pt x="312" y="861" on="0"/>
        <pt x="299" y="845" on="1"/>
        <pt x="246" y="775" on="0"/>
        <pt x="191" y="775" on="1"/>
        <pt x="179" y="775" on="1"/>
        <pt x="124" y="775" on="0"/>
        <pt x="124" y="803" on="1"/>
        <pt x="124" y="814" on="1"/>
        <pt x="124" y="864" on="0"/>
        <pt x="403" y="1292" on="1"/>
        <pt x="458" y="1377" on="0"/>
        <pt x="579" y="1377" on="0"/>
        <pt x="632" y="1296" on="1"/>
        <pt x="900" y="885" on="0"/>
      </contour>
    </TTGlyph>
    <TTGlyph name="asciitilde" xMin="117" yMin="592" xMax="953" yMax="866">
      <contour>
        <pt x="332" y="866" on="1"/>
        <pt x="363" y="866" on="1"/>
        <pt x="420" y="866" on="0"/>
        <pt x="658" y="747" on="0"/>
        <pt x="756" y="747" on="0"/>
        <pt x="874" y="841" on="0"/>
        <pt x="905" y="841" on="1"/>
        <pt x="953" y="841" on="0"/>
        <pt x="953" y="711" on="0"/>
        <pt x="806" y="592" on="0"/>
        <pt x="726" y="592" on="1"/>
        <pt x="705" y="592" on="1"/>
        <pt x="641" y="592" on="0"/>
        <pt x="403" y="711" on="0"/>
        <pt x="317" y="711" on="0"/>
        <pt x="187" y="616" on="0"/>
        <pt x="162" y="616" on="1"/>
        <pt x="117" y="616" on="0"/>
        <pt x="117" y="663" on="1"/>
        <pt x="117" y="674" on="1"/>
        <pt x="117" y="745" on="0"/>
        <pt x="257" y="866" on="0"/>
      </contour>
    </TTGlyph>
    <TTGlyph name="asterisk" xMin="131" yMin="744" xMax="755" yMax="1379">
      <contour>
        <pt x="131" y="1128" on="1"/>
        <pt x="131" y="1154" on="0"/>
        <pt x="179" y="1204" on="0"/>
        <pt x="234" y="1204" on="0"/>
        <pt x="361" y="1155" on="0"/>
        <pt x="378" y="1155" on="0"/>
        <pt x="375" y="1234" on="0"/>
        <pt x="375" y="1253" on="1"/>
        <pt x="375" y="1379" on="0"/>
        <pt x="431" y="1379" on="1"/>
        <pt x="445" y="1379" on="1"/>
        <pt x="525" y="1379" on="0"/>
        <pt x="539" y="1272" on="1"/>
        <pt x="541" y="1248" on="1"/>
        <pt x="543" y="1219" on="0"/>
        <pt x="545" y="1216" on="1"/>
        <pt x="552" y="1202" on="0"/>
        <pt x="598" y="1202" on="1"/>
        <pt x="641" y="1214" on="1"/>
        <pt x="664" y="1220" on="0"/>
        <pt x="685" y="1220" on="1"/>
        <pt x="755" y="1220" on="0"/>
        <pt x="755" y="1127" on="0"/>
        <pt x="739" y="1087" on="1"/>
        <pt x="716" y="1029" on="1"/>
        <pt x="701" y="942" on="1"/>
        <pt x="701" y="878" on="0"/>
        <pt x="667" y="836" on="1"/>
        <pt x="593" y="744" on="0"/>
        <pt x="551" y="744" on="1"/>
        <pt x="542" y="744" on="1"/>
        <pt x="517" y="744" on="0"/>
        <pt x="427" y="818" on="0"/>
        <pt x="393" y="818" on="0"/>
        <pt x="308" y="764" on="0"/>
        <pt x="273" y="764" on="1"/>
        <pt x="202" y="764" on="0"/>
        <pt x="202" y="804" on="1"/>
        <pt x="202" y="869" on="0"/>
        <pt x="234" y="908" on="1"/>
        <pt x="243" y="919" on="0"/>
        <pt x="298" y="972" on="0"/>
        <pt x="298" y="982" on="1"/>
        <pt x="298" y="1001" on="0"/>
        <pt x="131" y="1071" on="0"/>
      </contour>
    </TTGlyph>
    <TTGlyph name="at" xMin="112" yMin="-204" xMax="1545" yMax="1313">
      <contour>
        <pt x="1014" y="700" on="1"/>
        <pt x="1014" y="735" on="0"/>
        <pt x="957" y="779" on="0"/>
        <pt x="899" y="779" on="1"/>
        <pt x="892" y="779" on="1"/>
        <pt x="794" y="779" on="0"/>
        <pt x="648" y="618" on="0"/>
        <pt x="648" y="499" on="1"/>
        <pt x="648" y="445" on="1"/>
        <pt x="650" y="429" on="0"/>
        <pt x="650" y="422" on="1"/>
        <pt x="650" y="363" on="0"/>
        <pt x="726" y="277" on="0"/>
        <pt x="775" y="277" on="1"/>
        <pt x="782" y="278" on="1"/>
        <pt x="877" y="278" on="0"/>
        <pt x="1011" y="480" on="0"/>
        <pt x="1011" y="639" on="1"/>
        <pt x="1013" y="653" on="1"/>
        <pt x="1014" y="681" on="1"/>
      </contour>
      <contour>
        <pt x="797" y="-204" on="1"/>
        <pt x="495" y="-204" on="0"/>
        <pt x="301" y="-10" on="1"/>
        <pt x="112" y="178" on="0"/>
        <pt x="112" y="514" on="1"/>
        <pt x="112" y="680" on="0"/>
        <pt x="166" y="826" on="1"/>
        <pt x="275" y="1118" on="0"/>
        <pt x="527" y="1238" on="1"/>
        <pt x="685" y="1313" on="0"/>
        <pt x="856" y="1313" on="1"/>
        <pt x="913" y="1313" on="1"/>
        <pt x="913" y="1313" on="0"/>
        <pt x="918" y="1313" on="1"/>
        <pt x="1050" y="1313" on="0"/>
        <pt x="1168" y="1262" on="1"/>
        <pt x="1545" y="1099" on="0"/>
        <pt x="1545" y="688" on="1"/>
        <pt x="1544" y="464" on="0"/>
        <pt x="1336" y="206" on="0"/>
        <pt x="1150" y="206" on="1"/>
        <pt x="1138" y="206" on="0"/>
        <pt x="1027" y="239" on="0"/>
        <pt x="969" y="239" on="0"/>
        <pt x="831" y="212" on="0"/>
        <pt x="786" y="212" on="1"/>
        <pt x="701" y="212" on="0"/>
        <pt x="573" y="344" on="0"/>
        <pt x="573" y="627" on="0"/>
        <pt x="666" y="788" on="1"/>
        <pt x="719" y="880" on="0"/>
        <pt x="834" y="880" on="1"/>
        <pt x="899" y="878" on="1"/>
        <pt x="933" y="882" on="1"/>
        <pt x="971" y="887" on="0"/>
        <pt x="1008" y="887" on="1"/>
        <pt x="1091" y="887" on="0"/>
        <pt x="1162" y="506" on="0"/>
        <pt x="1175" y="481" on="1"/>
        <pt x="1200" y="432" on="0"/>
        <pt x="1273" y="432" on="0"/>
        <pt x="1337" y="540" on="0"/>
        <pt x="1337" y="632" on="1"/>
        <pt x="1337" y="634" on="0"/>
        <pt x="1337" y="637" on="1"/>
        <pt x="1337" y="727" on="0"/>
        <pt x="1302" y="818" on="1"/>
        <pt x="1197" y="1095" on="0"/>
        <pt x="856" y="1095" on="1"/>
        <pt x="854" y="1095" on="1"/>
        <pt x="765" y="1094" on="0"/>
        <pt x="657" y="1046" on="1"/>
        <pt x="548" y="998" on="0"/>
        <pt x="476" y="910" on="1"/>
        <pt x="335" y="740" on="0"/>
        <pt x="335" y="527" on="1"/>
        <pt x="335" y="227" on="0"/>
        <pt x="520" y="73" on="1"/>
        <pt x="610" y="-2" on="0"/>
        <pt x="845" y="-63" on="0"/>
        <pt x="1067" y="-63" on="1"/>
        <pt x="1132" y="-63" on="0"/>
        <pt x="1150" y="-90" on="1"/>
        <pt x="1154" y="-96" on="0"/>
        <pt x="1154" y="-103" on="1"/>
        <pt x="1154" y="-125" on="0"/>
        <pt x="1109" y="-150" on="1"/>
        <pt x="1013" y="-204" on="0"/>
        <pt x="853" y="-204" on="1"/>
      </contour>
    </TTGlyph>
    <TTGlyph name="atilde" xMin="75" yMin="-5" xMax="904" yMax="1411">
      <contour>
        <pt x="438" y="175" on="1"/>
        <pt x="478" y="175" on="1"/>
        <pt x="490" y="177" on="0"/>
        <pt x="497" y="177" on="1"/>
        <pt x="566" y="177" on="0"/>
        <pt x="687" y="298" on="0"/>
        <pt x="687" y="394" on="1"/>
        <pt x="687" y="444" on="1"/>
        <pt x="684" y="462" on="0"/>
        <pt x="684" y="475" on="1"/>
        <pt x="684" y="519" on="0"/>
        <pt x="588" y="519" on="1"/>
        <pt x="554" y="519" on="1"/>
        <pt x="547" y="518" on="1"/>
        <pt x="527" y="518" on="1"/>
        <pt x="507" y="517" on="1"/>
        <pt x="481" y="517" on="1"/>
        <pt x="429" y="513" on="1"/>
        <pt x="366" y="513" on="0"/>
        <pt x="276" y="412" on="0"/>
        <pt x="276" y="357" on="1"/>
        <pt x="274" y="343" on="1"/>
        <pt x="274" y="315" on="1"/>
        <pt x="274" y="255" on="0"/>
        <pt x="364" y="175" on="0"/>
      </contour>
      <contour>
        <pt x="344" y="1411" on="1"/>
        <pt x="376" y="1411" on="1"/>
        <pt x="424" y="1411" on="0"/>
        <pt x="604" y="1321" on="0"/>
        <pt x="671" y="1321" on="0"/>
        <pt x="756" y="1385" on="0"/>
        <pt x="781" y="1385" on="1"/>
        <pt x="828" y="1385" on="0"/>
        <pt x="828" y="1338" on="1"/>
        <pt x="828" y="1330" on="1"/>
        <pt x="828" y="1269" on="0"/>
        <pt x="724" y="1165" on="0"/>
        <pt x="660" y="1165" on="1"/>
        <pt x="644" y="1165" on="1"/>
        <pt x="596" y="1165" on="0"/>
        <pt x="398" y="1264" on="0"/>
        <pt x="343" y="1264" on="0"/>
        <pt x="252" y="1196" on="0"/>
        <pt x="227" y="1196" on="1"/>
        <pt x="178" y="1196" on="0"/>
        <pt x="178" y="1312" on="0"/>
        <pt x="286" y="1411" on="0"/>
      </contour>
      <contour>
        <pt x="904" y="97" on="1"/>
        <pt x="904" y="17" on="0"/>
        <pt x="806" y="17" on="1"/>
        <pt x="776" y="17" on="0"/>
        <pt x="683" y="65" on="0"/>
        <pt x="636" y="65" on="0"/>
        <pt x="461" y="-5" on="0"/>
        <pt x="381" y="-5" on="1"/>
        <pt x="358" y="-5" on="1"/>
        <pt x="226" y="-5" on="0"/>
        <pt x="75" y="162" on="0"/>
        <pt x="75" y="290" on="1"/>
        <pt x="75" y="313" on="1"/>
        <pt x="75" y="457" on="0"/>
        <pt x="210" y="543" on="1"/>
        <pt x="288" y="592" on="0"/>
        <pt x="417" y="609" on="1"/>
        <pt x="439" y="612" on="0"/>
        <pt x="617" y="624" on="0"/>
        <pt x="635" y="629" on="1"/>
        <pt x="672" y="640" on="0"/>
        <pt x="672" y="711" on="1"/>
        <pt x="672" y="863" on="0"/>
        <pt x="449" y="863" on="1"/>
        <pt x="409" y="863" on="0"/>
        <pt x="241" y="822" on="0"/>
        <pt x="212" y="822" on="1"/>
        <pt x="149" y="822" on="0"/>
        <pt x="149" y="898" on="1"/>
        <pt x="149" y="944" on="0"/>
        <pt x="221" y="978" on="1"/>
        <pt x="327" y="1028" on="0"/>
        <pt x="456" y="1028" on="1"/>
        <pt x="480" y="1028" on="1"/>
        <pt x="708" y="1028" on="0"/>
        <pt x="809" y="894" on="1"/>
        <pt x="850" y="840" on="0"/>
        <pt x="878" y="682" on="0"/>
        <pt x="878" y="284" on="0"/>
        <pt x="904" y="137" on="0"/>
      </contour>
    </TTGlyph>
    <TTGlyph name="b" xMin="149" yMin="8" xMax="995" yMax="1448">
      <contour>
        <pt x="787" y="575" on="1"/>
        <pt x="785" y="629" on="1"/>
        <pt x="785" y="737" on="0"/>
        <pt x="670" y="881" on="0"/>
        <pt x="599" y="881" on="1"/>
        <pt x="579" y="881" on="1"/>
        <pt x="570" y="880" on="1"/>
        <pt x="452" y="880" on="0"/>
        <pt x="391" y="788" on="1"/>
        <pt x="344" y="717" on="0"/>
        <pt x="344" y="591" on="1"/>
        <pt x="341" y="561" on="0"/>
        <pt x="341" y="550" on="1"/>
        <pt x="339" y="498" on="1"/>
        <pt x="339" y="446" on="1"/>
        <pt x="339" y="279" on="0"/>
        <pt x="422" y="155" on="0"/>
        <pt x="525" y="155" on="1"/>
        <pt x="534" y="155" on="1"/>
        <pt x="649" y="155" on="0"/>
        <pt x="788" y="344" on="0"/>
        <pt x="788" y="531" on="1"/>
        <pt x="788" y="565" on="1"/>
      </contour>
      <contour>
        <pt x="149" y="248" on="1"/>
        <pt x="149" y="429" on="1"/>
        <pt x="150" y="452" on="1"/>
        <pt x="150" y="497" on="1"/>
        <pt x="151" y="543" on="1"/>
        <pt x="151" y="588" on="1"/>
        <pt x="153" y="656" on="1"/>
        <pt x="153" y="794" on="1"/>
        <pt x="157" y="953" on="1"/>
        <pt x="158" y="976" on="0"/>
        <pt x="158" y="1000" on="1"/>
        <pt x="160" y="1115" on="1"/>
        <pt x="160" y="1160" on="1"/>
        <pt x="160" y="1364" on="0"/>
        <pt x="167" y="1396" on="1"/>
        <pt x="178" y="1448" on="0"/>
        <pt x="226" y="1448" on="1"/>
        <pt x="245" y="1448" on="1"/>
        <pt x="319" y="1448" on="0"/>
        <pt x="361" y="1345" on="0"/>
        <pt x="361" y="1028" on="0"/>
        <pt x="376" y="957" on="0"/>
        <pt x="407" y="957" on="1"/>
        <pt x="411" y="957" on="0"/>
        <pt x="450" y="968" on="1"/>
        <pt x="502" y="981" on="1"/>
        <pt x="562" y="996" on="0"/>
        <pt x="695" y="996" on="0"/>
        <pt x="761" y="968" on="1"/>
        <pt x="891" y="912" on="0"/>
        <pt x="954" y="740" on="1"/>
        <pt x="995" y="628" on="0"/>
        <pt x="995" y="521" on="1"/>
        <pt x="995" y="451" on="1"/>
        <pt x="995" y="374" on="0"/>
        <pt x="964" y="282" on="1"/>
        <pt x="905" y="109" on="0"/>
        <pt x="741" y="38" on="1"/>
        <pt x="670" y="8" on="0"/>
        <pt x="592" y="8" on="1"/>
        <pt x="549" y="8" on="1"/>
        <pt x="507" y="8" on="0"/>
        <pt x="361" y="48" on="0"/>
        <pt x="340" y="48" on="1"/>
        <pt x="265" y="43" on="1"/>
        <pt x="201" y="43" on="0"/>
        <pt x="149" y="129" on="0"/>
      </contour>
    </TTGlyph>
    <TTGlyph name="backslash" xMin="58" yMin="-121" xMax="790" yMax="1482">
      <contour>
        <pt x="790" y="-77" on="1"/>
        <pt x="790" y="-121" on="0"/>
        <pt x="718" y="-121" on="1"/>
        <pt x="701" y="-121" on="1"/>
        <pt x="643" y="-121" on="0"/>
        <pt x="526" y="155" on="0"/>
        <pt x="107" y="1284" on="1"/>
        <pt x="58" y="1416" on="0"/>
        <pt x="58" y="1437" on="1"/>
        <pt x="58" y="1482" on="0"/>
        <pt x="130" y="1482" on="1"/>
        <pt x="148" y="1482" on="1"/>
        <pt x="203" y="1482" on="0"/>
        <pt x="267" y="1332" on="1"/>
        <pt x="300" y="1254" on="0"/>
        <pt x="610" y="420" on="0"/>
        <pt x="790" y="-51" on="0"/>
      </contour>
    </TTGlyph>
    <TTGlyph name="bar" xMin="195" yMin="-275" xMax="376" yMax="1540">
      <contour>
        <pt x="208" y="1272" on="1"/>
        <pt x="211" y="1461" on="1"/>
        <pt x="211" y="1494" on="0"/>
        <pt x="242" y="1540" on="0"/>
        <pt x="347" y="1540" on="0"/>
        <pt x="376" y="1495" on="0"/>
        <pt x="376" y="1431" on="1"/>
        <pt x="376" y="1277" on="1"/>
        <pt x="375" y="1257" on="1"/>
        <pt x="375" y="1228" on="0"/>
        <pt x="375" y="1199" on="1"/>
        <pt x="374" y="1159" on="1"/>
        <pt x="374" y="1120" on="1"/>
        <pt x="373" y="1081" on="1"/>
        <pt x="373" y="1002" on="1"/>
        <pt x="372" y="962" on="1"/>
        <pt x="372" y="923" on="1"/>
        <pt x="371" y="883" on="1"/>
        <pt x="371" y="844" on="1"/>
        <pt x="370" y="804" on="1"/>
        <pt x="370" y="764" on="0"/>
        <pt x="370" y="724" on="1"/>
        <pt x="369" y="685" on="1"/>
        <pt x="369" y="253" on="1"/>
        <pt x="369" y="-149" on="0"/>
        <pt x="357" y="-219" on="1"/>
        <pt x="347" y="-275" on="0"/>
        <pt x="267" y="-275" on="1"/>
        <pt x="223" y="-275" on="0"/>
        <pt x="195" y="-231" on="0"/>
        <pt x="195" y="-167" on="1"/>
        <pt x="195" y="-31" on="1"/>
        <pt x="196" y="-12" on="1"/>
        <pt x="196" y="47" on="1"/>
        <pt x="197" y="87" on="1"/>
        <pt x="197" y="165" on="1"/>
        <pt x="198" y="205" on="1"/>
        <pt x="198" y="244" on="1"/>
        <pt x="199" y="284" on="1"/>
        <pt x="199" y="363" on="1"/>
        <pt x="200" y="402" on="1"/>
        <pt x="200" y="422" on="0"/>
        <pt x="200" y="442" on="1"/>
        <pt x="201" y="481" on="1"/>
        <pt x="201" y="521" on="0"/>
        <pt x="201" y="561" on="1"/>
        <pt x="202" y="581" on="1"/>
        <pt x="202" y="660" on="1"/>
        <pt x="203" y="680" on="1"/>
        <pt x="203" y="759" on="1"/>
        <pt x="204" y="779" on="1"/>
        <pt x="204" y="858" on="1"/>
        <pt x="205" y="917" on="1"/>
        <pt x="205" y="976" on="1"/>
        <pt x="206" y="996" on="1"/>
        <pt x="206" y="1075" on="1"/>
        <pt x="207" y="1134" on="1"/>
        <pt x="207" y="1154" on="0"/>
        <pt x="207" y="1174" on="1"/>
        <pt x="208" y="1233" on="1"/>
      </contour>
    </TTGlyph>
    <TTGlyph name="braceleft" xMin="110" yMin="-268" xMax="659" yMax="1549">
      <contour>
        <pt x="452" y="928" on="1"/>
        <pt x="452" y="780" on="0"/>
        <pt x="378" y="695" on="1"/>
        <pt x="335" y="646" on="0"/>
        <pt x="335" y="636" on="1"/>
        <pt x="373" y="595" on="0"/>
        <pt x="389" y="576" on="1"/>
        <pt x="440" y="514" on="0"/>
        <pt x="440" y="354" on="1"/>
        <pt x="429" y="134" on="1"/>
        <pt x="429" y="27" on="0"/>
        <pt x="467" y="-41" on="1"/>
        <pt x="489" y="-80" on="0"/>
        <pt x="641" y="-165" on="0"/>
        <pt x="641" y="-213" on="1"/>
        <pt x="641" y="-268" on="0"/>
        <pt x="580" y="-268" on="1"/>
        <pt x="556" y="-268" on="1"/>
        <pt x="394" y="-268" on="0"/>
        <pt x="311" y="-159" on="1"/>
        <pt x="247" y="-74" on="0"/>
        <pt x="247" y="114" on="1"/>
        <pt x="259" y="384" on="1"/>
        <pt x="259" y="453" on="0"/>
        <pt x="218" y="529" on="0"/>
        <pt x="110" y="595" on="0"/>
        <pt x="110" y="688" on="0"/>
        <pt x="234" y="771" on="0"/>
        <pt x="269" y="854" on="0"/>
        <pt x="269" y="954" on="1"/>
        <pt x="263" y="1150" on="1"/>
        <pt x="263" y="1350" on="0"/>
        <pt x="432" y="1549" on="0"/>
        <pt x="593" y="1549" on="1"/>
        <pt x="659" y="1549" on="0"/>
        <pt x="659" y="1452" on="0"/>
        <pt x="504" y="1350" on="0"/>
        <pt x="485" y="1320" on="1"/>
        <pt x="448" y="1261" on="0"/>
        <pt x="448" y="1122" on="1"/>
        <pt x="450" y="1026" on="1"/>
        <pt x="452" y="977" on="1"/>
      </contour>
    </TTGlyph>
</ttFont>
